<svg width="90" height="90" viewBox="0 0 90 90" fill="none" xmlns="http://www.w3.org/2000/svg">
<g clip-path="url(#clip0_153_9521)">
<path d="M79.4702 21.08C79.6402 21.17 79.8002 21.25 79.9702 21.31C81.1402 21.72 82.4202 21.66 83.5402 21.12C84.6602 20.58 85.5102 19.64 85.9202 18.46C86.3402 17.28 86.2702 16.01 85.7302 14.89V14.86L79.8702 2.66001C78.7502 0.330009 75.9602 -0.649992 73.6402 0.460008C72.4102 1.05001 71.5102 2.16001 71.1602 3.51001L71.1402 3.58001L71.0802 3.61001L43.8202 16.68C43.5502 16.81 43.3502 17.03 43.2602 17.31C43.1602 17.59 43.1802 17.89 43.3102 18.15L43.9102 19.4L26.2002 27.89C25.9402 28.02 25.7302 28.24 25.6402 28.52C25.5402 28.8 25.5602 29.1 25.6902 29.36L26.3002 30.63L6.6302 40.06C5.4902 40.61 4.6102 41.54 4.1502 42.68C3.6802 43.86 3.7102 45.11 4.2402 46.21L4.6202 47C5.1502 48.1 6.1002 48.91 7.3102 49.28C8.4902 49.64 9.7602 49.54 10.9002 48.99L30.5702 39.56L31.1502 40.77C31.4002 41.3 32.0802 41.55 32.6202 41.29L35.7102 39.81L16.9002 87.51C16.7702 87.85 16.8102 88.23 17.0102 88.53C17.2202 88.83 17.5602 89.01 17.9202 89.01H22.8802C23.3402 89.01 23.7402 88.74 23.9102 88.31L39.3402 49.17V88.91C39.3402 89.52 39.8402 90.01 40.4402 90.01H45.0502C45.3402 90.01 45.6202 89.9 45.8302 89.69C46.0402 89.49 46.1502 89.2 46.1502 88.91V48.43L60.4402 87.3C60.6002 87.73 61.0202 88.02 61.4802 88.02H66.2202C66.5802 88.02 66.9202 87.84 67.1302 87.55C67.3402 87.25 67.3902 86.88 67.2602 86.54L48.9802 36.82C48.9302 36.67 48.8302 36.54 48.7002 36.41L48.6602 36.36C48.3702 35.66 47.9502 35.02 47.4202 34.45L47.2802 34.3L50.3102 32.81L50.6602 33.54C50.9102 34.07 51.6002 34.32 52.1302 34.06L79.3202 21.03L79.4602 21.1L79.4702 21.08ZM74.5902 2.45001C75.1802 2.17001 75.8502 2.13001 76.4702 2.35001C77.1002 2.57001 77.5902 3.02001 77.8802 3.61001L83.7402 15.84C84.0202 16.43 84.0602 17.1 83.8402 17.72L83.8002 17.82C83.5702 18.4 83.1402 18.86 82.5802 19.13C82.2502 19.29 81.8902 19.37 81.5202 19.37C81.2402 19.37 80.9602 19.32 80.6902 19.23C80.4202 19.13 80.1602 18.99 79.9302 18.79L79.8902 18.74L73.1902 4.72001C73.1702 3.76001 73.7202 2.86001 74.5902 2.45001ZM9.9302 46.98C9.5402 47.17 9.1202 47.26 8.7102 47.26C8.4502 47.26 8.1902 47.22 7.9402 47.15C7.3302 46.96 6.8502 46.57 6.5902 46.03L6.2102 45.24C5.9502 44.7 5.9402 44.08 6.1802 43.49C6.4302 42.86 6.9202 42.35 7.5602 42.04L10.6802 40.54L13.0502 45.48L9.9302 46.98ZM15.0402 44.53L12.6702 39.59L14.8702 38.53L17.2402 43.47L15.0402 44.53ZM19.2302 42.52L16.8602 37.58L27.2202 32.61L29.5902 37.55L19.2302 42.52ZM38.9102 44.43C38.8102 44.54 38.7302 44.65 38.6902 44.77L22.1702 86.67V86.79H22.0202H19.5402L19.6202 86.58L37.0802 42.28L37.2402 42.52C37.6802 43.17 38.2302 43.73 38.8802 44.2L39.0202 44.3L38.9002 44.43H38.9102ZM43.9402 87.79H41.5402V45.31L41.7102 45.33C42.0602 45.38 42.3502 45.4 42.6402 45.4C42.9902 45.4 43.3602 45.37 43.7602 45.3L43.9402 45.27V87.79ZM42.6402 43.2C40.2602 43.2 38.3302 41.26 38.3302 38.87C38.3302 36.48 40.2602 34.54 42.6402 34.54C45.0202 34.54 46.9502 36.48 46.9502 38.87C46.9502 41.26 45.0202 43.2 42.6402 43.2ZM48.3002 42.1L48.4602 41.82L64.6302 85.81H62.2402L62.2002 85.71L46.8202 43.87L46.9002 43.8C47.4602 43.31 47.9302 42.74 48.3002 42.1ZM46.7502 32.04C46.7502 32.04 46.7002 32.07 46.6702 32.1C46.6502 32.12 46.6202 32.14 46.6002 32.16L45.2002 32.85L45.1402 32.82C44.3402 32.49 43.5102 32.32 42.6502 32.32C39.7802 32.32 37.2702 34.17 36.4202 36.93L36.4002 36.99L32.6502 38.79L32.2302 37.91L32.3402 37.86H32.2202C32.2002 37.75 32.1902 37.64 32.1402 37.55C32.0902 37.45 32.0202 37.37 31.9402 37.29L31.9102 37.25L28.9002 30.94C28.8802 30.82 28.8702 30.71 28.8202 30.62C28.7702 30.52 28.7002 30.44 28.6202 30.36L28.5902 30.32L28.1402 29.38L44.7602 21.41L49.2702 30.82L46.7602 32.03L46.7502 32.04ZM52.1802 31.57L52.1102 31.43L45.8702 18.4L71.2002 5.99001L71.3002 6.28001C71.3502 6.42001 71.3902 6.56001 71.4502 6.69001L77.3102 18.92C77.3402 18.99 77.3802 19.05 77.4202 19.11C77.4502 19.15 77.4802 19.2 77.5102 19.24L77.5902 19.38L52.1802 31.56V31.57Z" fill="#F79839"/>
<path d="M64.05 24.0799L72.95 19.5399C73.32 19.3499 73.46 18.8999 73.28 18.5399C73.15 18.2799 72.89 18.1299 72.61 18.1299C72.5 18.1299 72.38 18.1599 72.27 18.2099L63.37 22.7499C63 22.9399 62.86 23.3899 63.04 23.7499C63.22 24.0999 63.67 24.2599 64.04 24.0699L64.05 24.0799Z" fill="#F79839"/>
</g>
<defs>
<clipPath id="clip0_153_9521">
<rect width="90" height="90" fill="white"/>
</clipPath>
</defs>
</svg>
