<svg width="80" height="80" viewBox="0 0 80 80" fill="none" xmlns="http://www.w3.org/2000/svg">
<path d="M40 50C45.5228 50 50 45.5228 50 40C50 34.4772 45.5228 30 40 30C34.4772 30 30 34.4772 30 40C30 45.5228 34.4772 50 40 50Z" stroke="#469A45" stroke-width="4" stroke-miterlimit="10" stroke-linecap="round" stroke-linejoin="round"/>
<path d="M6.66602 42.9334V37.0668C6.66602 33.6001 9.49935 30.7334 12.9993 30.7334C19.0327 30.7334 21.4993 26.4668 18.466 21.2334C16.7327 18.2334 17.766 14.3334 20.7993 12.6001L26.566 9.30011C29.1993 7.73345 32.5993 8.66678 34.166 11.3001L34.5327 11.9334C37.5327 17.1668 42.466 17.1668 45.4993 11.9334L45.866 11.3001C47.4327 8.66678 50.8327 7.73345 53.466 9.30011L59.2327 12.6001C62.266 14.3334 63.2993 18.2334 61.566 21.2334C58.5327 26.4668 60.9993 30.7334 67.0327 30.7334C70.4993 30.7334 73.366 33.5668 73.366 37.0668V42.9334C73.366 46.4001 70.5327 49.2668 67.0327 49.2668C60.9993 49.2668 58.5327 53.5334 61.566 58.7668C63.2993 61.8001 62.266 65.6668 59.2327 67.4001L53.466 70.7001C50.8327 72.2668 47.4327 71.3334 45.866 68.7001L45.4993 68.0668C42.4993 62.8334 37.566 62.8334 34.5327 68.0668L34.166 68.7001C32.5993 71.3334 29.1993 72.2668 26.566 70.7001L20.7993 67.4001C17.766 65.6668 16.7327 61.7668 18.466 58.7668C21.4993 53.5334 19.0327 49.2668 12.9993 49.2668C9.49935 49.2668 6.66602 46.4001 6.66602 42.9334Z" stroke="#469A45" stroke-width="4" stroke-miterlimit="10" stroke-linecap="round" stroke-linejoin="round"/>
</svg>
