<svg width="1920" height="207" viewBox="0 0 1920 207" fill="none" xmlns="http://www.w3.org/2000/svg">
<g clip-path="url(#clip0_193_24935)">
<path d="M1503.46 128.954C1443.92 70.4073 1327.07 30.418 1191.77 30.418C1056.48 30.418 939.779 70.2936 880.085 128.954H0.4375V133.578H1556.48V128.954H1503.46ZM1388.39 77.3631C1413.75 86.7192 1436.69 97.8388 1456.63 110.389L1455.61 111.449L1434.2 123.415L1432 124.144L1429.82 124.867L1421.77 125.159H1418.95L1417.07 123.697L1388.38 80.073L1387.88 78.6544L1388.39 77.3631ZM1388.34 77.3435C1388.34 77.3435 1388.37 77.3514 1388.38 77.3592C1388.37 77.3553 1388.36 77.3494 1388.34 77.3435ZM900.905 128.954C909.378 122.053 918.677 115.473 928.721 109.252C929.107 109.013 930.249 109.033 930.249 109.033L938.106 109.205L940.967 109.954L972.586 128.956H900.907L900.905 128.954ZM996.359 123.82L994.527 124.843L976.326 124.587L945.85 107.675L943.837 105.294V100.464C943.837 100.464 944.074 100.335 944.194 100.27C970.607 85.9022 1001.29 73.8205 1035.13 64.627L1037.38 67.1449L1037.55 68.9475L1011.87 103.578L998.485 121.634L996.357 123.818L996.359 123.82ZM999.712 128.954L1003.17 124.212L1044.13 68.0051L1045.01 67.0763L1056.15 65.0542L1057.81 66.0378L1097.89 123.131L1101.88 128.954H999.712ZM1114.18 124.475L1108.62 124.843L1105.93 124.344L1104.17 123.374L1062.45 64.2469L1061.83 61.8819L1063.53 57.7633C1063.53 57.7633 1063.51 57.7692 1063.48 57.775C1063.5 57.7711 1063.51 57.7692 1063.53 57.7633C1093.29 51.4129 1125.05 47.2119 1158.17 45.5034C1158.28 45.4975 1158.81 49.1439 1158.81 49.1439L1150.99 62.6069L1119.72 116.426L1116.21 122.468L1114.18 124.477L1114.18 124.475ZM1119.37 128.954L1120.13 127.304L1148.54 77.4924L1163.7 50.9191L1165.11 49.8532L1170.21 49.8297L1172.31 50.1804L1173.29 51.0308L1191.24 82.2753L1205.4 107.146L1217.55 128.954H1119.37H1119.37ZM1230.07 124.191L1228.14 125.235H1223.17L1220.89 124.251L1198.1 85.0302L1176.83 47.7586L1177.69 44.7823L1177.86 44.7784C1182.47 44.6804 1187.11 44.6295 1191.78 44.6295C1217.89 44.6295 1243.33 46.1813 1267.81 49.1165L1268.38 52.3632L1248.99 88.6453L1232.34 119.925L1230.08 124.189L1230.07 124.191ZM1233.17 128.954L1234.41 126.493L1264.34 70.5385L1272.27 54.5048L1275.46 54.1796L1280.31 54.7693L1281.47 56.7679L1295.69 80.553L1323.04 128.954H1233.17H1233.17ZM1334.97 124.931L1332.61 125.627L1328.73 125.235L1327.13 124.641L1286.73 53.9523L1286.87 51.7127C1286.87 51.7127 1287.11 51.7499 1287.23 51.7675C1316.11 56.1919 1343.45 62.5775 1368.75 70.6306L1369.14 73.2876L1368.49 74.7023L1336.51 123.581L1334.97 124.933L1334.97 124.931ZM1372.76 77.0927L1374.86 76.8654L1376.96 77.1535L1382.16 79.736L1383.39 81.3015L1413.91 128.909L1340.01 128.86L1372.76 77.0927ZM1436.12 128.923L1457.31 116.036L1459.6 115.219H1464.05C1470.61 119.639 1476.83 124.218 1482.64 128.952L1436.12 128.921L1436.12 128.923Z" fill="white"/>
<path d="M879.98 129.056C939.642 70.3407 1056.89 30.418 1191.77 30.418C1326.65 30.418 1444.05 70.4504 1503.56 129.048" stroke="#388DCB" stroke-width="1.37158" stroke-miterlimit="10"/>
<path d="M896.612 129.089C958.625 76.9028 1067.64 42.2764 1191.77 42.2764C1315.91 42.2764 1424.92 76.9008 1486.93 129.083" stroke="#388DCB" stroke-width="0.87389" stroke-miterlimit="10"/>
<path d="M1463.35 115.409C1470.05 119.93 1475.97 124.228 1481.88 129.078" stroke="#388DCB" stroke-width="0.87389" stroke-miterlimit="10"/>
<path d="M1387.88 77.3633C1413.42 86.8174 1436.49 98.0663 1456.48 110.775" stroke="#388DCB" stroke-width="0.87389" stroke-miterlimit="10"/>
<path d="M1287.21 51.8008C1316.01 56.2349 1343.28 62.6225 1368.49 70.6854" stroke="#388DCB" stroke-width="0.87389" stroke-miterlimit="10"/>
<path d="M1177.97 44.7788C1182.55 44.6828 1187.15 44.6338 1191.77 44.6338C1217.9 44.6338 1243.35 46.1915 1267.82 49.1424" stroke="#388DCB" stroke-width="0.87389" stroke-miterlimit="10"/>
<path d="M1063.54 57.8275C1093.17 51.4692 1124.8 47.2487 1157.79 45.5186" stroke="#388DCB" stroke-width="0.87389" stroke-miterlimit="10"/>
<path d="M943.838 100.851C970.202 86.3276 1000.92 74.1128 1034.85 64.8174" stroke="#388DCB" stroke-width="0.87389" stroke-miterlimit="10"/>
<path d="M901.634 129.101C910.177 122.09 919.57 115.409 929.735 109.098" stroke="#388DCB" stroke-width="0.87389" stroke-miterlimit="10"/>
<path d="M1032.73 62.8652L1036.37 66.2158C1037.42 67.1798 1037.59 68.9041 1036.74 70.0484L997.649 122.762C996.8 123.906 994.941 124.841 993.516 124.841H979.375C977.951 124.841 975.768 124.275 974.522 123.585L945.756 107.624C944.51 106.932 943.562 105.204 943.646 103.783L944.026 97.3878" stroke="#388DCB" stroke-width="0.87389" stroke-miterlimit="10"/>
<path d="M999.416 129.359L1043.47 68.9099C1044.31 67.7598 1046.15 66.6194 1047.55 66.3745L1054.36 65.1949C1055.76 64.952 1057.58 65.7063 1058.39 66.8722L1102.27 129.359" stroke="#388DCB" stroke-width="0.87389" stroke-miterlimit="10"/>
<path d="M924.739 109.032L937.146 109.193C938.571 109.211 940.738 109.818 941.964 110.543L973.842 129.361" stroke="#388DCB" stroke-width="0.87389" stroke-miterlimit="10"/>
<path d="M1156.86 43.21L1158.16 46.0922C1158.74 47.3913 1158.63 49.4624 1157.92 50.6929L1116.14 122.603C1115.42 123.833 1113.67 124.842 1112.25 124.842H1107.8C1106.38 124.842 1104.54 123.89 1103.72 122.726L1062.92 64.9044C1062.1 63.7405 1061.9 61.7263 1062.48 60.4252L1064.85 55.1388" stroke="#388DCB" stroke-width="0.87389" stroke-miterlimit="10"/>
<path d="M1118.96 129.359L1163.04 52.0785C1163.74 50.8421 1165.49 49.8291 1166.91 49.8291H1170.18C1171.6 49.8291 1173.34 50.8421 1174.05 52.0785L1217.93 129.163" stroke="#388DCB" stroke-width="0.87389" stroke-miterlimit="10"/>
<path d="M1179.04 42.4111C1178.84 42.4151 1177.52 45.4854 1177.52 45.4854C1176.96 46.7943 1177.08 48.8713 1177.8 50.1037L1220.16 122.997C1220.88 124.228 1222.63 125.237 1224.05 125.237H1226.93C1228.35 125.237 1230.06 124.208 1230.73 122.95L1267.78 53.3015C1268.45 52.0435 1268.43 50.1037 1267.72 48.9888C1267.02 47.8739 1266.45 46.9628 1266.45 46.9628" stroke="#388DCB" stroke-width="0.87389" stroke-miterlimit="10"/>
<path d="M1232.66 129.359C1233.51 129.359 1271.33 56.2517 1271.33 56.2517C1271.99 54.986 1273.69 54.0415 1275.11 54.1513L1277.6 54.3433C1279.02 54.453 1280.77 55.5503 1281.48 56.7847L1323.38 129.361" stroke="#388DCB" stroke-width="0.87389" stroke-miterlimit="10"/>
<path d="M1288.75 49.5685C1288.64 49.5528 1287.47 51.3789 1287.47 51.3789C1286.7 52.5781 1286.66 54.5669 1287.37 55.7993L1326.41 123.383C1327.12 124.615 1328.87 125.624 1330.29 125.624H1332.57C1334 125.624 1335.8 124.649 1336.58 123.457L1368.31 74.9661C1369.09 73.7748 1369.14 71.7939 1368.41 70.5653L1366.78 67.7752" stroke="#388DCB" stroke-width="0.87389" stroke-miterlimit="10"/>
<path d="M1339.48 129.359L1372.64 78.1211C1373.41 76.9258 1375.12 76.3929 1376.44 76.9395L1379.71 78.2935C1381.02 78.8382 1382.73 80.2666 1383.49 81.4657L1413.91 128.967" stroke="#388DCB" stroke-width="0.87389" stroke-miterlimit="10"/>
<path d="M1390.04 75.2578C1390.04 75.2578 1389.4 76.0318 1388.62 76.9762C1387.84 77.9206 1387.85 79.6665 1388.64 80.8519L1416.61 123C1417.4 124.188 1419.21 125.158 1420.64 125.158H1428.21C1429.64 125.158 1431.82 124.588 1433.06 123.892L1455.05 111.575C1456.29 110.88 1457.13 109.602 1456.9 108.738C1456.67 107.874 1456.48 107.167 1456.48 107.167" stroke="#388DCB" stroke-width="0.87389" stroke-miterlimit="10"/>
<path d="M1435.41 129.055L1456.46 116.544C1457.68 115.817 1459.85 115.222 1461.27 115.222H1468.76" stroke="#388DCB" stroke-width="0.87389" stroke-miterlimit="10"/>
<path d="M853.695 147.829H845.303V205.839H980.553L942.548 147.829H922.85V142.958L1488.58 142.942V147.829H1472.75L1439.67 205.839H1562.33V133.58L1919.57 131.885V115.463H1554.22C1484.97 47.3783 1349.1 0.874023 1191.76 0.874023C1034.42 0.874023 898.713 47.2451 829.293 115.461H0.570733L0.439453 133.578H853.695V147.829ZM1475.91 115.426L1500.55 100.441L1503.21 99.4904H1508.39C1516.02 104.632 1523.25 109.956 1530.01 115.461L1475.91 115.426H1475.91ZM1453.76 109.348L1420.39 58.6194L1419.8 56.9696L1420.41 55.4687C1449.9 66.3492 1476.57 79.2792 1499.75 93.8728L1498.57 95.1053L1473.67 109.021L1471.11 109.869L1468.57 110.71L1459.21 111.049H1455.94L1453.75 109.348H1453.76ZM1364.14 115.354L1402.23 55.1532L1404.67 54.8887L1407.11 55.2237L1413.16 58.2275L1414.59 60.0478L1450.08 115.41L1364.14 115.354ZM1349.17 110.447L1302.18 28.2429L1302.35 25.6369C1302.35 25.6369 1302.63 25.68 1302.77 25.7015C1336.35 30.8449 1368.14 38.271 1397.56 47.637L1398.01 50.725L1397.25 52.3709L1360.06 109.211L1358.28 110.782L1355.54 111.592L1351.02 111.135L1349.16 110.445L1349.17 110.447ZM1239.9 115.463L1241.34 112.601L1276.15 47.5312L1285.36 28.8855L1289.07 28.5074L1294.72 29.1932L1296.06 31.519L1312.61 59.1778L1344.4 115.463H1239.9H1239.9ZM1225.62 109.993L1199.11 64.3839L1174.37 21.0401L1175.38 17.5798L1175.57 17.5759C1180.94 17.4623 1186.34 17.4015 1191.76 17.4015C1222.13 17.4015 1251.72 19.2061 1280.18 22.6214L1280.84 26.3971L1258.29 68.5907L1238.93 104.967L1236.3 109.924L1234.05 111.139H1228.27L1225.62 109.995L1225.62 109.993ZM1107.56 115.463L1108.45 113.545L1141.49 55.6195L1159.11 24.7179L1160.75 23.4776L1166.69 23.4502L1169.12 23.8597L1170.26 24.8492L1191.13 61.1823L1207.6 90.1049L1221.73 115.465H1107.56V115.463ZM1089.89 108.972L1041.37 40.2128L1040.65 37.4618L1042.63 32.6711C1077.23 25.2861 1114.17 20.3994 1152.68 18.4145C1152.81 18.4087 1153.43 22.6468 1153.43 22.6468L1144.34 38.3024L1107.98 100.887L1103.9 107.914L1101.53 110.249L1095.06 110.679L1091.94 110.099L1089.89 108.97L1089.89 108.972ZM968.408 115.463L972.427 109.95L1020.06 44.5881L1021.08 43.5085L1034.05 41.1572L1035.97 42.2996L1082.59 108.692L1087.22 115.465H968.408V115.463ZM941.214 110.383L905.774 90.7162L903.435 87.9476V82.332C903.435 82.332 903.711 82.1811 903.848 82.1067C934.562 65.3989 970.242 51.3481 1009.6 40.6576L1012.22 43.5849L1012.41 45.6815L982.551 85.9529L966.982 106.95L964.509 109.491L962.377 110.681L941.212 110.383H941.214ZM853.507 115.463C863.361 107.44 874.173 99.7863 885.853 92.5522C886.302 92.2739 887.63 92.2975 887.63 92.2975L896.767 92.4973L900.094 93.3673L936.862 115.463H853.507Z" fill="white"/>
<path d="M0.570312 115.464H1919.56" stroke="#388DCB" stroke-width="1.74974" stroke-miterlimit="10"/>
<path d="M0.4375 128.86H1919.56" stroke="#388DCB" stroke-width="0.87389" stroke-miterlimit="10" stroke-linecap="round"/>
<path d="M0.4375 133.58H1919.56" stroke="#388DCB" stroke-width="1.3128" stroke-miterlimit="10"/>
<path d="M853.695 142.942H1562.33" stroke="#388DCB" stroke-width="1.3128" stroke-miterlimit="10"/>
<path d="M1562.33 147.829H1472.62L1439.53 205.839H1562.33" stroke="#388DCB" stroke-width="1.42252" stroke-miterlimit="10"/>
<path d="M1562.33 128.86V147.829V205.839" stroke="#388DCB" stroke-width="1.42252" stroke-miterlimit="10"/>
<path d="M845.304 147.829H942.415L980.422 205.839H845.304" stroke="#388DCB" stroke-width="1.42252" stroke-miterlimit="10"/>
<path d="M845.304 147.829V205.839" stroke="#388DCB" stroke-width="1.42252" stroke-miterlimit="10"/>
<path d="M1488.44 142.942V147.829" stroke="#388DCB" stroke-width="1.42252" stroke-miterlimit="10"/>
<path d="M922.85 142.958L922.717 147.829" stroke="#388DCB" stroke-width="1.42252" stroke-miterlimit="10"/>
<path d="M845.304 147.829H853.696" stroke="#388DCB" stroke-width="1.42252" stroke-miterlimit="10"/>
<path d="M853.695 133.58V147.829" stroke="#388DCB" stroke-width="1.3128" stroke-miterlimit="10"/>
<path d="M743.47 133.58V142.364H735.131V205.884H695.88V142.364H687.541V133.58H743.47Z" fill="white"/>
<path d="M735.131 142.364H695.881V205.886H735.131V142.364Z" stroke="#388DCB" stroke-width="1.3128" stroke-miterlimit="10"/>
<path d="M743.472 133.58H687.541V142.364H743.472V133.58Z" stroke="#388DCB" stroke-width="1.3128" stroke-miterlimit="10"/>
<path d="M1404.66 133.58V142.364H1396.32V205.884H1357.07V142.364H1348.73V133.58H1404.66Z" fill="white"/>
<path d="M1396.32 142.364H1357.07V205.886H1396.32V142.364Z" stroke="#388DCB" stroke-width="1.3128" stroke-miterlimit="10"/>
<path d="M1404.66 133.58H1348.73V142.364H1404.66V133.58Z" stroke="#388DCB" stroke-width="1.3128" stroke-miterlimit="10"/>
<path d="M1749.51 133.58V142.364H1741.17V205.884H1701.92V142.364H1693.58V133.58H1749.51Z" fill="white"/>
<path d="M1741.17 142.364H1701.92V205.886H1741.17V142.364Z" stroke="#388DCB" stroke-width="1.3128" stroke-miterlimit="10"/>
<path d="M1749.51 133.58H1693.58V142.364H1749.51V133.58Z" stroke="#388DCB" stroke-width="1.3128" stroke-miterlimit="10"/>
<path d="M305.255 133.58V142.364H296.916V205.884H257.665V142.364H249.326V133.58H305.255Z" fill="white"/>
<path d="M296.917 142.364H257.666V205.886H296.917V142.364Z" stroke="#388DCB" stroke-width="1.3128" stroke-miterlimit="10"/>
<path d="M305.257 133.58H249.326V142.364H305.257V133.58Z" stroke="#388DCB" stroke-width="1.3128" stroke-miterlimit="10"/>
</g>
<defs>
<clipPath id="clip0_193_24935">
<rect width="1920" height="206.55" fill="white"/>
</clipPath>
</defs>
</svg>
