<svg width="727" height="117" viewBox="0 0 727 117" fill="none" xmlns="http://www.w3.org/2000/svg">
<path d="M0.613281 115.58C69.9955 47.3009 206.344 0.875 363.197 0.875C520.051 0.875 656.564 47.4283 725.77 115.572" stroke="#388DCB" stroke-width="1.74974" stroke-miterlimit="10"/>
<path d="M19.9541 115.621C92.0677 54.9326 218.844 14.667 363.197 14.667C507.55 14.667 634.317 54.9306 706.432 115.615" stroke="#388DCB" stroke-width="1.74974" stroke-miterlimit="10"/>
<path d="M679.011 99.7109C686.801 104.968 693.691 109.968 700.566 115.608" stroke="#388DCB" stroke-width="1.3128" stroke-miterlimit="10"/>
<path d="M591.243 55.4678C620.946 66.4619 647.782 79.5448 671.024 94.3206" stroke="#388DCB" stroke-width="1.3128" stroke-miterlimit="10"/>
<path d="M474.184 25.7412C507.672 30.8964 539.379 38.3264 568.695 47.7002" stroke="#388DCB" stroke-width="1.3128" stroke-miterlimit="10"/>
<path d="M347.141 17.5767C352.468 17.465 357.821 17.4082 363.198 17.4082C393.578 17.4082 423.175 19.2187 451.635 22.6515" stroke="#388DCB" stroke-width="1.3128" stroke-miterlimit="10"/>
<path d="M214.071 32.7509C248.525 25.3561 285.317 20.4478 323.682 18.4375" stroke="#388DCB" stroke-width="1.3128" stroke-miterlimit="10"/>
<path d="M74.874 82.7816C105.533 65.8935 141.254 51.6879 180.717 40.8779" stroke="#388DCB" stroke-width="1.3128" stroke-miterlimit="10"/>
<path d="M25.7949 115.633C35.7291 107.48 46.6526 99.711 58.4737 92.3711" stroke="#388DCB" stroke-width="1.3128" stroke-miterlimit="10"/>
<path d="M178.251 38.6094L182.797 42.7907C183.845 43.7548 184.008 45.479 183.159 46.6233L137.202 108.601C136.353 109.745 134.494 110.68 133.069 110.68H115.779C114.355 110.68 112.172 110.114 110.926 109.424L76.7366 90.453C75.4904 89.7614 74.542 88.0332 74.6263 86.6126L75.0946 78.7554" stroke="#388DCB" stroke-width="1.3128" stroke-miterlimit="10"/>
<path d="M139.506 115.935L190.987 45.2968C191.826 44.1466 193.66 43.0062 195.063 42.7613L203.811 41.2447C205.214 41.0018 207.032 41.7561 207.85 42.922L259.113 115.933" stroke="#388DCB" stroke-width="1.3128" stroke-miterlimit="10"/>
<path d="M52.6631 92.2969L67.5133 92.4889C68.9377 92.5065 71.1049 93.1139 72.3315 93.8389L109.766 115.935" stroke="#388DCB" stroke-width="1.3128" stroke-miterlimit="10"/>
<path d="M322.601 15.7529L324.278 19.4875C324.862 20.7866 324.752 22.8577 324.037 24.0882L275.029 108.442C274.313 109.673 272.564 110.682 271.139 110.682H265.128C263.703 110.682 261.867 109.729 261.046 108.566L213.108 40.6353C212.287 39.4714 212.091 37.4572 212.673 36.1561L215.598 29.6235" stroke="#388DCB" stroke-width="1.3128" stroke-miterlimit="10"/>
<path d="M278.524 115.935L329.992 25.6986C330.697 24.4622 332.439 23.4492 333.864 23.4492H338.505C339.93 23.4492 341.672 24.4622 342.375 25.6986L393.617 115.705" stroke="#388DCB" stroke-width="1.3128" stroke-miterlimit="10"/>
<path d="M348.394 14.8242C348.157 14.8281 346.456 18.7881 346.456 18.7881C345.894 20.097 346.019 22.1739 346.735 23.4064L396.427 108.903C397.142 110.133 398.894 111.142 400.316 111.142H404.5C405.924 111.142 407.637 110.114 408.305 108.856L451.79 27.1155C452.458 25.8576 452.385 23.8433 451.625 22.6383L450.036 20.1146" stroke="#388DCB" stroke-width="1.3128" stroke-miterlimit="10"/>
<path d="M410.744 115.935C411.734 115.935 455.912 30.5447 455.912 30.5447C456.567 29.2789 458.263 28.3345 459.684 28.4442L463.426 28.7323C464.847 28.842 466.591 29.9392 467.302 31.1737L516.246 115.937" stroke="#388DCB" stroke-width="1.3128" stroke-miterlimit="10"/>
<path d="M475.971 23.1476C475.847 23.1299 474.256 25.6086 474.256 25.6086C473.486 26.8077 473.441 28.7965 474.152 30.029L519.975 109.353C520.688 110.586 522.436 111.595 523.858 111.595H527.358C528.782 111.595 530.585 110.619 531.365 109.428L568.721 52.3327C569.501 51.1414 569.549 49.1605 568.828 47.9319L566.712 44.3227" stroke="#388DCB" stroke-width="1.3128" stroke-miterlimit="10"/>
<path d="M534.972 115.935L573.756 55.9951C574.53 54.7998 576.239 54.2669 577.555 54.8136L582.134 56.7122C583.449 57.2569 585.154 58.6853 585.922 59.8845L621.52 115.478" stroke="#388DCB" stroke-width="1.3128" stroke-miterlimit="10"/>
<path d="M593.76 53.0205L592.112 55.0191C591.207 56.1183 591.109 57.9876 591.897 59.175L624.897 108.893C625.685 110.08 627.493 111.05 628.918 111.05H638.572C639.996 111.05 642.177 110.48 643.419 109.784L669.73 95.0476C670.972 94.352 671.772 92.9608 671.507 91.9557C671.243 90.9505 671.025 90.1275 671.025 90.1275" stroke="#388DCB" stroke-width="1.3128" stroke-miterlimit="10"/>
<path d="M646.519 115.58L671.36 100.814C672.584 100.087 674.752 99.4912 676.174 99.4912H685.301" stroke="#388DCB" stroke-width="1.3128" stroke-miterlimit="10"/>
</svg>
