<svg width="90" height="90" viewBox="0 0 90 90" fill="none" xmlns="http://www.w3.org/2000/svg">
<path d="M0.92 67.59H32.09C32.59 67.59 33 67.18 33 66.68V51.6C33 45.06 28.03 39.66 21.67 38.97C28.46 33.85 24.78 23.02 16.51 23.02C8.24 23.02 4.55 33.86 11.33 38.97C4.97 39.66 0 45.06 0 51.6V66.68C0 67.18 0.41 67.59 0.91 67.59H0.92ZM1.83 51.6C1.83 45.6 6.72 40.71 12.72 40.71H20.29C26.29 40.71 31.18 45.6 31.18 51.6V65.76H1.83V51.6ZM16.51 24.84C20.3 24.84 23.39 27.99 23.39 31.87C23.39 35.75 20.31 38.9 16.51 38.9C12.71 38.9 9.62 35.75 9.62 31.87C9.62 27.99 12.71 24.84 16.51 24.84Z" fill="#469A45"/>
<path d="M57.92 67.59H89.09C89.59 67.59 90 67.18 90 66.68V51.6C90 45.06 85.03 39.66 78.67 38.97C85.46 33.85 81.78 23.02 73.51 23.02C65.24 23.02 61.55 33.86 68.33 38.97C61.97 39.66 57 45.06 57 51.6V66.68C57 67.18 57.41 67.59 57.91 67.59H57.92ZM58.83 51.6C58.83 45.6 63.72 40.71 69.72 40.71H77.29C83.29 40.71 88.18 45.6 88.18 51.6V65.76H58.83V51.6ZM73.51 24.84C77.3 24.84 80.39 27.99 80.39 31.87C80.39 35.75 77.31 38.9 73.51 38.9C69.71 38.9 66.62 35.75 66.62 31.87C66.62 27.99 69.71 24.84 73.51 24.84Z" fill="#469A45"/>
<path d="M33.6499 28.1703H33.4799C33.3699 27.1403 32.4599 26.3403 31.4099 26.3403C30.3599 26.3403 29.3999 27.1803 29.3299 28.2503C28.7899 28.4303 28.4199 28.9403 28.4199 29.5103C28.4199 30.2503 29.0199 30.8503 29.7599 30.8503H33.6499C34.3899 30.8503 34.9899 30.2503 34.9899 29.5103C34.9899 28.7703 34.3899 28.1803 33.6499 28.1803V28.1703ZM32.1699 28.6003L32.3799 28.8103L32.1699 28.6003Z" fill="#469A45"/>
<path d="M41.1499 25.1502H41.0099C40.9199 24.3102 40.1799 23.6602 39.3299 23.6602C38.4799 23.6602 37.6999 24.3402 37.6399 25.2102C37.1999 25.3602 36.9099 25.7702 36.9099 26.2302C36.9099 26.8302 37.3999 27.3202 37.9999 27.3202H41.1599C41.7599 27.3202 42.2499 26.8302 42.2499 26.2302C42.2499 25.6302 41.7599 25.1502 41.1599 25.1502H41.1499ZM39.9499 25.5002L40.1199 25.6702L39.9499 25.5002Z" fill="#469A45"/>
<path d="M48.7499 23.5102H48.6499C48.5799 22.8902 48.0399 22.4102 47.3999 22.4102C46.7599 22.4102 46.1899 22.9102 46.1499 23.5602C45.8299 23.6702 45.6099 23.9702 45.6099 24.3202C45.6099 24.7702 45.9699 25.1302 46.4199 25.1302H48.7599C49.2099 25.1302 49.5699 24.7702 49.5699 24.3202C49.5699 23.8702 49.2099 23.5202 48.7599 23.5202L48.7499 23.5102ZM47.8599 23.7702L47.9899 23.9002L47.8599 23.7702Z" fill="#469A45"/>
<path d="M55.4599 26.1303H55.3899C55.3399 25.6803 54.95 25.3403 54.49 25.3403C54.03 25.3403 53.62 25.7003 53.59 26.1703C53.36 26.2503 53.2 26.4703 53.2 26.7203C53.2 27.0403 53.4599 27.3003 53.7799 27.3003H55.47C55.79 27.3003 56.0499 27.0403 56.0499 26.7203C56.0499 26.4003 55.79 26.1403 55.47 26.1403L55.4599 26.1303ZM54.82 26.3203L54.91 26.4103L54.82 26.3203Z" fill="#469A45"/>
<path d="M60.5498 29.8503H60.4998C60.4698 29.5503 60.2098 29.3203 59.9098 29.3203C59.6098 29.3203 59.3398 29.5603 59.3098 29.8703C59.1598 29.9203 59.0498 30.0703 59.0498 30.2303C59.0498 30.4403 59.2198 30.6103 59.4298 30.6103H60.5398C60.7498 30.6103 60.9198 30.4403 60.9198 30.2303C60.9198 30.0203 60.7498 29.8503 60.5398 29.8503H60.5498ZM60.1298 29.9703L60.1898 30.0303L60.1298 29.9703Z" fill="#469A45"/>
</svg>
