<svg width="80" height="80" viewBox="0 0 80 80" fill="none" xmlns="http://www.w3.org/2000/svg">
<path d="M63.334 53.3333V21.6667C63.334 18 60.334 15 56.6673 15H38.334" stroke="#388DCB" stroke-width="4" stroke-linecap="round" stroke-linejoin="round"/>
<path d="M46.666 6.6665L36.666 14.9998L46.666 23.3332" stroke="#388DCB" stroke-width="4" stroke-linecap="round" stroke-linejoin="round"/>
<path d="M63.334 73.3335C68.8568 73.3335 73.334 68.8563 73.334 63.3335C73.334 57.8106 68.8568 53.3335 63.334 53.3335C57.8111 53.3335 53.334 57.8106 53.334 63.3335C53.334 68.8563 57.8111 73.3335 63.334 73.3335Z" stroke="#388DCB" stroke-width="4" stroke-linecap="round" stroke-linejoin="round"/>
<path d="M16.666 26.6665V58.3332C16.666 61.9998 19.666 64.9998 23.3327 64.9998H41.666" stroke="#388DCB" stroke-width="4" stroke-linecap="round" stroke-linejoin="round"/>
<path d="M33.334 73.3332L43.334 64.9998L33.334 56.6665" stroke="#388DCB" stroke-width="4" stroke-linecap="round" stroke-linejoin="round"/>
<path d="M16.666 26.6665C22.1889 26.6665 26.666 22.1894 26.666 16.6665C26.666 11.1437 22.1889 6.6665 16.666 6.6665C11.1432 6.6665 6.66602 11.1437 6.66602 16.6665C6.66602 22.1894 11.1432 26.6665 16.666 26.6665Z" stroke="#388DCB" stroke-width="4" stroke-linecap="round" stroke-linejoin="round"/>
</svg>
