<svg width="90" height="90" viewBox="0 0 90 90" fill="none" xmlns="http://www.w3.org/2000/svg">
<g clip-path="url(#clip0_153_2448)">
<path d="M45 90C20.15 90 0 69.85 0 45C0 20.15 20.15 0 45 0C69.85 0 90 20.15 90 45C90 69.85 69.85 90 45 90ZM28.89 45.62L39.35 55.43L59.33 29.74L62.97 32.57L39.88 62.26L25.73 48.99L28.89 45.62ZM45 86.15C67.73 86.15 86.15 67.72 86.15 45C86.15 22.28 67.73 3.85 45 3.85C22.27 3.85 3.85 22.27 3.85 45C3.85 67.73 22.28 86.15 45 86.15Z" fill="#388DCB"/>
</g>
<defs>
<clipPath id="clip0_153_2448">
<rect width="90" height="90" fill="white"/>
</clipPath>
</defs>
</svg>
