<svg width="90" height="90" viewBox="0 0 90 90" fill="none" xmlns="http://www.w3.org/2000/svg">
<g clip-path="url(#clip0_153_2128)">
<path d="M41.5599 69.4099C40.8899 69.3199 40.2799 69.7799 40.1899 70.4499C40.0999 71.1099 40.5599 71.7299 41.2299 71.8199C42.5199 71.9999 43.8099 72.0899 45.0799 72.0899C52.2199 72.0899 59.0099 69.2999 64.1599 64.1499C74.7199 53.5899 74.7199 36.4099 64.1599 25.8499C59.0399 20.7299 52.2399 17.9199 45.0099 17.9199C37.7799 17.9199 30.9699 20.7399 25.8599 25.8499C19.7899 31.9199 16.9999 40.2799 18.1899 48.7799C18.2799 49.4399 18.8999 49.9099 19.5599 49.8199C20.2199 49.7299 20.6899 49.1099 20.5999 48.4499C19.5099 40.7099 22.0599 33.0999 27.5799 27.5699C32.2399 22.9099 38.4299 20.3499 45.0099 20.3499C51.5899 20.3499 57.7799 22.9099 62.4399 27.5699C72.0499 37.1799 72.0499 52.8199 62.4399 62.4299C56.9199 67.9499 49.3099 70.4999 41.5699 69.4099H41.5599Z" fill="#388DCB"/>
<path d="M15.3501 66.2298L29.3201 52.2598C29.5501 52.0298 29.6801 51.7198 29.6801 51.3998V45.0598L33.4601 41.2798C34.3901 41.8698 35.4501 42.1698 36.5101 42.1698C37.9601 42.1698 39.4101 41.6198 40.5101 40.5198C42.7201 38.3098 42.7201 34.7298 40.5101 32.5198C38.3001 30.3098 34.7101 30.3098 32.5101 32.5198C30.6001 34.4298 30.3501 37.3798 31.7501 39.5698L27.6101 43.7098C27.3801 43.9398 27.2501 44.2498 27.2501 44.5698V50.9098L13.6401 64.5298C13.1701 65.0098 13.1701 65.7798 13.6401 66.2498C13.8801 66.4898 14.1901 66.6098 14.5001 66.6098C14.8101 66.6098 15.1201 66.4898 15.3601 66.2498L15.3501 66.2298ZM34.2301 34.2298C34.8601 33.5998 35.6901 33.2898 36.5101 33.2898C37.3301 33.2898 38.1601 33.5998 38.7901 34.2298C40.0501 35.4898 40.0501 37.5298 38.7901 38.7898C37.5301 40.0498 35.4901 40.0498 34.2301 38.7898C32.9701 37.5298 32.9701 35.4798 34.2301 34.2298Z" fill="#388DCB"/>
<path d="M32.87 56.53L14.56 74.84C14.09 75.32 14.09 76.08 14.56 76.56C14.8 76.8 15.11 76.92 15.42 76.92C15.73 76.92 16.04 76.8 16.28 76.56L34.52 58.32C33.81 57.9 33.24 57.27 32.88 56.52L32.87 56.53Z" fill="#388DCB"/>
<path d="M89.22 39.4902L82.5 36.9002C81.52 32.3602 79.76 28.0902 77.24 24.2002L80.16 17.6202C80.36 17.1602 80.27 16.6202 79.91 16.2702L73.72 10.0802C73.36 9.72023 72.82 9.63023 72.37 9.83023L65.8 12.7502C61.91 10.2302 57.64 8.47023 53.1 7.49023L50.51 0.770234C50.33 0.300234 49.88 -0.00976562 49.37 -0.00976562H40.62C40.12 -0.00976562 39.66 0.300234 39.48 0.770234L36.89 7.49023C32.34 8.47023 28.08 10.2302 24.19 12.7502L17.61 9.83023C17.15 9.62023 16.61 9.73023 16.26 10.0802L10.07 16.2702C9.70998 16.6302 9.61998 17.1702 9.81998 17.6202L12.74 24.2002C10.22 28.0902 8.45998 32.3602 7.47998 36.9002L0.75998 39.4902C0.28998 39.6702 -0.0200195 40.1202 -0.0200195 40.6302V49.3802C-0.0200195 49.8802 0.28998 50.3302 0.75998 50.5102L7.47998 53.1002C7.85998 54.8602 8.35998 56.6002 8.97998 58.2802C9.20998 58.9102 9.90998 59.2302 10.54 59.0002C11.17 58.7702 11.49 58.0702 11.26 57.4402C10.61 55.6702 10.09 53.8302 9.72998 51.9702C9.64998 51.5602 9.36998 51.2202 8.96998 51.0702L2.40998 48.5402V41.4602L8.96998 38.9402C9.35998 38.7902 9.64998 38.4502 9.72998 38.0402C10.65 33.3402 12.47 28.9602 15.13 25.0002C15.36 24.6502 15.4 24.2102 15.23 23.8302L12.38 17.4102L17.39 12.4002L23.81 15.2502C24.19 15.4202 24.64 15.3802 24.98 15.1502C28.94 12.4902 33.32 10.6802 38.02 9.75023C38.43 9.67023 38.77 9.38023 38.92 8.99023L41.45 2.43023H48.53L51.05 8.99023C51.2 9.38023 51.54 9.66023 51.95 9.75023C56.65 10.6702 61.03 12.4902 64.99 15.1502C65.34 15.3802 65.78 15.4202 66.16 15.2502L72.58 12.4002L77.59 17.4102L74.74 23.8302C74.57 24.2102 74.61 24.6502 74.84 25.0002C77.5 28.9602 79.31 33.3402 80.24 38.0402C80.32 38.4502 80.61 38.7902 81 38.9402L87.56 41.4702V48.5502L81 51.0702C80.61 51.2202 80.33 51.5602 80.24 51.9702C79.32 56.6602 77.5 61.0502 74.84 65.0102C74.61 65.3602 74.57 65.8002 74.74 66.1802L77.59 72.6002L72.58 77.6102L66.16 74.7602C65.78 74.5902 65.34 74.6302 64.99 74.8602C61.03 77.5202 56.65 79.3302 51.95 80.2602C51.54 80.3402 51.2 80.6202 51.05 81.0202L48.52 87.5802H41.44L38.92 81.0202C38.77 80.6302 38.43 80.3402 38.02 80.2602C36.16 79.9002 34.32 79.3802 32.55 78.7302C31.92 78.5002 31.22 78.8202 30.99 79.4502C30.76 80.0802 31.08 80.7802 31.71 81.0102C33.39 81.6302 35.13 82.1302 36.89 82.5102L39.48 89.2302C39.66 89.7002 40.11 90.0102 40.62 90.0102H49.37C49.87 90.0102 50.32 89.7002 50.51 89.2302L53.1 82.5102C57.65 81.5302 61.91 79.7702 65.8 77.2502L72.38 80.1702C72.84 80.3802 73.38 80.2702 73.73 79.9202L79.92 73.7302C80.28 73.3702 80.37 72.8402 80.17 72.3802L77.25 65.8102C79.77 61.9202 81.53 57.6502 82.51 53.1102L89.23 50.5202C89.7 50.3402 90.01 49.8902 90.01 49.3802V40.6302C90.01 40.1302 89.7 39.6802 89.23 39.4902H89.22Z" fill="#388DCB"/>
<path d="M54.28 42.4899C55.79 42.4899 57.21 41.8999 58.28 40.8299C60.49 38.6199 60.49 35.0299 58.28 32.8299C57.21 31.7599 55.79 31.1699 54.28 31.1699C52.77 31.1699 51.35 31.7599 50.28 32.8299C48.37 34.7399 48.12 37.6899 49.52 39.8799L38.25 51.1499C38.99 51.5199 39.6 52.1099 40 52.8399L51.24 41.5999C52.14 42.1799 53.19 42.4899 54.28 42.4899ZM52 34.5499C52.61 33.9399 53.42 33.5999 54.28 33.5999C55.14 33.5999 55.95 33.9399 56.56 34.5499C57.82 35.8099 57.82 37.8499 56.56 39.1099C55.34 40.3299 53.22 40.3299 52 39.1099C50.74 37.8499 50.74 35.8099 52 34.5499Z" fill="#388DCB"/>
<path d="M46.5601 63.8699C46.8801 63.8699 47.1901 63.7399 47.4201 63.5099L51.5601 59.3699C52.4601 59.9499 53.5101 60.2599 54.6101 60.2599C56.1201 60.2599 57.5401 59.6699 58.6101 58.5999C60.8201 56.3899 60.8201 52.7999 58.6101 50.5999C57.5401 49.5299 56.1201 48.9399 54.6101 48.9399C53.1001 48.9399 51.6801 49.5299 50.6101 50.5999C48.7001 52.5099 48.4501 55.4599 49.8501 57.6499L46.0701 61.4299H39.7301C39.4101 61.4299 39.1001 61.5599 38.8701 61.7899L24.9001 75.7599C24.4301 76.2299 24.4301 77.0099 24.9001 77.4799C25.1401 77.7199 25.4501 77.8399 25.7601 77.8399C26.0701 77.8399 26.3801 77.7199 26.6201 77.4799L40.2401 63.8699H46.5801H46.5601ZM52.3201 52.3299C52.9301 51.7199 53.7401 51.3899 54.6001 51.3899C55.4601 51.3899 56.2701 51.7299 56.8801 52.3299C58.1401 53.5899 58.1401 55.6299 56.8801 56.8899C55.6601 58.1099 53.5401 58.1099 52.3201 56.8899C51.0601 55.6299 51.0601 53.5899 52.3201 52.3299Z" fill="#388DCB"/>
<path d="M36.63 60.2102C33.53 60.2102 31.02 57.6902 31.02 54.6002C31.02 51.5102 33.54 48.9902 36.63 48.9902C39.72 48.9902 42.24 51.5102 42.24 54.6002C42.24 57.6902 39.72 60.2102 36.63 60.2102ZM36.63 51.3702C34.85 51.3702 33.4 52.8202 33.4 54.6002C33.4 56.3802 34.85 57.8302 36.63 57.8302C38.41 57.8302 39.86 56.3802 39.86 54.6002C39.86 52.8202 38.41 51.3702 36.63 51.3702Z" fill="#388DCB"/>
</g>
<defs>
<clipPath id="clip0_153_2128">
<rect width="90" height="90" fill="white"/>
</clipPath>
</defs>
</svg>
