<svg width="90" height="90" viewBox="0 0 90 90" fill="none" xmlns="http://www.w3.org/2000/svg">
<path d="M23.4101 52.5598C16.0201 46.1698 12.9601 35.1998 15.9701 25.8798C16.0101 25.7498 16.0401 25.6098 16.0401 25.4698C16.0401 25.0998 15.9201 24.7498 15.6601 24.4898C15.4001 24.2298 15.0701 24.0698 14.7001 24.0598C14.1201 24.0498 13.5301 24.4398 13.3501 25.0298C10.0101 35.3698 13.4101 47.5398 21.5901 54.6198L21.6701 54.6798C21.9201 54.8798 22.2201 54.9798 22.5301 54.9798C22.5801 54.9798 22.6301 54.9798 22.6801 54.9798C23.0401 54.9398 23.3701 54.7598 23.6001 54.4798C24.0701 53.8898 23.9801 53.0198 23.4001 52.5598H23.4101Z" fill="#459A45"/>
<path d="M27.15 55.1299C24.86 55.1299 22.99 56.9999 22.99 59.2899C22.99 61.5799 24.86 63.4499 27.15 63.4499C29.44 63.4499 31.31 61.5799 31.31 59.2899C31.31 56.9999 29.44 55.1299 27.15 55.1299ZM28.56 59.2899C28.56 60.0799 27.94 60.6999 27.15 60.6999C26.36 60.6999 25.74 60.0799 25.74 59.2899C25.74 58.4999 26.36 57.8799 27.15 57.8799C27.94 57.8799 28.56 58.4999 28.56 59.2899Z" fill="#459A45"/>
<path d="M24.5399 32.2702C26.8299 32.2702 28.6999 30.4002 28.6999 28.1102C28.6999 25.8202 26.8299 23.9502 24.5399 23.9502C22.2499 23.9502 20.3799 25.8202 20.3799 28.1102C20.3799 30.4002 22.2499 32.2702 24.5399 32.2702ZM23.1299 28.1102C23.1299 27.3202 23.7499 26.7002 24.5399 26.7002C25.3299 26.7002 25.9499 27.3202 25.9499 28.1102C25.9499 28.9002 25.3299 29.5202 24.5399 29.5202C23.7499 29.5202 23.1299 28.9002 23.1299 28.1102Z" fill="#459A45"/>
<path d="M76.1199 57.12C76.5299 56.4 76.9399 56.04 78.0199 56.04C78.0799 56.04 78.1299 56.04 78.1599 56.04C81.4299 55.98 84.0799 53.27 84.0799 50.01C84.0799 48.4 83.4499 46.89 82.3099 45.75C82.2199 45.66 82.1099 45.57 82.0199 45.52C81.6999 45.32 74.2899 40.53 74.2899 34.29C74.2699 33.64 74.5099 33.11 74.9599 32.78C75.3499 32.62 75.6499 32.28 75.7599 31.88C75.8399 31.62 75.8399 31.35 75.7799 31.17C73.8599 13.4 58.8399 0 40.8599 0C31.7499 0 23.1499 3.48 16.5999 9.8L11.4799 9.49C11.1699 9.47 10.8799 9.55 10.6399 9.72C10.3299 9.92 10.1199 10.23 10.0499 10.59C9.97991 10.95 10.0499 11.32 10.2499 11.62L12.3299 14.76C8.12991 20.68 5.90991 27.65 5.90991 34.93C5.90991 42.21 8.28991 49.7 12.7999 55.76L12.9099 55.92C12.9699 55.99 13.0299 56.07 13.0799 56.11C16.6599 59.72 18.6399 64.5 18.6399 69.59C18.6399 72.13 18.1499 74.6 17.2099 76.87C17.1799 76.92 17.1599 76.96 17.1399 77C16.9899 77.34 16.9799 77.71 17.1099 78.05C17.2299 78.37 17.4599 78.62 17.7499 78.78L17.8299 78.86H17.9599L51.3899 88.2C51.7199 88.37 52.1099 88.4 52.4599 88.29C52.8099 88.17 53.0899 87.93 53.2499 87.6C53.3999 87.31 53.4299 86.97 53.3499 86.63L53.3299 86.56C52.7499 84.65 53.3299 82.74 54.9599 81.17C56.4499 79.74 58.6699 78.84 61.0899 78.67L61.4399 81.57C61.4899 82 61.7399 82.38 62.1199 82.6L74.6499 89.82C74.8599 89.94 75.0999 90 75.3399 90C75.3899 90 75.4499 90 75.4999 90C75.8599 89.96 76.1899 89.77 76.4199 89.49C76.6499 89.2 76.7499 88.84 76.7099 88.48L75.9999 82.56L81.4899 80.22C81.7599 80.1 81.9899 79.9 82.1399 79.64C82.3199 79.32 82.3699 78.95 82.2799 78.6C82.1899 78.25 81.9599 77.95 81.6399 77.77L75.1999 74.06C75.6099 73.16 75.8299 72.17 75.8299 71.18C75.8299 69.89 75.7199 68.41 75.5999 66.85C75.4499 64.81 75.2899 62.71 75.3699 60.87C75.4399 59.24 75.7199 57.91 76.1599 57.15L76.1199 57.12ZM73.1199 81.85L73.6299 86.06L64.0799 80.55L63.6899 77.38C63.7099 77.19 63.6899 77 63.6399 76.91L63.4499 75.32L68.2999 73.25L77.8499 78.76L73.9499 80.43C73.3899 80.67 73.0499 81.25 73.1299 81.86L73.1199 81.85ZM21.3999 69.58C21.3999 63.76 19.1399 58.29 15.0799 54.21C10.8799 48.61 8.65991 41.95 8.65991 34.93C8.65991 28.59 10.4899 22.49 13.9599 17.23L17.1399 22.05C17.2599 22.23 17.4099 22.37 17.5999 22.48C17.9199 22.66 18.2899 22.71 18.6399 22.62C18.9899 22.52 19.2899 22.3 19.4699 21.98L21.5799 18.32L55.2399 37.74C56.6599 38.56 57.6699 39.87 58.0899 41.43C58.5099 42.99 58.2899 44.63 57.4699 46.05C55.7599 49 52.1099 49.98 49.1499 48.28L45.1399 45.97C44.1099 45.38 42.9899 45 41.8099 44.85C38.2799 44.42 34.8499 46.12 33.0699 49.2C31.8899 51.24 31.5799 53.62 32.1899 55.9C32.7999 58.18 34.2599 60.08 36.3099 61.26L60.6799 75.32L60.7599 75.95C57.7199 76.19 55.0099 77.33 53.0599 79.2C51.3599 80.83 50.3999 82.95 50.3799 85.09L20.2399 76.67C21.0099 74.4 21.4099 72.03 21.4099 69.61L21.3999 69.58ZM20.0099 15.59C19.9299 15.69 19.8599 15.81 19.8399 15.88L18.2199 18.68L14.0599 12.39L21.5899 12.84L20.0099 15.59ZM35.4599 50.57C36.5999 48.6 38.6099 47.5 40.6999 47.5C41.7399 47.5 42.7999 47.77 43.7799 48.34L47.7899 50.66C52.0099 53.09 57.4199 51.65 59.8599 47.43C61.0399 45.39 61.3499 43.01 60.7399 40.73C60.1299 38.45 58.6699 36.55 56.6199 35.37L22.9599 15.95L25.0699 12.3C25.1799 12.12 25.2399 11.91 25.2499 11.69C25.2699 11.32 25.1499 10.97 24.9099 10.69C24.6699 10.42 24.3299 10.25 23.9699 10.23L20.4699 10.02C26.0999 5.41 33.1399 2.84 40.4299 2.75H40.8599C57.1599 2.75 70.9299 14.82 72.9799 30.86C72.0699 31.71 71.5499 32.94 71.5499 34.32C71.5499 42.06 79.3299 47.09 80.4599 47.78C81.0199 48.39 81.3299 49.18 81.3299 50C81.3299 51.81 79.8499 53.29 78.0499 53.29C77.9899 53.29 77.9299 53.29 77.9099 53.29C76.1099 53.33 74.5799 54.23 73.7199 55.76C73.0299 56.98 72.6799 58.51 72.5799 60.72C72.4899 62.85 72.6599 65.2 72.8199 67.28C72.9299 68.71 73.0299 70.06 73.0299 71.15C73.0299 71.67 72.9399 72.17 72.7599 72.65L69.0699 70.52C68.8599 70.4 68.6199 70.34 68.3699 70.34C68.1899 70.34 68.0099 70.38 67.8399 70.45L62.0399 72.93L37.6699 58.87C36.2499 58.05 35.2399 56.74 34.8199 55.18C34.3999 53.62 34.6199 51.98 35.4399 50.56L35.4599 50.57Z" fill="#459A45"/>
<path d="M63.9501 43.3102L63.9101 43.4102C63.7701 43.7402 63.7701 44.1102 63.9101 44.4502C64.0501 44.7902 64.3101 45.0602 64.6401 45.2102C64.8201 45.2902 65.0001 45.3202 65.1801 45.3202C65.7101 45.3202 66.2201 45.0102 66.4401 44.4902C70.9101 34.2402 68.5101 21.5802 60.6201 13.7002C55.7001 8.54016 48.7101 5.45016 41.3301 5.18016L40.6201 5.16016C39.8501 5.16016 39.0801 5.17016 38.3201 5.22016C35.5401 5.41016 32.8501 6.01016 30.3201 7.00016C29.1401 7.45016 27.9901 7.98016 26.8801 8.58016C26.5601 8.76016 26.3301 9.05016 26.2201 9.40016C26.1201 9.75016 26.1601 10.1202 26.3301 10.4502C26.7001 11.1202 27.5301 11.3602 28.1901 10.9902C29.1901 10.4502 30.2301 9.97016 31.2901 9.57016L31.5801 9.46016C40.7801 5.98016 51.8601 8.49016 58.6601 15.6302C65.7601 22.7102 67.9301 34.0902 63.9501 43.3202V43.3102Z" fill="#459A45"/>
<path d="M60.7404 52.78C61.0604 52.95 61.4404 52.99 61.7704 52.89L62.9704 52.57L63.2904 53.78C63.4604 54.39 64.0104 54.79 64.6104 54.79C64.7304 54.79 64.8504 54.77 64.9704 54.74C65.3204 54.64 65.6204 54.41 65.8004 54.09C65.9804 53.77 66.0304 53.4 65.9304 53.05L65.6104 51.86L66.8004 51.54C67.4004 51.39 67.8204 50.85 67.8404 50.24C67.8604 49.48 67.2604 48.85 66.5004 48.84C66.3704 48.84 66.2304 48.85 66.1004 48.89L64.9004 49.21L64.5804 48.02C64.4304 47.43 63.9204 47.02 63.3204 46.99L62.7204 46.96L62.7504 47.09C62.1004 47.34 61.7304 48.06 61.9304 48.74L62.2504 49.93L60.9804 50.27C60.2504 50.49 59.8404 51.26 60.0604 51.98C60.1704 52.33 60.4004 52.62 60.7304 52.79L60.7404 52.78Z" fill="#459A45"/>
<path d="M55.4295 15.3896C53.1395 15.3896 51.2695 17.2596 51.2695 19.5496C51.2695 21.8396 53.1395 23.7096 55.4295 23.7096C57.7195 23.7096 59.5895 21.8396 59.5895 19.5496C59.5895 17.2596 57.7195 15.3896 55.4295 15.3896ZM56.8395 19.5496C56.8395 20.3396 56.2195 20.9596 55.4295 20.9596C54.6395 20.9596 54.0195 20.3396 54.0195 19.5496C54.0195 18.7596 54.6395 18.1396 55.4295 18.1396C56.2195 18.1396 56.8395 18.7596 56.8395 19.5496Z" fill="#459A45"/>
<path d="M42.9001 15.9798C42.7701 15.9798 42.6301 15.9898 42.5001 16.0298L41.3 16.3498L40.98 15.1598C40.83 14.5698 40.3301 14.1598 39.7201 14.1198L39.2501 14.0898V14.1798C38.9101 14.2798 38.6201 14.5098 38.4501 14.8298C38.2701 15.1498 38.2301 15.5198 38.3301 15.8698L38.6501 17.0598L37.4501 17.3798C36.7301 17.5798 36.29 18.3298 36.48 19.0498C36.67 19.7798 37.42 20.2298 38.16 20.0298L39.3601 19.7098L39.69 20.9298C39.86 21.5398 40.41 21.9398 41.01 21.9398C41.13 21.9398 41.2601 21.9198 41.3801 21.8898C41.7301 21.7898 42.03 21.5598 42.21 21.2398C42.39 20.9198 42.4401 20.5498 42.3401 20.1998L42.0201 19.0098L43.21 18.6898C43.81 18.5398 44.2301 18.0098 44.2501 17.3898C44.2501 17.0198 44.12 16.6698 43.87 16.4098C43.62 16.1398 43.28 15.9898 42.91 15.9798H42.9001Z" fill="#459A45"/>
<path d="M31.1701 43.45L32.3601 43.13C32.9601 42.98 33.3801 42.44 33.4001 41.83C33.4001 41.46 33.2701 41.12 33.0201 40.85C32.7701 40.59 32.4201 40.43 32.0701 40.43C31.9401 40.43 31.8001 40.43 31.6601 40.48L30.4601 40.8L30.1401 39.61C29.9901 39.02 29.4801 38.61 28.8801 38.57L28.2301 38.54L28.2801 38.68C28.0001 38.8 27.7601 39.01 27.6101 39.28C27.4301 39.6 27.3901 39.97 27.4901 40.32L27.8101 41.51L26.6001 41.83C26.2501 41.93 25.9501 42.15 25.7701 42.47C25.5901 42.79 25.5401 43.16 25.6401 43.51C25.7401 43.86 25.9601 44.16 26.2801 44.34C26.6001 44.52 26.9701 44.57 27.3201 44.47L28.5201 44.15L28.8601 45.4C29.0401 46 29.5901 46.39 30.1801 46.39C30.3101 46.39 30.4401 46.37 30.5701 46.33C31.3001 46.12 31.7101 45.35 31.5001 44.63L31.1801 43.44L31.1701 43.45Z" fill="#459A45"/>
</svg>
