<svg width="80" height="80" viewBox="0 0 80 80" fill="none" xmlns="http://www.w3.org/2000/svg">
<path d="M44 48C44 51.5334 42.4667 54.7334 40 56.9334C37.8667 58.8667 35.0666 60 31.9999 60C25.3666 60 20 54.6334 20 48C20 42.4667 23.7667 37.8 28.8334 36.4333C30.2001 39.9 33.1666 42.6 36.8333 43.6C37.8333 43.8667 38.9 44.0333 40 44.0333C41.1 44.0333 42.1667 43.9 43.1667 43.6C43.7 44.9334 44 46.4334 44 48Z" stroke="#F79839" stroke-width="4" stroke-linecap="round" stroke-linejoin="round"/>
<path d="M51.9998 32C51.9998 33.5667 51.6998 35.0667 51.1665 36.4333C49.7998 39.9 46.8333 42.6 43.1666 43.6C42.1666 43.8667 41.0999 44.0333 39.9999 44.0333C38.8999 44.0333 37.8332 43.9 36.8332 43.6C33.1665 42.6 30.2 39.9333 28.8333 36.4333C28.3 35.0667 28 33.5667 28 32C28 25.3667 33.3666 20 39.9999 20C46.6333 20 51.9998 25.3667 51.9998 32Z" stroke="#F79839" stroke-width="4" stroke-linecap="round" stroke-linejoin="round"/>
<path d="M60 48C60 54.6334 54.6334 60 48.0001 60C44.9334 60 42.1333 58.8334 40 56.9334C42.4667 54.7667 44 51.5667 44 48C44 46.4334 43.7 44.9334 43.1667 43.5667C46.8334 42.5667 49.7999 39.9 51.1666 36.4C56.2333 37.8 60 42.4667 60 48Z" stroke="#F79839" stroke-width="4" stroke-linecap="round" stroke-linejoin="round"/>
<path d="M30.0003 73.3333H50.0003C66.667 73.3333 73.3337 66.6666 73.3337 50V30C73.3337 13.3333 66.667 6.66663 50.0003 6.66663H30.0003C13.3337 6.66663 6.66699 13.3333 6.66699 30V50C6.66699 66.6666 13.3337 73.3333 30.0003 73.3333Z" stroke="#F79839" stroke-width="4" stroke-linecap="round" stroke-linejoin="round"/>
</svg>
