<svg width="80" height="80" viewBox="0 0 80 80" fill="none" xmlns="http://www.w3.org/2000/svg">
<path d="M71.5667 63.3333V16.6666C71.5667 9.99996 68.2334 6.66663 61.5667 6.66663H48.2334C41.5667 6.66663 38.2334 9.99996 38.2334 16.6666V63.3333C38.2334 70 41.5667 73.3333 48.2334 73.3333H61.5667C68.2334 73.3333 71.5667 70 71.5667 63.3333Z" stroke="#F79839" stroke-width="4" stroke-linecap="round"/>
<path d="M38.2334 20H54.9001" stroke="#F79839" stroke-width="4" stroke-linecap="round"/>
<path d="M38.2334 60H51.5667" stroke="#F79839" stroke-width="4" stroke-linecap="round"/>
<path d="M38.2334 46.5L54.9001 46.6667" stroke="#F79839" stroke-width="4" stroke-linecap="round"/>
<path d="M38.2334 33.3334H48.2334" stroke="#F79839" stroke-width="4" stroke-linecap="round"/>
<path d="M18.2998 6.66663C12.8664 6.66663 8.43311 11.1 8.43311 16.5V59.7C8.43311 61.2 9.06644 63.4666 9.83311 64.7666L12.5664 69.3C15.6998 74.5333 20.8664 74.5333 23.9998 69.3L26.7331 64.7666C27.4998 63.4666 28.1331 61.2 28.1331 59.7V16.5C28.1331 11.1 23.6998 6.66663 18.2998 6.66663Z" stroke="#F79839" stroke-width="4" stroke-linecap="round"/>
<path d="M28.1331 23.3334H8.43311" stroke="#F79839" stroke-width="4" stroke-linecap="round"/>
</svg>
