<svg width="80" height="80" viewBox="0 0 80 80" fill="none" xmlns="http://www.w3.org/2000/svg">
<path d="M43.3332 73.3333H16.6665C9.99984 73.3333 6.6665 70 6.6665 63.3333V36.6666C6.6665 30 9.99984 26.6666 16.6665 26.6666H33.3332V63.3333C33.3332 70 36.6665 73.3333 43.3332 73.3333Z" stroke="#F79839" stroke-width="4" stroke-miterlimit="10" stroke-linecap="round" stroke-linejoin="round"/>
<path d="M33.6998 13.3334C33.4331 14.3334 33.3332 15.4334 33.3332 16.6667V26.6667H16.6665V20C16.6665 16.3334 19.6665 13.3334 23.3332 13.3334H33.6998Z" stroke="#F79839" stroke-width="4" stroke-miterlimit="10" stroke-linecap="round" stroke-linejoin="round"/>
<path d="M46.667 26.6666V43.3333" stroke="#F79839" stroke-width="4" stroke-miterlimit="10" stroke-linecap="round" stroke-linejoin="round"/>
<path d="M60 26.6666V43.3333" stroke="#F79839" stroke-width="4" stroke-miterlimit="10" stroke-linecap="round" stroke-linejoin="round"/>
<path d="M56.667 56.6666H50.0003C48.167 56.6666 46.667 58.1666 46.667 60V73.3333H60.0003V60C60.0003 58.1666 58.5003 56.6666 56.667 56.6666Z" stroke="#F79839" stroke-width="4" stroke-miterlimit="10" stroke-linecap="round" stroke-linejoin="round"/>
<path d="M20 43.3334V56.6667" stroke="#F79839" stroke-width="4" stroke-miterlimit="10" stroke-linecap="round" stroke-linejoin="round"/>
<path d="M33.333 63.3333V16.6666C33.333 9.99996 36.6663 6.66663 43.333 6.66663H63.333C69.9997 6.66663 73.333 9.99996 73.333 16.6666V63.3333C73.333 70 69.9997 73.3333 63.333 73.3333H43.333C36.6663 73.3333 33.333 70 33.333 63.3333Z" stroke="#F79839" stroke-width="4" stroke-miterlimit="10" stroke-linecap="round" stroke-linejoin="round"/>
</svg>
