<svg width="120" height="120" viewBox="0 0 120 120" fill="none" xmlns="http://www.w3.org/2000/svg">
<path d="M60.0001 120C80.0801 120 96.4268 103.84 96.4268 83.9733C96.4268 71.4 89.6135 59.56 78.6668 53.0667L77.8535 52.5867L103.16 2.54667C103.44 2 103.413 1.34667 103.093 0.84C102.787 0.32 102.213 0 101.6 0H70.4001C69.7601 0 69.1735 0.346667 68.8668 0.906667L60.0001 17.0667L51.1335 0.92C50.8268 0.36 50.2402 0 49.6002 0H18.3868C17.7868 0 17.2135 0.32 16.8935 0.826667C16.5735 1.34667 16.5468 2 16.8268 2.54667L41.3735 51.0533L39.7202 54.0667L39.5201 54.2C29.5335 60.9333 23.5601 72.0533 23.5601 83.96C23.5601 103.827 39.9068 119.987 59.9868 119.987L60.0001 120ZM61.4402 21.7467V20.9867H61.8668L71.4402 3.50667H98.7468L74.7202 51.0133L73.8535 50.6533C69.4401 48.8533 64.7868 47.9467 60.0135 47.9467C55.9068 47.9467 51.8668 48.6267 48.0002 49.9733L45.5068 50.84L61.4535 21.7333L61.4402 21.7467ZM21.2401 3.50667H48.5468L57.9735 20.7333L43.4001 47.32L21.2401 3.50667ZM59.9868 51.4667C78.1335 51.4667 92.8935 66.0533 92.8935 83.9733C92.8935 101.893 78.1335 116.48 59.9868 116.48C41.8402 116.48 27.0801 101.893 27.0801 83.9733C27.0801 66.0533 41.8402 51.4667 59.9868 51.4667Z" fill="#388DCB"/>
<path d="M73.0135 100.733L70.9868 89.2667L79.4001 81.1201C79.8801 80.6534 80.0535 79.9467 79.8535 79.3067C79.6401 78.6667 79.0935 78.2134 78.4268 78.1067L66.7601 76.4667L61.5201 66.0267C61.2268 65.4534 60.6135 65.0801 59.9601 65.0801C59.3068 65.0801 58.6935 65.4534 58.3868 66.0534L53.2001 76.5067L41.5335 78.2267C40.8668 78.3201 40.3201 78.7867 40.1068 79.4401C39.9068 80.0667 40.0801 80.7601 40.5735 81.2267L49.0268 89.3201L47.0668 100.8C46.9468 101.453 47.2268 102.12 47.7601 102.507C48.2935 102.893 49.0135 102.947 49.6268 102.64L60.0535 97.1867L70.5068 102.587C71.0935 102.893 71.8135 102.84 72.3468 102.44C72.8801 102.04 73.1468 101.373 73.0268 100.72L73.0135 100.733ZM67.4001 88.9734L68.9601 97.8534L60.8401 93.6667C60.3335 93.4001 59.7335 93.4001 59.2401 93.6667L51.1201 97.8934L52.6401 89.0134C52.7335 88.4401 52.5468 87.8534 52.1201 87.4534L45.5868 81.1867L54.6001 79.8534C55.1735 79.7601 55.6668 79.4134 55.9201 78.8934L59.9601 70.7601L64.0401 78.8801C64.2935 79.3867 64.7868 79.7334 65.3601 79.8267L74.4001 81.1067L67.9068 87.4134C67.4935 87.8134 67.2935 88.4001 67.4001 88.9867V88.9734Z" fill="#388DCB"/>
</svg>
