<svg width="80" height="80" viewBox="0 0 80 80" fill="none" xmlns="http://www.w3.org/2000/svg">
<path d="M31.666 73.3332H48.3327M33.3327 33.3332H46.666M39.9994 33.3332L39.9994 53.3332M49.9994 51.0877C57.8825 47.3429 63.3327 39.3078 63.3327 29.9998C63.3327 17.1132 52.886 6.6665 39.9994 6.6665C27.1127 6.6665 16.666 17.1132 16.666 29.9998C16.666 39.3078 22.1162 47.3429 29.9993 51.0877V53.3332C29.9993 56.4394 29.9993 57.9926 30.5068 59.2177C31.1834 60.8512 32.4813 62.1491 34.1148 62.8257C35.3399 63.3332 36.8931 63.3332 39.9994 63.3332C43.1056 63.3332 44.6588 63.3332 45.8839 62.8257C47.5174 62.1491 48.8153 60.8512 49.4919 59.2177C49.9994 57.9926 49.9994 56.4394 49.9994 53.3332V51.0877Z" stroke="#F79839" stroke-width="4" stroke-linecap="round" stroke-linejoin="round"/>
</svg>
