<svg width="80" height="80" viewBox="0 0 80 80" fill="none" xmlns="http://www.w3.org/2000/svg">
<path d="M31.6667 73.3332H48.3334M33.3334 33.3332H46.6667M40.0001 33.3332L40.0001 53.3332M50.0001 51.0877C57.8832 47.3429 63.3334 39.3078 63.3334 29.9998C63.3334 17.1132 52.8867 6.6665 40.0001 6.6665C27.1134 6.6665 16.6667 17.1132 16.6667 29.9998C16.6667 39.3078 22.1169 47.3429 30.0001 51.0877V53.3332C30.0001 56.4394 30.0001 57.9926 30.5076 59.2177C31.1842 60.8512 32.482 62.1491 34.1155 62.8257C35.3407 63.3332 36.8938 63.3332 40.0001 63.3332C43.1064 63.3332 44.6595 63.3332 45.8846 62.8257C47.5182 62.1491 48.816 60.8512 49.4926 59.2177C50.0001 57.9926 50.0001 56.4394 50.0001 53.3332V51.0877Z" stroke="#F79839" stroke-width="4" stroke-linecap="round" stroke-linejoin="round"/>
</svg>
