<svg width="375" height="377" viewBox="0 0 375 377" fill="none" xmlns="http://www.w3.org/2000/svg">
<path d="M62.511 312.872C-6.27842 244.077 -6.27842 132.55 62.511 63.7602C131.303 -5.03203 242.834 -5.03203 311.626 63.7602C380.415 132.55 380.415 244.077 311.626 312.875C242.837 381.665 131.303 381.665 62.511 312.872Z" stroke="#388DCB" stroke-width="2.98027"/>
<path d="M58.3858 316.998C-12.6872 245.93 -12.6872 130.703 58.3858 59.6329C129.453 -11.4401 244.683 -11.4401 315.75 59.6329C386.821 130.703 386.821 245.93 315.75 317C244.683 388.073 129.453 388.073 58.3858 317V316.998Z" stroke="#388DCB" stroke-width="1.49013"/>
<path d="M304.941 326.527L283.662 311.051L282.382 312.046L291.986 336.626L293.509 335.438L287.33 320.345C286.391 318.007 285.578 315.834 284.679 313.862L284.74 313.818C286.432 315.167 288.218 316.514 290.319 318.02L303.387 327.744L304.941 326.53V326.527Z" fill="#388DCB"/>
<path d="M291.179 337.196L271.481 319.737L270.109 320.605L277.308 346.007L278.942 344.97L274.24 329.342C273.529 326.923 272.927 324.689 272.224 322.635L272.288 322.593C273.842 324.1 275.489 325.615 277.436 327.312L289.512 338.252L291.176 337.193L291.179 337.196Z" fill="#388DCB"/>
<path d="M276.402 346.51L258.496 327.232L257.047 327.968L261.758 353.933L263.483 353.06L260.312 337.061C259.836 334.589 259.458 332.3 258.952 330.193L259.021 330.157C260.422 331.808 261.918 333.472 263.69 335.349L274.649 347.406L276.402 346.507V346.51Z" fill="#388DCB"/>
<path d="M260.79 354.364L244.819 333.444L243.31 334.039L245.491 360.339L247.293 359.634L245.682 343.408C245.449 340.889 245.295 338.581 244.993 336.433L245.065 336.405C246.301 338.186 247.625 339.985 249.212 342.026L258.96 355.078L260.793 354.362L260.79 354.364Z" fill="#388DCB"/>
<path d="M244.556 360.642L230.664 338.29L229.102 338.732L228.748 365.121L230.609 364.593L230.564 348.284C230.57 345.763 230.639 343.443 230.551 341.281L230.625 341.259C231.681 343.15 232.831 345.072 234.211 347.25L242.662 361.181L244.559 360.642H244.556Z" fill="#388DCB"/>
<path d="M227.75 365.351L216.075 341.766L214.477 342.053L211.585 368.292L213.484 367.947L215.01 351.707C215.259 349.2 215.549 346.9 215.666 344.732L215.746 344.718C216.617 346.7 217.573 348.721 218.737 351.027L225.806 365.702L227.747 365.351H227.75Z" fill="#388DCB"/>
<path d="M210.584 368.417L201.212 343.825L199.6 343.961L194.218 369.799L196.147 369.639L199.211 353.617C199.7 351.149 200.209 348.879 200.532 346.736L200.61 346.731C201.29 348.79 202.047 350.894 202.987 353.305L208.619 368.591L210.584 368.419V368.417Z" fill="#388DCB"/>
<path d="M193.228 369.833L186.242 344.459L184.619 344.439L176.804 369.65L178.736 369.672L183.317 354.013C184.039 351.597 184.758 349.391 185.286 347.287H185.363C185.841 349.402 186.397 351.569 187.107 354.058L191.26 369.808L193.228 369.83V369.833Z" fill="#388DCB"/>
<path d="M175.775 369.589L171.246 343.657L169.632 343.482L159.441 367.833L161.36 368.035L167.415 352.89C168.366 350.554 169.295 348.434 170.019 346.388L170.096 346.394C170.37 348.542 170.716 350.751 171.186 353.3L173.812 369.37L175.772 369.586L175.775 369.589Z" fill="#388DCB"/>
<path d="M158.463 367.676L156.436 341.432L154.846 341.103L142.378 364.37L144.269 364.759L151.744 350.262C152.911 348.022 154.039 345.996 154.954 344.036L155.032 344.052C155.101 346.217 155.233 348.448 155.455 351.022L156.533 367.278L158.46 367.676H158.463Z" fill="#388DCB"/>
<path d="M141.367 364.095L141.873 337.79L140.322 337.314L125.675 359.268L127.522 359.838L136.352 346.125C137.729 344.016 139.045 342.106 140.145 340.237L140.217 340.259C140.079 342.423 139.996 344.652 139.968 347.239L139.481 363.518L141.364 364.093L141.367 364.095Z" fill="#388DCB"/>
<path d="M124.71 358.921L127.746 332.778L126.247 332.156L109.552 352.592L111.335 353.339L121.451 340.544C123.024 338.57 124.519 336.798 125.794 335.045L125.866 335.078C125.517 337.213 125.219 339.427 124.942 342.001L122.891 358.155L124.71 358.918V358.921Z" fill="#388DCB"/>
<path d="M108.625 352.144L114.174 326.422L112.742 325.656L94.1523 344.384L95.8553 345.299L107.157 333.541C108.913 331.73 110.574 330.113 112.015 328.493L112.078 328.523C111.525 330.622 111.014 332.8 110.489 335.33L106.886 351.212L108.625 352.144Z" fill="#388DCB"/>
<path d="M93.2733 343.861L101.28 318.789L99.9278 317.885L79.6133 334.738L81.2195 335.811L93.6078 325.194C95.532 323.563 97.3401 322.112 98.927 320.636L98.9906 320.68C98.2386 322.715 97.5198 324.832 96.7512 327.296L91.6339 342.764L93.2733 343.861Z" fill="#388DCB"/>
<path d="M78.7808 334.102L89.1564 309.928L87.9013 308.902L66.0635 323.718L67.5591 324.94L80.904 315.565C82.9802 314.133 84.9182 312.859 86.6406 311.545L86.7014 311.595C85.7559 313.539 84.8381 315.579 83.84 317.965L77.2547 332.858L78.7808 334.105V334.102Z" fill="#388DCB"/>
<path d="M65.6627 323.253L78.0399 300.033L76.8733 298.905L53.8633 311.835L55.2539 313.176L69.3424 304.96C71.5292 303.705 73.5695 302.599 75.397 301.429L75.4522 301.49C74.3436 303.348 73.2571 305.303 72.0628 307.592L64.25 321.885L65.6655 323.251L65.6627 323.253Z" fill="#388DCB"/>
<path d="M52.9787 310.768L67.7363 288.983L66.6968 287.736L42.4482 298.167L43.6868 299.652L58.5633 292.961C60.869 291.944 63.0171 291.062 64.9578 290.092L65.0048 290.153C63.711 291.892 62.4227 293.719 60.9961 295.87L51.718 309.259L52.9787 310.768Z" fill="#388DCB"/>
<path d="M41.8484 297.366L58.6242 277.088L57.7063 275.741L32.5703 283.803L33.6651 285.401L49.1138 280.17C51.508 279.377 53.7252 278.699 55.7489 277.923L55.7932 277.983C54.3362 279.592 52.8848 281.293 51.2537 283.291L40.7315 295.738L41.8456 297.363L41.8484 297.366Z" fill="#388DCB"/>
<path d="M32.0312 282.915L50.6869 264.348L49.9073 262.933L24.1133 268.525L25.045 270.22L40.9277 266.504C43.3855 265.946 45.658 265.493 47.7508 264.912L47.7895 264.976C46.1805 266.433 44.5688 267.986 42.7524 269.822L31.0829 281.187L32.0339 282.915H32.0312Z" fill="#388DCB"/>
<path d="M23.6515 267.577L44.0157 250.909L43.3743 249.416L17.1602 252.496L17.9232 254.271L34.0907 252.106C36.5927 251.785 38.9012 251.55 41.0327 251.183L41.0631 251.252C39.3242 252.543 37.5714 253.931 35.5892 255.584L22.8719 265.772L23.6515 267.577Z" fill="#388DCB"/>
<path d="M16.8144 251.553L38.6936 236.917L38.196 235.369L11.8076 235.917L12.3992 237.752L28.6995 237.158C31.2181 237.083 33.5403 237.067 35.6995 236.904L35.7216 236.975C33.8693 238.101 31.9866 239.306 29.8496 240.768L16.2117 249.679L16.8116 251.553H16.8144Z" fill="#388DCB"/>
<path d="M11.5567 234.93L34.7298 222.461L34.3842 220.874L8.07324 218.881L8.48517 220.766L24.7605 221.742C27.2791 221.903 29.5903 222.115 31.755 222.16L31.7689 222.237C29.8143 223.174 27.8265 224.197 25.5623 225.441L11.1337 233.008L11.5539 234.932L11.5567 234.93Z" fill="#388DCB"/>
<path d="M7.89634 217.844L32.167 207.659L31.9762 206.047L5.96387 201.535L6.19057 203.454L22.3028 205.981C24.7965 206.387 27.0746 206.818 29.2282 207.07L29.2393 207.145C27.2045 207.894 25.1255 208.72 22.7479 209.741L7.66135 215.886L7.89358 217.841L7.89634 217.844Z" fill="#388DCB"/>
<path d="M5.9022 200.537L31.0327 192.713L30.9967 191.091L5.54004 184.118L5.58704 186.048L21.3813 190.106C23.8225 190.745 26.0508 191.389 28.1657 191.851V191.925C26.0757 192.47 23.922 193.1 21.4643 193.888L5.85797 198.566L5.9022 200.535V200.537Z" fill="#388DCB"/>
<path d="M5.56836 183.134L31.3236 177.737L31.4425 176.12L6.75991 166.759L6.61892 168.683L21.9598 174.221C24.3291 175.094 26.4828 175.948 28.5535 176.604V176.681C26.4053 177.027 24.2102 177.45 21.6861 177.997L5.70935 181.168L5.56836 183.134Z" fill="#388DCB"/>
<path d="M6.89258 165.747L33.0432 162.839L33.3169 161.233L9.64338 149.558L9.32269 151.46L24.0637 158.443C26.3362 159.535 28.3986 160.597 30.3947 161.44L30.3808 161.517C28.2217 161.658 25.9934 161.866 23.4278 162.173L7.22433 163.798L6.89258 165.745V165.747Z" fill="#388DCB"/>
<path d="M9.86703 148.574L36.1863 148.179L36.6148 146.614L14.166 132.719L13.6601 134.585L27.6657 142.945C29.8276 144.25 31.7822 145.502 33.6843 146.536L33.6649 146.614C31.4975 146.545 29.2609 146.542 26.676 146.603L10.384 146.672L9.86426 148.577L9.86703 148.574Z" fill="#388DCB"/>
<path d="M14.498 131.731L40.7261 133.871L41.3039 132.353L20.3065 116.365L19.6237 118.176L32.7556 127.844C34.7766 129.351 36.604 130.786 38.3955 131.999L38.3678 132.071C36.2197 131.797 33.9942 131.576 31.4176 131.388L15.2003 129.887L14.5008 131.731H14.498Z" fill="#388DCB"/>
<path d="M20.7178 115.412L46.6223 120.079L47.3439 118.624L27.986 100.688L27.1289 102.418L39.2657 113.311C41.1318 115.008 42.8099 116.606 44.4797 117.989L44.4438 118.058C42.3316 117.577 40.1365 117.14 37.5931 116.703L21.5914 113.643L20.7178 115.406V115.412Z" fill="#388DCB"/>
<path d="M28.4756 99.7973L53.8106 106.941L54.6621 105.562L37.1206 85.8359L36.106 87.4754L47.1396 99.4932C48.8343 101.359 50.3493 103.118 51.8782 104.655L51.8394 104.718C49.7826 104.035 47.64 103.391 45.1463 102.711L29.5151 98.1219L28.4784 99.7973H28.4756Z" fill="#388DCB"/>
<path d="M37.7178 84.9903L62.2428 94.5365L63.227 93.2454L47.6732 71.9219L46.5038 73.4562L56.3237 86.4832C57.8304 88.5069 59.1685 90.4006 60.5425 92.0788L60.4955 92.1396C58.5161 91.2604 56.4481 90.4117 54.0291 89.4994L38.9149 83.4283L37.7233 84.9958L37.7178 84.9903Z" fill="#388DCB"/>
<path d="M48.328 71.1475L71.8273 83.0022L72.9304 81.8107L59.4832 59.0938L58.17 60.512L66.7044 74.4153C68.0121 76.5717 69.1649 78.5871 70.3703 80.3869L70.315 80.4477C68.4296 79.3834 66.4473 78.3411 64.1306 77.1965L49.666 69.7044L48.3252 71.1503L48.328 71.1475Z" fill="#388DCB"/>
<path d="M60.1914 58.4001L82.466 72.4195L83.6741 71.3385L72.4249 47.4521L70.9873 48.7405L78.1725 63.3847C79.2701 65.6572 80.2294 67.7694 81.2634 69.677L81.2053 69.7295C79.4221 68.491 77.5533 67.269 75.3526 65.9116L61.6594 57.0841L60.1914 58.3973V58.4001Z" fill="#388DCB"/>
<path d="M73.2381 46.816L94.0723 62.8923L95.38 61.9302L86.4696 37.0928L84.9131 38.2346L90.6636 53.4981C91.5399 55.8646 92.2864 58.0569 93.1296 60.053L93.0688 60.1C91.4155 58.6983 89.6711 57.2994 87.6114 55.7402L74.825 45.6548L73.2354 46.8187L73.2381 46.816Z" fill="#388DCB"/>
<path d="M87.2988 36.548L106.488 54.554L107.884 53.7274L101.412 28.1436L99.7479 29.1305L104.003 44.8751C104.644 47.3135 105.18 49.5749 105.827 51.6401L105.764 51.6788C104.252 50.1223 102.648 48.5659 100.749 46.8131L88.9935 35.5389L87.2988 36.548Z" fill="#388DCB"/>
<path d="M102.344 27.6457L119.697 47.4294L121.163 46.741L117.201 20.6484L115.454 21.4723L118.157 37.5541C118.564 40.0451 118.879 42.3452 119.321 44.4629L119.249 44.4961C117.898 42.8014 116.452 41.0956 114.735 39.1687L104.127 26.808L102.344 27.6457Z" fill="#388DCB"/>
<path d="M118.136 20.2591L133.504 41.6213L135.03 41.0739L133.595 14.7188L131.776 15.374L132.924 31.6438C133.087 34.1596 133.178 36.4791 133.413 38.6328L133.341 38.6577C132.158 36.8413 130.88 35.0028 129.357 32.9183L119.991 19.5955L118.133 20.2591H118.136Z" fill="#388DCB"/>
<path d="M134.574 14.4371L147.819 37.1734L149.39 36.7753L150.493 10.4062L148.621 10.8818L148.201 27.1848C148.118 29.7061 147.988 32.0201 148.018 34.1903L147.941 34.2097C146.935 32.2855 145.848 30.3364 144.527 28.1164L136.482 13.9588L134.571 14.4426L134.574 14.4371Z" fill="#388DCB"/>
<path d="M151.51 10.2043L162.51 34.1073L164.116 33.8612L167.741 7.72168L165.833 8.01197L163.851 24.1989C163.53 26.7008 163.176 28.9955 163.002 31.1547L162.925 31.1657C162.112 29.1586 161.211 27.11 160.111 24.7739L153.459 9.90574L151.515 10.2016L151.51 10.2043Z" fill="#388DCB"/>
<path d="M168.747 7.62489L177.417 32.4734L179.04 32.3794L185.147 6.70703L183.217 6.81209L179.698 22.7363C179.139 25.1969 178.567 27.4445 178.188 29.5733L178.111 29.5816C177.489 27.5053 176.789 25.3821 175.919 22.9492L170.713 7.5143L168.747 7.62212V7.62489Z" fill="#388DCB"/>
<path d="M186.17 6.69824L192.429 32.2627L194.049 32.3291L202.581 7.34793L200.648 7.27605L195.628 22.7911C194.837 25.1853 194.055 27.3721 193.466 29.4567H193.391C192.971 27.3279 192.479 25.1466 191.843 22.6418L188.138 6.77842L186.17 6.69824Z" fill="#388DCB"/>
<path d="M203.579 7.43945L207.367 33.4795L208.981 33.6979L219.863 9.64562L217.944 9.38852L211.461 24.3562C210.441 26.6674 209.457 28.7658 208.674 30.7867L208.6 30.7757C208.387 28.6193 208.102 26.402 207.707 23.8475L205.539 7.70485L203.582 7.43945H203.579Z" fill="#388DCB"/>
<path d="M220.816 9.83105L222.107 36.1282L223.683 36.4986L236.804 13.5909L234.924 13.1514L227.045 27.4334C225.812 29.6341 224.626 31.6301 223.658 33.5681L223.581 33.5488C223.576 31.3841 223.504 29.1475 223.36 26.5653L222.738 10.2845L220.816 9.83382V9.83105Z" fill="#388DCB"/>
<path d="M237.827 13.8896L236.58 40.1812L238.12 40.7038L253.381 19.1701L251.551 18.5508L242.331 32.0035C240.893 34.0825 239.527 35.9514 238.369 37.7871L238.297 37.7622C238.501 35.6058 238.642 33.3692 238.745 30.787L239.69 14.5228L237.824 13.8896H237.827Z" fill="#388DCB"/>
<path d="M254.307 19.5342L250.527 45.5825L252.009 46.2515L269.277 26.2854L267.519 25.4947L257.046 37.9991C255.415 39.9233 253.87 41.654 252.546 43.3708L252.474 43.3404C252.886 41.2089 253.242 39.0027 253.593 36.4426L256.109 20.3442L254.309 19.5342H254.307Z" fill="#388DCB"/>
<path d="M270.175 26.7588L263.905 52.3178L265.312 53.125L284.427 34.9283L282.752 33.9662L271.121 45.4007C269.313 47.1562 267.607 48.732 266.125 50.3106L266.056 50.2719C266.667 48.1929 267.239 46.031 267.837 43.518L271.89 27.7375L270.175 26.7588Z" fill="#388DCB"/>
<path d="M285.312 35.4971L276.601 60.3289L277.925 61.2689L298.712 45.0019L297.136 43.8822L284.455 54.1389C282.486 55.7175 280.637 57.1165 279.006 58.5458L278.945 58.5015C279.755 56.4861 280.532 54.3933 281.367 51.9494L286.926 36.6389L285.317 35.4971H285.312Z" fill="#388DCB"/>
<path d="M299.503 45.6299L288.456 69.5163L289.686 70.5834L311.928 56.3788L310.468 55.1153L296.863 64.1114C294.754 65.491 292.783 66.7102 291.022 67.9764L290.964 67.9266C291.962 66.0052 292.935 63.9898 294.002 61.6343L300.996 46.9265L299.506 45.6327L299.503 45.6299Z" fill="#388DCB"/>
<path d="M312.629 57.0479L299.373 79.7897L300.498 80.9619L323.987 68.9192L322.654 67.5203L308.259 75.1949C306.025 76.3698 303.946 77.3983 302.071 78.4931L302.024 78.4378C303.199 76.6159 304.358 74.7028 305.643 72.4606L313.998 58.4744L312.632 57.0506L312.629 57.0479Z" fill="#388DCB"/>
<path d="M324.653 69.6992L309.293 91.067L310.299 92.3415L334.827 82.5962L333.63 81.0784L318.568 87.3431C316.238 88.2969 314.067 89.1235 312.102 90.0331L312.055 89.9722C313.401 88.272 314.739 86.4805 316.227 84.3711L325.875 71.2474L324.653 69.702V69.6992Z" fill="#388DCB"/>
<path d="M335.419 83.4473L318.076 103.236L318.958 104.599L344.304 97.2621L343.259 95.6365L327.667 100.428C325.256 101.152 323.014 101.763 320.971 102.479L320.929 102.418C322.428 100.853 323.934 99.1973 325.618 97.24L336.483 85.1088L335.419 83.45V83.4473Z" fill="#388DCB"/>
<path d="M344.807 98.1387L325.632 116.161L326.373 117.604L352.308 112.744L351.426 111.027L335.449 114.287C332.975 114.776 330.691 115.172 328.59 115.683L328.551 115.619C330.193 114.209 331.852 112.705 333.721 110.92L345.706 99.8914L344.807 98.1387Z" fill="#388DCB"/>
<path d="M352.742 113.698L331.913 129.786L332.516 131.295L358.805 128.97L358.091 127.17L341.871 128.871C339.361 129.114 337.047 129.285 334.904 129.598L334.874 129.526C336.649 128.282 338.44 126.946 340.472 125.348L353.469 115.531L352.742 113.698Z" fill="#388DCB"/>
<path d="M359.119 129.907L336.839 143.913L337.29 145.469L363.683 145.682L363.147 143.827L346.839 143.96C344.314 143.96 341.998 143.91 339.836 144.015L339.811 143.943C341.694 142.873 343.609 141.718 345.785 140.324L359.666 131.804L359.119 129.913V129.907Z" fill="#388DCB"/>
<path d="M363.919 146.674L340.395 158.487L340.69 160.079L366.949 162.819L366.592 160.92L350.339 159.491C347.831 159.256 345.526 158.979 343.361 158.877L343.347 158.799C345.329 157.918 347.345 156.947 349.645 155.769L364.286 148.615L363.921 146.679L363.919 146.674Z" fill="#388DCB"/>
<path d="M367.079 163.834L342.537 173.339L342.681 174.953L368.549 180.195L368.378 178.268L352.343 175.285C349.863 174.812 347.599 174.315 345.457 174.008L345.451 173.93C347.502 173.239 349.601 172.468 352.006 171.517L367.258 165.8L367.079 163.834Z" fill="#388DCB"/>
<path d="M368.594 181.186L343.257 188.304L343.251 189.93L368.506 197.616L368.517 195.68L352.836 191.185C350.411 190.475 348.202 189.764 346.099 189.25V189.173C348.211 188.683 350.375 188.114 352.858 187.392L368.583 183.159L368.594 181.188V181.186Z" fill="#388DCB"/>
<path d="M368.439 198.669L342.534 203.33L342.371 204.945L366.774 215.005L366.971 213.084L351.793 207.112C349.449 206.172 347.317 205.257 345.271 204.547L345.277 204.469C347.425 204.182 349.634 203.828 352.174 203.347L368.237 200.632L368.433 198.672L368.439 198.669Z" fill="#388DCB"/>
<path d="M366.625 215.947L340.397 218.131L340.082 219.721L363.413 232.051L363.791 230.157L349.252 222.77C347.013 221.612 344.981 220.501 343.01 219.594L343.024 219.519C345.188 219.436 347.419 219.292 349.99 219.052L366.241 217.883L366.625 215.947Z" fill="#388DCB"/>
<path d="M363.153 233.066L336.839 232.712L336.375 234.266L358.412 248.788L358.968 246.941L345.205 238.186C343.09 236.82 341.169 235.512 339.297 234.42L339.319 234.343C341.479 234.476 343.718 234.545 346.3 234.556L362.586 234.948L363.156 233.063L363.153 233.066Z" fill="#388DCB"/>
<path d="M358.072 249.743L331.91 246.856L331.291 248.36L351.835 264.932L352.568 263.148L339.709 253.104C337.733 251.545 335.949 250.061 334.188 248.792L334.219 248.723C336.359 249.054 338.576 249.339 341.147 249.602L357.32 251.562L358.066 249.743H358.072Z" fill="#388DCB"/>
<path d="M351.381 265.891L325.626 260.483L324.868 261.924L343.712 280.408L344.619 278.705L332.792 267.461C330.972 265.717 329.341 264.066 327.713 262.64L327.749 262.571C329.847 263.107 332.026 263.607 334.558 264.119L350.466 267.635L351.384 265.891H351.381Z" fill="#388DCB"/>
<path d="M343.168 281.298L318.054 273.436L317.161 274.793L334.125 295.011L335.189 293.402L324.504 281.071C322.865 279.161 321.399 277.361 319.915 275.78L319.962 275.716C321.996 276.46 324.117 277.165 326.591 277.914L342.081 282.949L343.165 281.301L343.168 281.298Z" fill="#388DCB"/>
<path d="M333.531 295.809L309.288 285.569L308.265 286.836L323.213 308.582L324.429 307.081L314.98 293.783C313.526 291.726 312.246 289.796 310.919 288.08L310.968 288.016C312.923 288.953 314.972 289.86 317.357 290.844L332.295 297.341L333.533 295.807L333.531 295.809Z" fill="#388DCB"/>
<path d="M322.56 309.249L299.34 296.877L298.209 298.041L311.139 321.054L312.48 319.663L304.261 305.572C303.006 303.388 301.897 301.353 300.733 299.523L300.788 299.467C302.652 300.57 304.609 301.66 306.895 302.854L321.189 310.667L322.56 309.249Z" fill="#388DCB"/>
<path d="M79.8899 295.638C20.6135 236.361 20.6135 140.257 79.8899 80.9836C139.166 21.7073 235.27 21.7073 294.549 80.9836C353.82 140.26 353.82 236.361 294.549 295.64C235.273 354.914 139.166 354.914 79.8899 295.64V295.638Z" stroke="#388DCB" stroke-width="2.98027"/>
<path d="M85.4161 290.111C29.1946 233.892 29.1946 142.732 85.4161 86.5129C141.646 30.2887 232.798 30.2887 289.02 86.5129C345.241 142.732 345.241 233.892 289.02 290.111C232.798 346.338 141.646 346.338 85.4161 290.111Z" stroke="#388DCB" stroke-width="1.76936"/>
<path d="M158.966 216.564C143.363 200.958 143.363 175.662 158.966 160.058C174.57 144.455 199.866 144.455 215.47 160.058C231.073 175.664 231.073 200.961 215.47 216.564C199.866 232.168 174.57 232.168 158.966 216.564Z" stroke="#388DCB" stroke-width="1.76936"/>
<path d="M178.445 197.084C173.596 192.235 173.596 184.384 178.445 179.54C183.292 174.691 191.146 174.691 195.995 179.54C200.842 184.384 200.842 192.235 195.995 197.084C191.146 201.931 183.292 201.931 178.445 197.084Z" fill="#388DCB"/>
<path d="M0 184.002V186.532C0 189.888 2.72039 192.608 6.07941 192.608H13.9392C17.2955 192.608 20.0187 189.888 20.0187 186.532V184.002H0Z" fill="#388DCB"/>
<path d="M2.05957 153.19V155.723C2.05957 159.079 4.78273 161.797 8.14175 161.797H15.9988C19.3578 161.797 22.081 159.076 22.081 155.723V153.19H2.06233H2.05957Z" fill="#388DCB"/>
<path d="M2.05957 217.021V219.553C2.05957 222.909 4.78273 225.627 8.14175 225.627H15.9988C19.3578 225.627 22.081 222.909 22.081 219.553V217.021H2.06233H2.05957Z" fill="#388DCB"/>
<path d="M23.4883 275.971V278.498C23.4883 281.851 26.2114 284.571 29.5705 284.571H37.4275C40.7865 284.571 43.5097 281.851 43.5097 278.498V275.971H23.4883Z" fill="#388DCB"/>
<path d="M10.0049 123.581V126.111C10.0049 129.467 12.7253 132.187 16.0843 132.187H23.9441C27.3031 132.187 30.0235 129.467 30.0235 126.111V123.581H10.0049Z" fill="#388DCB"/>
<path d="M25.0947 93.6318V96.1642C25.0947 99.5205 27.8179 102.241 31.1769 102.241H39.0367C42.3958 102.241 45.1161 99.5205 45.1161 96.1642V93.6318H25.0975H25.0947Z" fill="#388DCB"/>
<path d="M88.0781 28.3008V30.8276C88.0781 34.1894 90.804 36.9098 94.1575 36.9098H102.017C105.376 36.9098 108.1 34.1894 108.1 30.8276V28.3008H88.0809H88.0781Z" fill="#388DCB"/>
<path d="M41.3809 68.0234V70.5531C41.3809 73.9093 44.1012 76.6325 47.4603 76.6325H55.3201C58.6791 76.6325 61.3995 73.9121 61.3995 70.5531V68.0234H41.3809Z" fill="#388DCB"/>
<path d="M63.8827 45.9092V48.436C63.8827 51.7951 66.603 54.5155 69.9621 54.5155H77.8219C81.1809 54.5155 83.8985 51.7923 83.8985 48.436V45.9092H63.8799H63.8827Z" fill="#388DCB"/>
<path d="M145.511 5.07812V7.60499C145.511 10.9613 148.231 13.6816 151.59 13.6816H159.45C162.806 13.6816 165.529 10.9613 165.529 7.60499V5.07812H145.511Z" fill="#388DCB"/>
<path d="M115.163 14.4473V16.9769C115.163 20.3332 117.883 23.0535 121.24 23.0535H129.099C132.456 23.0535 135.179 20.3332 135.179 16.9769V14.4473H115.16H115.163Z" fill="#388DCB"/>
<path d="M208.787 4.30469V6.83432C208.787 10.1906 211.507 12.9137 214.867 12.9137H222.726C226.085 12.9137 228.803 10.1906 228.803 6.83432V4.30469H208.787Z" fill="#388DCB"/>
<path d="M177.21 0V2.52963C177.21 5.88589 179.933 8.60905 183.292 8.60905H191.152C194.511 8.60905 197.231 5.88589 197.231 2.52963V0H177.213H177.21Z" fill="#388DCB"/>
<path d="M266.123 28.332V30.8644C266.123 34.2207 268.846 36.9411 272.202 36.9411H280.062C283.419 36.9411 286.142 34.2207 286.142 30.8644V28.332H266.123Z" fill="#388DCB"/>
<path d="M238.319 13.6846V16.2142C238.319 19.5732 241.042 22.2909 244.402 22.2909H252.261C255.618 22.2909 258.341 19.5705 258.341 16.2142V13.6846H238.322H238.319Z" fill="#388DCB"/>
<path d="M312.914 68.6982V71.2279C312.914 74.5869 315.634 77.3073 318.993 77.3073H326.851C330.21 77.3073 332.933 74.5869 332.933 71.2279V68.6982H312.914Z" fill="#388DCB"/>
<path d="M331.083 94.6416V97.1712C331.083 100.53 333.803 103.251 337.162 103.251H345.017C348.376 103.251 351.102 100.53 351.102 97.1712V94.6416H331.083Z" fill="#388DCB"/>
<path d="M290.722 46.9678V49.4974C290.722 52.8564 293.443 55.5768 296.799 55.5768H304.656C308.018 55.5768 310.738 52.8564 310.738 49.4974V46.9678H290.72H290.722Z" fill="#388DCB"/>
<path d="M343.441 122.572V125.102C343.441 128.461 346.165 131.181 349.521 131.181H357.383C360.737 131.181 363.46 128.461 363.46 125.102V122.572H343.441Z" fill="#388DCB"/>
<path d="M354.118 184.002V186.532C354.118 189.888 356.841 192.608 360.2 192.608H368.06C371.414 192.608 374.14 189.888 374.14 186.532V184.002H354.121H354.118Z" fill="#388DCB"/>
<path d="M352.357 215.171V217.701C352.357 221.057 355.081 223.774 358.437 223.774H366.297C369.653 223.774 372.379 221.057 372.379 217.701V215.171H352.36H352.357Z" fill="#388DCB"/>
<path d="M352.072 153.63V156.162C352.072 159.519 354.792 162.236 358.149 162.236H366.006C369.365 162.236 372.088 159.516 372.088 156.162V153.63H352.069H352.072Z" fill="#388DCB"/>
<path d="M315.306 299.912V302.442C315.306 305.804 318.029 308.524 321.385 308.524H329.245C332.604 308.524 335.322 305.804 335.322 302.442V299.912H315.306Z" fill="#388DCB"/>
<path d="M333.455 274.248V276.78C333.455 280.137 336.175 282.857 339.537 282.857H347.394C350.753 282.857 353.474 280.137 353.474 276.78V274.248H333.455Z" fill="#388DCB"/>
<path d="M345.377 246.488V249.018C345.377 252.377 348.097 255.095 351.456 255.095H359.316C362.675 255.095 365.393 252.374 365.393 249.018V246.488H345.374H345.377Z" fill="#388DCB"/>
<path d="M294.019 322.585V325.117C294.019 328.474 296.742 331.194 300.098 331.194H307.958C311.317 331.194 314.04 328.474 314.04 325.117V322.585H294.021H294.019Z" fill="#388DCB"/>
<path d="M240.376 355.166V357.693C240.376 361.052 243.096 363.77 246.458 363.77H254.312C257.671 363.77 260.395 361.049 260.395 357.693V355.166H240.376Z" fill="#388DCB"/>
<path d="M268.177 340.858V343.388C268.177 346.744 270.897 349.465 274.259 349.465H282.116C285.469 349.465 288.195 346.744 288.195 343.388V340.858H268.177Z" fill="#388DCB"/>
<path d="M210.078 363.515V366.044C210.078 369.401 212.801 372.121 216.16 372.121H224.02C227.374 372.121 230.097 369.401 230.097 366.044V363.515H210.078Z" fill="#388DCB"/>
<path d="M177.597 367.698V370.225C177.597 373.584 180.32 376.307 183.679 376.307H191.533C194.892 376.307 197.613 373.584 197.613 370.225V367.698H177.597Z" fill="#388DCB"/>
<path d="M115.39 354.884V357.413C115.39 360.772 118.11 363.49 121.466 363.49H129.329C132.685 363.49 135.408 360.77 135.408 357.413V354.884H115.39Z" fill="#388DCB"/>
<path d="M145.796 363.515V366.044C145.796 369.401 148.519 372.121 151.875 372.121H159.735C163.091 372.121 165.812 369.401 165.812 366.044V363.515H145.796Z" fill="#388DCB"/>
<path d="M40.3193 301.026V303.556C40.3193 306.915 43.0453 309.633 46.4015 309.633H54.2586C57.6204 309.633 60.3352 306.912 60.3352 303.556V301.026H40.3193Z" fill="#388DCB"/>
<path d="M61.209 322.585V325.115C61.209 328.474 63.9294 331.194 67.2884 331.194H75.1455C78.5045 331.194 81.2249 328.474 81.2249 325.115V322.585H61.209Z" fill="#388DCB"/>
<path d="M86.8867 340.878V343.41C86.8867 346.764 89.6099 349.487 92.9661 349.487H100.823C104.182 349.487 106.905 346.764 106.905 343.41V340.878H86.8867Z" fill="#388DCB"/>
<path d="M10.0049 247.929V250.458C10.0049 253.817 12.7253 256.535 16.0843 256.535H23.9441C27.3031 256.535 30.0235 253.817 30.0235 250.458V247.929H10.0049Z" fill="#388DCB"/>
<path d="M187.065 35.5195V340.79" stroke="#388DCB" stroke-width="0.44234"/>
<path d="M34.4365 188.152H339.704" stroke="#388DCB" stroke-width="0.44234"/>
<path d="M160.563 37.8369L213.572 338.471" stroke="#388DCB" stroke-width="0.44234"/>
<path d="M36.7529 214.656L337.384 161.647" stroke="#388DCB" stroke-width="0.44234"/>
<path d="M134.864 44.7227L239.273 331.583" stroke="#388DCB" stroke-width="0.44234"/>
<path d="M43.6367 240.356L330.497 135.95" stroke="#388DCB" stroke-width="0.44234"/>
<path d="M110.751 55.9697L263.383 320.337" stroke="#388DCB" stroke-width="0.44234"/>
<path d="M54.8838 264.469L319.254 111.837" stroke="#388DCB" stroke-width="0.44234"/>
<path d="M88.958 71.2305L285.18 305.079" stroke="#388DCB" stroke-width="0.44234"/>
<path d="M70.1445 286.266L303.993 90.041" stroke="#388DCB" stroke-width="0.44234"/>
<path d="M70.1445 90.041L303.993 286.266" stroke="#388DCB" stroke-width="0.44234"/>
<path d="M88.958 305.079L285.18 71.2275" stroke="#388DCB" stroke-width="0.44234"/>
<path d="M54.8838 111.837L319.254 264.469" stroke="#388DCB" stroke-width="0.44234"/>
<path d="M110.751 320.337L263.383 55.9697" stroke="#388DCB" stroke-width="0.44234"/>
<path d="M43.6367 135.95L330.497 240.356" stroke="#388DCB" stroke-width="0.44234"/>
<path d="M134.864 331.583L239.273 44.7227" stroke="#388DCB" stroke-width="0.44234"/>
<path d="M36.7529 161.647L337.384 214.659" stroke="#388DCB" stroke-width="0.44234"/>
<path d="M160.563 338.471L213.572 37.8369" stroke="#388DCB" stroke-width="0.44234"/>
<path d="M360.018 247.445H357.085V250.379H360.018V247.445Z" fill="#388DCB"/>
</svg>
