<svg width="80" height="80" viewBox="0 0 80 80" fill="none" xmlns="http://www.w3.org/2000/svg">
<path d="M39.1106 37.537C39.2489 38.045 39.4564 38.8157 38.9999 39.6109C38.5814 40.3466 37.8309 40.7845 36.9974 40.7845H35.2612V45.2301C35.2612 46.9678 33.8639 48.3796 32.1519 48.3796H29.8968C29.5337 48.3796 28.8558 48.3796 28.6379 50.0226C28.5722 50.5095 28.5065 51.0315 28.4338 51.5675C28.3612 52.1316 27.8839 52.552 27.3236 52.552H9.33922C9.0141 52.552 8.70629 52.4083 8.49185 52.1596C8.28088 51.9109 8.18403 51.5816 8.23246 51.2558C8.41922 49.9491 8.86193 46.8942 8.29817 45.5245C7.58224 43.7729 6.65184 42.6448 5.66957 41.4537C3.86759 39.2641 2 36.9975 2 31.245C2 27.6682 3.07913 24.2455 5.1231 21.3448C5.4828 20.8334 6.18143 20.7178 6.68292 21.0821C7.18788 21.4464 7.30201 22.1541 6.94232 22.662C5.1715 25.1774 4.23421 28.1447 4.23421 31.245C4.23421 36.1776 5.69372 37.9503 7.38157 40.0031C8.37765 41.2153 9.50858 42.5885 10.356 44.659C10.9405 46.0848 10.8644 48.1447 10.6085 50.2887H26.3316C26.3558 50.096 26.38 49.9068 26.4042 49.7246C26.8331 46.4666 28.9774 46.1163 29.8801 46.1163H32.1352C32.6159 46.1163 33.0067 45.7204 33.0067 45.2335V39.6563C33.0067 39.0292 33.5082 38.5212 34.1273 38.5212H36.9807C37.0015 38.5212 37.0153 38.5212 37.0222 38.5142C37.0153 38.4442 36.9876 38.3286 36.96 38.2305C36.8666 38.0308 36.7109 37.698 36.5173 37.2811C33.3803 30.5688 33.3803 30.3131 33.3803 29.9243C33.3803 27.9029 32.986 26.0111 32.2078 24.298C31.9484 23.7305 32.194 23.0579 32.7577 22.7951C33.318 22.5324 33.9821 22.7811 34.2415 23.3521C35.1407 25.328 35.6042 27.4965 35.618 29.7981C35.8913 30.6424 37.8765 34.8884 38.5406 36.3142C38.7723 36.8081 38.9452 37.183 39.0317 37.3687C39.0594 37.4247 39.0801 37.4843 39.094 37.5438L39.1106 37.537ZM7.62017 16.6327C7.62017 9.68222 13.2024 4.02768 20.0646 4.02768C26.9267 4.02768 32.509 9.68195 32.509 16.6327C32.509 19.6946 31.0114 22.3325 29.4273 25.1281C28.6318 26.5294 27.8156 27.9763 27.155 29.5318V32.7723C27.155 33.2943 26.8091 33.7322 26.3353 33.8618V36.2475C26.3353 36.8746 25.8338 37.3826 25.2147 37.3826H25.1974V37.859C25.1974 39.3724 23.9835 40.6021 22.4893 40.6021H17.63C16.1358 40.6021 14.9218 39.3724 14.9218 37.859V37.3826H14.9046C14.2855 37.3826 13.784 36.8746 13.784 36.2475V33.8618C13.3102 33.7286 12.9643 33.2907 12.9643 32.7723V29.5318C12.3037 27.9763 11.4874 26.5294 10.692 25.1281C9.1079 22.3325 7.61032 19.6946 7.61032 16.6327H7.62017ZM22.9625 37.3827H17.1658V37.8592C17.1658 38.1149 17.3803 38.3356 17.6362 38.3356H22.4956C22.7481 38.3356 22.966 38.1184 22.966 37.8592V37.3827H22.9625ZM24.1004 33.9075H16.028V35.1162H24.1004V33.9075ZM24.9201 30.4323H15.2081V31.6409H24.9201V30.4323ZM21.0603 28.1657V19.2079H19.0681V28.1657H21.0603ZM9.85811 16.6369C9.85811 19.0927 11.1481 21.3698 12.6423 24.0042C13.3893 25.3215 14.1606 26.6807 14.8246 28.1661H16.8306V18.0767C16.8306 17.4496 17.3321 16.9416 17.9512 16.9416H22.181C22.8001 16.9416 23.3016 17.4496 23.3016 18.0767V28.1661H25.3076C25.9716 26.6807 26.7429 25.3214 27.4899 24.0042C28.9841 21.3698 30.2741 19.0961 30.2741 16.6369C30.2741 10.9371 25.6949 6.2991 20.068 6.2991C14.4412 6.2991 9.86191 10.9374 9.86191 16.6369H9.85811ZM20.0642 9.4973C23.9517 9.4973 27.1128 12.6993 27.1128 16.6369C27.1128 17.264 27.6143 17.7719 28.2334 17.7719C28.8525 17.7719 29.354 17.264 29.354 16.6369C29.354 11.4485 25.1864 7.23091 20.0678 7.23091C19.4487 7.23091 18.9473 7.73888 18.9473 8.36594C18.9473 8.99302 19.4488 9.50097 20.0678 9.50097L20.0642 9.4973ZM20.0642 3.89908C20.6833 3.89908 21.1848 3.3911 21.1848 2.76404V1.13503C21.1848 0.507949 20.6833 0 20.0642 0C19.4451 0 18.9436 0.507976 18.9436 1.13503V2.76404C18.9436 3.39113 19.4451 3.89908 20.0642 3.89908ZM26.352 5.60513C26.5284 5.70672 26.7221 5.75577 26.9088 5.75577C27.2962 5.75577 27.6698 5.55258 27.8808 5.18824L28.6866 3.77644C28.9944 3.23344 28.8111 2.5398 28.2785 2.22797C27.7424 1.91618 27.0576 2.10186 26.7498 2.64136L25.9439 4.05315C25.6361 4.59616 25.8194 5.2898 26.352 5.60163L26.352 5.60513ZM31.9239 10.832C32.1141 10.832 32.3043 10.7829 32.4807 10.6813L33.8745 9.86506C34.4106 9.55327 34.5939 8.85962 34.2826 8.31659C33.9748 7.77358 33.29 7.58791 32.7539 7.9032L31.3601 8.71946C30.824 9.03126 30.6407 9.7249 30.952 10.2679C31.1595 10.6323 31.5365 10.8355 31.9239 10.8355L31.9239 10.832ZM32.6398 16.6334C32.6398 17.2605 33.1413 17.7684 33.7604 17.7684H35.3686C35.9877 17.7684 36.4892 17.2605 36.4892 16.6334C36.4892 16.0063 35.9877 15.4984 35.3686 15.4984H33.7604C33.1413 15.4984 32.6398 16.0064 32.6398 16.6334ZM12.248 5.1916C12.4555 5.55593 12.8325 5.75912 13.2199 5.75912C13.4101 5.75912 13.6004 5.71008 13.7767 5.60848C14.3128 5.29669 14.4961 4.60304 14.1849 4.06L13.379 2.64821C13.0712 2.1052 12.3864 1.91953 11.8503 2.23482C11.3142 2.54661 11.1309 3.24026 11.4421 3.7833L12.248 5.19509L12.248 5.1916ZM6.25077 9.86841L7.64458 10.6847C7.82097 10.7863 8.01465 10.8353 8.20142 10.8353C8.58879 10.8353 8.96232 10.6321 9.17333 10.2678C9.48115 9.72478 9.29784 9.03114 8.76521 8.71931L7.37141 7.90305C6.83532 7.59125 6.15052 7.77693 5.84266 8.31643C5.53484 8.85944 5.71815 9.55308 6.25078 9.86491L6.25077 9.86841ZM4.7601 17.7718H6.36835C6.98745 17.7718 7.48893 17.2638 7.48893 16.6367C7.48893 16.0097 6.98742 15.5017 6.36835 15.5017H4.7601C4.141 15.5017 3.63953 16.0097 3.63953 16.6367C3.63953 17.2638 4.14103 17.7718 4.7601 17.7718ZM77.8098 63.8744C77.6749 64.8063 76.9659 65.5174 76.0424 65.6436L73.9499 65.9274C73.7044 66.6946 73.3965 67.4443 73.0333 68.166L74.313 69.865C74.8768 70.6147 74.8837 71.6271 74.3269 72.3839C73.2374 73.8657 71.9473 75.1725 70.4844 76.276C69.7373 76.84 68.7377 76.833 67.9976 76.2619L66.3168 74.9622C65.6043 75.3301 64.8642 75.6419 64.1101 75.8906L63.83 78.0101C63.7055 78.9455 63.0034 79.6637 62.0833 79.8003C61.1807 79.9334 60.2745 80 59.3649 80C58.4553 80 57.5491 79.9334 56.6499 79.8003C55.7298 79.6637 55.0278 78.942 54.9032 78.0101L54.6231 75.8906C53.8656 75.6419 53.1255 75.3301 52.4165 74.9622L50.7356 76.2584C49.9955 76.8295 48.9959 76.8365 48.2488 76.2725C46.7859 75.1689 45.4958 73.8622 44.4063 72.3804C43.8495 71.6237 43.8564 70.6112 44.4202 69.8615L45.6999 68.159C45.3367 67.4373 45.0289 66.6911 44.7833 65.9239L42.6908 65.6401C41.7673 65.514 41.0583 64.8028 40.9234 63.8709C40.6606 62.0457 40.6606 60.1925 40.9234 58.3708C41.0583 57.4389 41.7708 56.7278 42.6908 56.6016L44.7833 56.3179C45.0289 55.5507 45.3367 54.801 45.6999 54.0793L44.4202 52.3802C43.8564 51.6305 43.8495 50.6181 44.4063 49.8614C45.4958 48.3795 46.7859 47.0728 48.2488 45.9693C48.9959 45.4053 49.9955 45.4123 50.7356 45.9833L52.4165 47.283C53.1289 46.9152 53.8656 46.6034 54.6231 46.3546L54.9032 44.2351C55.0277 43.2997 55.7298 42.5815 56.6499 42.4449C58.4518 42.1787 60.278 42.1787 62.0799 42.4449C62.9999 42.5816 63.702 43.3032 63.8265 44.2351L64.1067 46.3546C64.8641 46.6033 65.6043 46.9151 66.3133 47.283L67.9907 45.9868C68.7309 45.4158 69.7304 45.4088 70.4775 45.9728C71.9404 47.0764 73.2305 48.383 74.32 49.8649C74.8768 50.6216 74.8699 51.6341 74.3061 52.3837L73.0264 54.0828C73.3896 54.8044 73.6974 55.5506 73.943 56.3179L76.0355 56.6016C76.959 56.7277 77.668 57.4389 77.8029 58.3708C78.0657 60.1961 78.0657 62.0458 77.8029 63.8709L77.8098 63.8744ZM75.6135 58.8297L72.9331 58.4654C72.487 58.4058 72.1203 58.08 72.0027 57.6386C71.7122 56.5561 71.2868 55.5121 70.7334 54.5383C70.5086 54.1424 70.5397 53.6484 70.8164 53.2876L72.4558 51.1086C71.5428 49.8824 70.4671 48.793 69.2566 47.8681L67.1053 49.5286C66.7491 49.8054 66.2614 49.8369 65.8706 49.6127C64.9092 49.0522 63.875 48.6213 62.8098 48.327C62.374 48.2079 62.0523 47.8366 61.9935 47.3846L61.6338 44.6696C60.1328 44.4594 58.611 44.4594 57.1099 44.6696L56.7502 47.3846C56.6914 47.8365 56.3698 48.2079 55.934 48.327C54.8653 48.6213 53.8381 49.0522 52.8731 49.6127C52.4823 49.8404 51.9946 49.8089 51.6384 49.5286L49.4872 47.8681C48.2766 48.7965 47.201 49.8824 46.2879 51.1086L47.9273 53.2841C48.2006 53.645 48.2317 54.1389 48.0103 54.5348C47.457 55.5086 47.0315 56.5526 46.741 57.6386C46.6234 58.08 46.2568 58.4058 45.8106 58.4654L43.1337 58.8297C42.9262 60.3501 42.9262 61.8916 43.1337 63.412L45.8141 63.7764C46.2603 63.8359 46.6269 64.1617 46.7445 64.6031C47.035 65.6856 47.4604 66.7296 48.0138 67.7035C48.2386 68.0994 48.2075 68.5933 47.9308 68.9541L46.2914 71.1297C47.2079 72.3558 48.2801 73.4453 49.4906 74.3702L51.6384 72.7096C51.9947 72.4329 52.4823 72.4013 52.8731 72.6255C53.8381 73.1861 54.8688 73.617 55.934 73.9112C56.3698 74.0303 56.6914 74.4017 56.7502 74.8536L57.1099 77.5686C58.611 77.7788 60.1328 77.7788 61.6338 77.5686L61.9935 74.8536C62.0523 74.4017 62.374 74.0304 62.8098 73.9112C63.875 73.617 64.9057 73.1861 65.8706 72.6255C66.2614 72.3978 66.7491 72.4329 67.1053 72.7096L69.2566 74.3702C70.4671 73.4418 71.5427 72.3558 72.4558 71.1297L70.8164 68.9541C70.5432 68.5933 70.5121 68.0993 70.7334 67.7035C71.2868 66.7296 71.7122 65.6856 72.0027 64.5996C72.1203 64.1582 72.4869 63.8324 72.9331 63.7729L75.6101 63.4085C75.8176 61.8881 75.8176 60.3466 75.6101 58.8262L75.6135 58.8297ZM68.385 61.1209C68.385 66.1586 64.3384 70.2542 59.368 70.2542C54.3945 70.2542 50.351 66.1554 50.351 61.1209C50.351 56.0832 54.3976 51.9875 59.368 51.9875C64.3415 51.9875 68.385 56.0863 68.385 61.1209ZM66.1473 61.1209C66.1473 57.3338 63.1071 54.2545 59.3684 54.2545C55.6296 54.2545 52.5895 57.3339 52.5895 61.1209C52.5895 64.9079 55.6297 67.9872 59.3684 67.9872C63.1072 67.9872 66.1473 64.9078 66.1473 61.1209ZM32.4221 69.0487H20.9083C19.4591 69.0487 18.2797 67.8541 18.2797 66.3862V58.9208L18.8296 59.6214C19.2135 60.1119 19.9191 60.1924 20.4032 59.8001C20.8874 59.4112 20.967 58.6965 20.5796 58.2061L18.034 54.9726C17.8231 54.7028 17.498 54.5452 17.159 54.5452C16.8201 54.5452 16.495 54.7028 16.284 54.9726L13.7384 58.2061C13.3545 58.6966 13.4341 59.4077 13.9148 59.8001C14.399 60.1889 15.1011 60.1084 15.4885 59.6214L16.0384 58.9208V66.3862C16.0384 69.1047 18.2207 71.3153 20.9047 71.3153H32.4185C33.0376 71.3153 33.5391 70.8073 33.5391 70.1802C33.5391 69.5532 33.0376 69.0452 32.4185 69.0452L32.4221 69.0487ZM44.1467 17.6942H55.6605C57.1096 17.6942 58.2891 18.8888 58.2891 20.3567V27.8221L57.7392 27.1215C57.3553 26.631 56.6497 26.5505 56.1655 26.9428C55.6813 27.3317 55.6018 28.0464 55.9892 28.5368L58.5347 31.7703C58.7457 32.04 59.0708 32.1977 59.4097 32.1977C59.7487 32.1977 60.0738 32.04 60.2848 31.7703L62.8303 28.5368C63.2142 28.0463 63.1347 27.3352 62.6539 26.9428C62.1697 26.554 61.4676 26.6345 61.0803 27.1215L60.5304 27.8221V20.3567C60.5304 17.6382 58.348 15.4276 55.6641 15.4276H44.1502C43.5311 15.4276 43.0297 15.9356 43.0297 16.5626C43.0297 17.1897 43.5312 17.6977 44.1502 17.6977L44.1467 17.6942Z" fill="#388DCB"/>
</svg>
