<svg width="90" height="90" viewBox="0 0 90 90" fill="none" xmlns="http://www.w3.org/2000/svg">
<g clip-path="url(#clip0_153_2466)">
<path d="M89.49 76.36C89.49 83.9 83.37 90.01 75.82 90C68.28 90 62.17 83.88 62.18 76.33C62.18 68.79 68.3 62.69 75.83 62.69C83.36 62.69 89.48 68.8 89.48 76.34C89.48 76.34 89.48 76.34 89.48 76.35L89.49 76.36ZM53.77 8.07C53.14 7.37 52.06 7.31 51.36 7.95C50.66 8.58 50.6 9.66 51.24 10.36C51.27 10.39 51.29 10.42 51.32 10.44L54.8 14.06H27.83V7.92L14.16 0L0.51001 7.89V23.66L14.16 31.55L27.81 23.66V17.52H54.78L51.3 21.14C50.64 21.82 50.66 22.9 51.34 23.56C51.66 23.87 52.08 24.04 52.53 24.04C53 24.04 53.44 23.85 53.76 23.51L61.17 15.82L53.76 8.08L53.77 8.07ZM52.92 68.35C52.25 67.69 51.16 67.7 50.5 68.38C49.87 69.02 49.85 70.05 50.45 70.72L53.94 74.35H26.95V70.74C26.95 66.79 23.74 63.58 19.79 63.58H8.54001C4.59001 63.58 1.38001 66.79 1.38001 70.74V81.99C1.38001 85.94 4.59001 89.15 8.54001 89.15H19.79C23.74 89.15 26.95 85.94 26.95 81.99V77.75H53.94L50.45 81.38C49.82 82.08 49.88 83.16 50.58 83.79C51.25 84.39 52.27 84.37 52.92 83.74L60.35 76.06L52.92 68.36V68.35ZM88.02 27.96V3.58H63.65V25.71L30.12 59.24L30.03 54.21C30 53.27 29.22 52.53 28.28 52.53C27.34 52.54 26.58 53.31 26.59 54.26C26.59 54.27 26.59 54.28 26.59 54.29L26.8 64.96L37.47 65.17C38.41 65.17 39.18 64.4 39.18 63.46C39.18 62.52 38.42 61.76 37.47 61.75L32.44 61.65L66.19 27.95H88.02V27.96Z" fill="#444445"/>
</g>
<defs>
<clipPath id="clip0_153_2466">
<rect width="90" height="90" fill="white"/>
</clipPath>
</defs>
</svg>
