<svg width="120" height="120" viewBox="0 0 120 120" fill="none" xmlns="http://www.w3.org/2000/svg">
<g clip-path="url(#clip0_184_4138)">
<path d="M24.9465 19.0933C23.3998 19.0933 21.8932 19.8533 20.9998 21.2533L0.733173 52.8666C-0.653493 55.0533 -0.0268267 57.9466 2.14651 59.3466L11.2798 65.1999C12.0532 65.6933 12.9332 65.9333 13.7998 65.9333C15.1865 65.9333 16.5598 65.3199 17.4798 64.1599L21.7332 69.4933L19.5998 72.8133C17.4932 76.1066 18.4532 80.4933 21.7465 82.6133C22.8798 83.3466 24.1998 83.7333 25.5465 83.7333C25.8265 83.7333 26.0932 83.7199 26.3732 83.6799C26.2798 84.4666 26.3198 85.2533 26.4932 86.0266C27.2132 89.3333 30.1332 91.5999 33.3865 91.5999C33.8265 91.5999 34.2665 91.5599 34.7198 91.4799C34.7198 92.0133 34.7732 92.5333 34.8798 93.0533C35.5865 96.3066 38.4532 98.6266 41.7732 98.6266C42.2932 98.6266 42.8132 98.5733 43.3065 98.4666C44.5865 98.1866 45.7598 97.5599 46.7065 96.6533C47.8265 99.2399 50.3732 100.92 53.1865 100.92C53.7065 100.92 54.2265 100.867 54.7198 100.747C56.5598 100.347 58.1598 99.2399 59.1732 97.6533L59.9732 96.4133L64.9465 99.6133C66.0798 100.347 67.4132 100.733 68.7598 100.733C69.2798 100.733 69.7865 100.68 70.2932 100.573C73.8932 99.7999 76.2932 96.3999 75.8398 92.7466C76.0798 92.7733 76.3332 92.7866 76.5732 92.7866C78.9865 92.7866 81.2398 91.5599 82.5598 89.5066C83.3598 88.2666 83.7465 86.7999 83.6665 85.3199C84.2798 85.4799 84.8932 85.5599 85.5065 85.5599C88.6532 85.5599 91.5198 83.4533 92.3732 80.2799C92.5598 79.5733 92.6398 78.8399 92.5998 78.1066C93.2132 78.2666 93.8265 78.3466 94.4265 78.3466C97.5732 78.3466 100.453 76.2399 101.307 73.0533C101.933 70.6933 101.307 68.1733 99.6265 66.3733L101.6 64.7466C102.44 66.1733 103.987 67.0533 105.64 67.0533C106.387 67.0533 107.12 66.8799 107.787 66.5333L117.427 61.5466C119.72 60.3599 120.627 57.5333 119.44 55.2266L102.187 21.8799C101.347 20.2666 99.7198 19.3466 98.0132 19.3466C97.2932 19.3466 96.5598 19.5199 95.8665 19.8666L86.2265 24.8533C83.9598 26.0266 83.0532 28.7999 84.1865 31.0799L82.9998 31.4799C82.1732 31.7599 81.3065 31.9066 80.4265 31.9066C80.3332 31.9066 80.2265 31.9066 80.1332 31.9066L68.7732 31.5866C68.6265 31.5866 68.4665 31.5866 68.3198 31.5866C65.4932 31.5866 62.7598 32.6399 60.6532 34.5599L56.0265 38.6666L38.0932 31.9466C39.3198 29.7866 38.6398 27.0399 36.5465 25.6933L27.4132 19.8399C26.6265 19.3466 25.7598 19.1066 24.8932 19.1066L24.9465 19.0933ZM13.8265 62.5999C13.5732 62.5999 13.3198 62.5333 13.0932 62.3866L3.95984 56.5333C3.33317 56.1333 3.14651 55.2933 3.54651 54.6666L23.7998 23.0533C23.9998 22.7466 24.3065 22.5333 24.6532 22.4666C24.7465 22.4399 24.8532 22.4399 24.9465 22.4399C25.1998 22.4399 25.4532 22.5066 25.6665 22.6533L34.7998 28.5066C35.4265 28.9066 35.6132 29.7466 35.2132 30.3733L34.2398 31.9066L16.2132 60.0399C15.9865 60.2399 15.8265 60.5066 15.7332 60.7866L14.9732 61.9866C14.7198 62.3866 14.2798 62.6133 13.8398 62.6133L13.8265 62.5999ZM105.68 63.7199C105.187 63.7199 104.72 63.4533 104.48 62.9866L103.653 61.3733L88.3065 31.6933C88.3065 31.6933 88.2798 31.5733 88.2532 31.5066C88.1732 31.2799 88.0532 31.0666 87.8932 30.8933L87.2398 29.6266C86.8932 28.9599 87.1598 28.1466 87.8132 27.7999L97.4532 22.8133C97.6398 22.7199 97.8532 22.6666 98.0665 22.6666C98.2132 22.6666 98.3465 22.6933 98.4798 22.7333C98.8265 22.8399 99.1065 23.0799 99.2665 23.3999L116.52 56.7466C116.68 57.0666 116.72 57.4399 116.6 57.7733C116.493 58.1199 116.253 58.3999 115.933 58.5733L106.293 63.5599C106.093 63.6666 105.88 63.7066 105.68 63.7066V63.7199ZM80.4665 35.2399C81.6932 35.2399 82.9198 35.0399 84.0798 34.6399L85.7732 34.0799L100.067 61.7066L96.8932 64.3199L79.5998 53.2399C78.6798 52.6399 77.6665 52.1733 76.6132 51.8666C73.6265 50.9866 71.6398 48.3466 71.1465 44.6399C71.0398 43.7999 70.3198 43.1866 69.4932 43.1866C69.4265 43.1866 69.3465 43.1866 69.2798 43.1999C69.0932 43.2266 68.9198 43.2799 68.7465 43.3599C65.0665 45.8133 61.6398 48.6266 58.5198 51.7466C57.5198 52.5333 56.3198 52.9199 55.1465 52.9199C53.5198 52.9199 51.9198 52.1999 50.8398 50.8266C50.3465 50.1999 49.9998 49.4666 49.8132 48.6933L57.5332 41.8266L57.5865 41.7866L62.9332 37.0266C64.4265 35.6533 66.3598 34.8933 68.3732 34.8933C68.4932 34.8933 68.6132 34.8933 68.7332 34.8933L80.0932 35.2133C80.2265 35.2133 80.3465 35.2133 80.4798 35.2133L80.4665 35.2399ZM23.6398 66.5199L19.3998 61.2133L36.3065 34.8266L53.2532 41.1733L46.9065 46.8266C46.5198 47.1733 46.3065 47.6933 46.3465 48.2133C46.7332 52.7999 50.5732 56.2799 55.1065 56.2799C55.3465 56.2799 55.5998 56.2799 55.8532 56.2533C57.5998 56.1066 59.2798 55.4399 60.6398 54.3333C60.6798 54.3066 60.7065 54.2799 60.7465 54.2399C63.1732 51.9066 65.7198 49.7066 68.3865 47.6666C69.3732 51.2266 72.1198 54.0266 75.6532 55.0799C76.4132 55.2933 77.1332 55.6266 77.7865 56.0533L96.4932 68.0399C98.2532 69.1599 98.7598 71.5066 97.6398 73.2666C96.9198 74.3866 95.6932 74.9999 94.4532 74.9999C93.7598 74.9999 93.0532 74.8133 92.4132 74.3999L89.3732 72.4533L79.4132 66.0666C79.1198 65.8533 78.7732 65.7466 78.4398 65.7466C77.9198 65.7466 77.4132 65.9866 77.0932 66.4399C76.5465 67.1866 76.7198 68.2266 77.4665 68.7733C77.5198 68.8133 77.5732 68.8399 77.6265 68.8799L87.5732 75.2533C89.3198 76.4133 89.7865 78.7599 88.6398 80.5066C87.9198 81.5999 86.7065 82.1999 85.4798 82.1999C84.7998 82.1999 84.1065 82.0133 83.4798 81.6266L80.4398 79.6799L73.7065 75.2666C73.4265 75.0933 73.1198 74.9999 72.8132 74.9999C72.2665 74.9999 71.7198 75.2666 71.4132 75.7733C70.9198 76.5333 71.1332 77.5466 71.8932 78.0533L78.6398 82.4666C80.3998 83.5866 80.9198 85.9333 79.7865 87.6933C79.0665 88.8266 77.8398 89.4399 76.5998 89.4399C75.9065 89.4399 75.1998 89.2533 74.5732 88.8399L72.6798 87.6266L68.9998 85.2666C68.7198 85.0933 68.4132 84.9999 68.1065 84.9999C67.5598 84.9999 67.0132 85.2799 66.6932 85.7733C66.1998 86.5466 66.4265 87.5866 67.2132 88.0799L70.8932 90.4399C72.6532 91.5733 73.1598 93.9066 72.0398 95.6666C71.3198 96.7999 70.0932 97.4133 68.8532 97.4133C68.1598 97.4133 67.4532 97.2133 66.8132 96.8133L61.8398 93.6133L63.9732 90.2933C66.0932 86.9999 65.1332 82.6133 61.8398 80.4933C60.7198 79.7733 59.4132 79.3866 58.0798 79.3733C60.1865 76.0666 59.2265 71.6799 55.9198 69.5733C54.7598 68.8266 53.4265 68.4533 52.0932 68.4533C50.9732 68.4533 49.8532 68.7199 48.8265 69.2533C47.9465 66.1333 45.1065 64.0799 42.0132 64.0799C41.3732 64.0799 40.7332 64.1599 40.0932 64.3466C39.0932 64.6266 38.1732 65.1199 37.3865 65.7999C36.8398 64.4533 35.8798 63.3066 34.6532 62.5333C33.4665 61.7733 32.1465 61.4133 30.8265 61.4133C28.4932 61.4133 26.2132 62.5599 24.8532 64.6666L23.6665 66.5199H23.6398ZM25.5732 80.3866C24.8798 80.3866 24.1732 80.1999 23.5465 79.7999C21.7998 78.6799 21.2932 76.3466 22.4132 74.5999L27.6265 66.4666C28.3465 65.3733 29.5465 64.7866 30.7598 64.7866C31.4798 64.7866 32.1998 64.9866 32.8398 65.4133C34.5198 66.5333 35.0265 68.7866 33.9598 70.5199L28.7465 78.6533C28.0265 79.7733 26.8132 80.3866 25.5732 80.3866ZM33.4265 88.2666C32.7332 88.2666 32.0265 88.0799 31.3998 87.6666C29.6532 86.5466 29.1465 84.2133 30.2665 82.4666L38.8132 69.1333C39.3465 68.2933 40.1998 67.7066 41.1732 67.4933C41.4398 67.4399 41.7198 67.3999 41.9865 67.3999C44.0665 67.3999 45.7465 69.1066 45.7332 71.1866C45.7332 71.8933 45.5198 72.5999 45.1332 73.1999L42.2265 77.7333L36.5865 86.5333C35.8665 87.6533 34.6532 88.2666 33.4132 88.2666H33.4265ZM41.8132 95.2933C40.0932 95.2933 38.5332 94.1066 38.1465 92.3466C37.9332 91.3733 38.1198 90.3466 38.6532 89.5066L39.3998 88.3466L44.5598 80.2799L48.8932 73.5066C49.4265 72.6666 50.2798 72.0799 51.2532 71.8666C51.5198 71.8133 51.7998 71.7733 52.0665 71.7733C54.1465 71.7866 55.8132 73.4799 55.7998 75.5599C55.7998 76.2666 55.5865 76.9599 55.2132 77.5599L51.1732 83.8666L47.2532 89.9999L44.9732 93.5599C44.4398 94.3999 43.5865 94.9866 42.6132 95.1999C42.3465 95.2666 42.0665 95.2933 41.7998 95.2933H41.8132ZM53.2532 97.5733C51.5198 97.5733 49.9598 96.3733 49.5865 94.6133C49.3732 93.6399 49.5598 92.6266 50.0932 91.7999L54.0265 85.6666L54.8265 84.4266C55.5465 83.2799 56.7598 82.6533 58.0132 82.6533C58.6932 82.6533 59.3865 82.8399 59.9998 83.2266C61.7598 84.3333 62.2932 86.6533 61.1998 88.4133C61.1865 88.4399 61.1732 88.4533 61.1598 88.4799L56.4398 95.8533C55.9065 96.6933 55.0532 97.2799 54.0798 97.4933C53.8132 97.5599 53.5465 97.5866 53.2798 97.5866L53.2532 97.5733Z" fill="#F79839"/>
</g>
<defs>
<clipPath id="clip0_184_4138">
<rect width="120" height="120" fill="white"/>
</clipPath>
</defs>
</svg>
