<svg width="80" height="80" viewBox="0 0 80 80" fill="none" xmlns="http://www.w3.org/2000/svg">
<path fill-rule="evenodd" clip-rule="evenodd" d="M59.9079 57.696L64.8425 52.8889L61.5635 49.5387C61.3711 49.3403 61.2526 49.0822 61.2276 48.8073C61.2027 48.5324 61.2727 48.2572 61.4262 48.0276C62.938 45.7876 64.0112 43.2825 64.5894 40.6444C64.6485 40.3723 64.7999 40.1289 65.0181 39.9553C65.2363 39.7817 65.5079 39.6885 65.787 39.6916L70.481 39.7467L70.562 32.864L65.9607 32.8098C65.6661 32.8286 65.3747 32.7397 65.141 32.5598C64.9073 32.3798 64.7474 32.1211 64.691 31.832C64.1798 29.2016 63.1795 26.6898 61.7417 24.4267C61.5725 24.1916 61.4936 23.9037 61.5193 23.6154C61.545 23.3272 61.6735 23.0577 61.8816 22.856L65.2345 19.5884L60.4158 14.6667L57.0593 17.9378C56.8602 18.1294 56.6015 18.2474 56.3261 18.2723C56.0506 18.2972 55.7748 18.2275 55.5445 18.0747C53.299 16.5669 50.7879 15.4962 48.1436 14.9191C47.8708 14.8603 47.6268 14.7092 47.4529 14.4915C47.279 14.2738 47.1859 14.0028 47.1893 13.7244L47.2445 9.04178L40.3443 8.96089L40.29 13.5511C40.309 13.8451 40.22 14.1358 40.0396 14.369C39.8592 14.6022 39.5997 14.7617 39.3098 14.8178C36.6733 15.329 34.1559 16.3278 31.8875 17.7627C31.6518 17.9314 31.3633 18.0101 31.0743 17.9845C30.7854 17.9589 30.5152 17.8307 30.3131 17.6231L27.0385 14.2782L22.1031 19.0862L25.3821 22.4347C25.5743 22.6331 25.6928 22.8911 25.7179 23.166C25.743 23.4408 25.6732 23.7159 25.5202 23.9458C24.0091 26.186 22.9361 28.691 22.3579 31.3289C22.2989 31.601 22.1475 31.8444 21.9293 32.0179C21.711 32.1914 21.4394 32.2843 21.1603 32.2809L16.4664 32.2258L16.3782 39.1111L20.9795 39.1653C21.2741 39.1465 21.5655 39.2354 21.7992 39.4154C22.0328 39.5953 22.1928 39.854 22.2492 40.1431C22.7614 42.7735 23.763 45.285 25.2021 47.5476C25.3707 47.7829 25.4493 48.0708 25.4235 48.3589C25.3976 48.6471 25.2691 48.9165 25.0613 49.1182L21.7083 52.3849L26.5279 57.3084L29.8854 54.0373C30.0841 53.8453 30.3428 53.7269 30.6184 53.7018C30.8939 53.6768 31.1698 53.7465 31.4001 53.8996C33.6456 55.4076 36.1567 56.4786 38.8011 57.056C39.074 57.1146 39.3182 57.2656 39.4923 57.4834C39.6664 57.7011 39.7596 57.9722 39.7563 58.2507L39.7037 62.9333L46.6039 63.0151L46.6573 58.4249C46.6385 58.131 46.7276 57.8403 46.908 57.6072C47.0883 57.374 47.3477 57.2144 47.6375 57.1582C48.9647 56.9003 50.2648 56.5187 51.5206 56.0187C52.7537 55.5268 53.9382 54.9215 55.0589 54.2107C55.2948 54.0424 55.5834 53.964 55.8722 53.9898C56.1611 54.0156 56.4311 54.1438 56.6334 54.3511L59.9079 57.696ZM51.8209 27.8702C53.9771 30.0765 55.167 33.0465 55.1291 36.1275C55.0911 39.2086 53.8285 42.1486 51.6186 44.3013L51.6044 44.3111C49.9534 45.9161 47.8626 46.9968 45.5961 47.4167C43.3297 47.8365 40.9893 47.5766 38.8708 46.6699C36.7524 45.7631 34.951 44.2502 33.6942 42.3223C32.4375 40.3944 31.7819 38.1382 31.8103 35.8387C31.8387 33.5392 32.5498 31.2997 33.8537 29.4033C35.1577 27.5069 36.9959 26.0387 39.1361 25.1842C41.2763 24.3298 43.6224 24.1275 45.8778 24.6029C48.1332 25.0783 50.1967 26.21 51.8075 27.8551L51.8164 27.8693L51.8209 27.8702ZM53.537 26.1582L53.5459 26.1724C56.1519 28.8361 57.5919 32.4225 57.5496 36.1443C57.5073 39.8661 55.9863 43.4191 53.3205 46.0231L53.3062 46.0329C51.3144 47.9727 48.7908 49.28 46.0544 49.7894C43.318 50.2988 40.4916 49.9875 37.9325 48.8949C35.3734 47.8023 33.1964 45.9774 31.6767 43.6508C30.1569 41.3243 29.3627 38.6005 29.3943 35.8237C29.4259 33.047 30.282 30.3419 31.8543 28.0504C33.4266 25.7588 35.6446 23.9837 38.228 22.9494C40.8113 21.9151 43.644 21.6679 46.3681 22.2392C49.0922 22.8105 51.5854 24.1746 53.5326 26.1591L53.537 26.1582ZM54.7845 57.1627V74.1484C54.7788 75.698 54.1595 77.1826 53.0615 78.2787C51.9634 79.3747 50.4757 79.9934 48.9223 80H12.8648C11.3111 79.9939 9.82276 79.3754 8.72419 78.2793C7.62562 77.1833 7.00587 75.6984 7 74.1484V5.85156C7.00042 5.0832 7.15304 4.3225 7.44908 3.61317C7.74512 2.90384 8.17875 2.25985 8.72505 1.71822C9.26787 1.17426 9.91295 0.742495 10.6233 0.447653C11.3337 0.15281 12.0954 0.000687213 12.8648 0H48.9223C50.4768 0.00491717 51.9663 0.622885 53.0658 1.7191C54.1654 2.81531 54.7857 4.30081 54.7916 5.85156V14.8062C55.2211 15.035 55.6446 15.2773 56.0622 15.5333L59.5907 12.0889C59.8212 11.8656 60.1312 11.7428 60.4524 11.7473C60.7737 11.7518 61.08 11.8833 61.3042 12.1129L67.8177 18.7653C67.9287 18.8791 68.0161 19.0136 68.075 19.1611C68.1339 19.3086 68.1631 19.4662 68.1608 19.625C68.1586 19.7837 68.125 19.9405 68.062 20.0863C67.999 20.2321 67.9078 20.3641 67.7936 20.4747L64.2633 23.9147C65.4463 25.9382 66.3239 28.1247 66.8678 30.4036L71.8041 30.4613C71.9631 30.4632 72.12 30.4963 72.2661 30.5586C72.4122 30.621 72.5446 30.7115 72.6556 30.8249C72.7666 30.9383 72.8542 31.0725 72.9133 31.2196C72.9724 31.3668 73.0018 31.5241 72.9999 31.6827L72.8903 40.9778C72.8885 41.1363 72.8553 41.2929 72.7928 41.4386C72.7302 41.5844 72.6395 41.7164 72.5259 41.8272C72.4122 41.938 72.2777 42.0253 72.1302 42.0842C71.9827 42.1432 71.8249 42.1725 71.666 42.1707L66.7315 42.1156C66.1321 44.3806 65.2013 46.5452 63.9693 48.5396L67.4211 52.0649C67.6449 52.2949 67.7681 52.604 67.7636 52.9245C67.7591 53.245 67.6273 53.5506 67.3971 53.7742L60.7286 60.272C60.498 60.4952 60.1881 60.6181 59.8669 60.6136C59.5456 60.6091 59.2393 60.4776 59.0151 60.248L55.5668 56.7262C55.3078 56.8767 55.0476 57.0222 54.7845 57.1627ZM52.3573 69.6471H9.43075V74.1484C9.43192 75.0568 9.79405 75.9277 10.4377 76.5702C11.0815 77.2126 11.9542 77.5744 12.8648 77.576H48.9223C49.833 77.5744 50.7059 77.2127 51.3497 76.5702C51.9936 75.9278 52.3559 75.0569 52.3573 74.1484V69.6471ZM28.997 74.6667H32.7901C32.9525 74.6711 33.114 74.6429 33.2653 74.584C33.4165 74.5251 33.5544 74.4365 33.6707 74.3235C33.7871 74.2105 33.8796 74.0755 33.9427 73.9262C34.0059 73.777 34.0384 73.6166 34.0384 73.4547C34.0384 73.2927 34.0059 73.1323 33.9427 72.9831C33.8796 72.8339 33.7871 72.6988 33.6707 72.5858C33.5544 72.4728 33.4165 72.3843 33.2653 72.3253C33.114 72.2664 32.9525 72.2383 32.7901 72.2427H28.997C28.6805 72.2512 28.3798 72.3827 28.1589 72.609C27.9381 72.8354 27.8145 73.1388 27.8145 73.4547C27.8145 73.7705 27.9381 74.0739 28.1589 74.3003C28.3798 74.5267 28.6805 74.6581 28.997 74.6667ZM25.4623 2.424C25.7375 3.65624 26.4256 4.75808 27.413 5.54775C28.4003 6.33743 29.6281 6.76776 30.8936 6.76776C32.1591 6.76776 33.3868 6.33743 34.3742 5.54775C35.3616 4.75808 36.0496 3.65624 36.3249 2.424H25.4623ZM38.7957 2.424H48.9223C49.833 2.42565 50.7059 2.78732 51.3497 3.42978C51.9936 4.07224 52.3559 4.9431 52.3573 5.85156V13.6827C51.4629 13.3283 50.5479 13.0279 49.6173 12.7831L49.6753 7.85867C49.6772 7.70014 49.6477 7.5428 49.5886 7.39563C49.5296 7.24846 49.442 7.11433 49.331 7.00092C49.2199 6.88751 49.0876 6.79702 48.9415 6.73464C48.7954 6.67225 48.6384 6.63919 48.4795 6.63733L39.1593 6.528C39.0003 6.526 38.8425 6.55528 38.6948 6.61416C38.5472 6.67304 38.4127 6.76037 38.2989 6.87116C38.1851 6.98194 38.0943 7.11401 38.0317 7.25981C37.9691 7.40561 37.9359 7.56229 37.9341 7.72089L37.8762 12.6453C35.5919 13.1881 33.4001 14.0635 31.3716 15.2436L27.9233 11.7218C27.8124 11.6079 27.6801 11.5169 27.534 11.454C27.3878 11.3912 27.2307 11.3577 27.0716 11.3554C26.9124 11.3532 26.7544 11.3823 26.6065 11.441C26.4587 11.4998 26.3239 11.587 26.2098 11.6978L19.5413 18.1956C19.3111 18.4192 19.1793 18.7249 19.1749 19.0454C19.1706 19.366 19.294 19.6751 19.5182 19.9049L22.9691 23.4293C21.7418 25.4249 20.8153 27.5897 20.2194 29.8542L15.2822 29.7964C15.1233 29.7946 14.9656 29.8239 14.818 29.8829C14.6705 29.9418 14.536 30.0291 14.4224 30.1399C14.3087 30.2507 14.218 30.3827 14.1554 30.5285C14.0929 30.6742 14.0598 30.8308 14.0579 30.9893L13.9483 40.2871C13.9438 40.6071 14.0668 40.9158 14.2904 41.1453C14.5139 41.3749 14.8197 41.5064 15.1405 41.5111L20.0768 41.5689C20.6217 43.8474 21.4992 46.0338 22.6813 48.0578L19.1502 51.4942C18.92 51.7178 18.7882 52.0234 18.7837 52.3439C18.7792 52.6644 18.9023 52.9736 19.1261 53.2036L25.6396 59.856C25.8637 60.0857 26.1702 60.2172 26.4915 60.2215C26.8128 60.2259 27.1227 60.1027 27.353 59.8791L30.886 56.4364C32.8865 57.6629 35.0568 58.5895 37.3273 59.1867L37.2694 64.1111C37.2674 64.2696 37.2967 64.427 37.3557 64.5742C37.4146 64.7214 37.5021 64.8556 37.613 64.9691C37.724 65.0826 37.8563 65.1732 38.0023 65.2357C38.1484 65.2982 38.3053 65.3314 38.4643 65.3333L47.7854 65.4427C47.9443 65.4445 48.102 65.4152 48.2495 65.3562C48.3971 65.2973 48.5315 65.21 48.6452 65.0992C48.7589 64.9884 48.8496 64.8564 48.9121 64.7107C48.9747 64.5649 49.0078 64.4083 49.0097 64.2498L49.0676 59.3253C50.1875 59.0581 51.2869 58.7115 52.3573 58.288V67.2222H9.43075V5.85156C9.43112 5.40182 9.5205 4.95658 9.69374 4.54138C9.86698 4.12618 10.1207 3.74918 10.4403 3.432C10.7585 3.11319 11.1368 2.86025 11.5533 2.68773C11.9699 2.5152 12.4165 2.42648 12.8675 2.42667H22.9923C23.2823 4.30989 24.2385 6.02732 25.6879 7.2681C27.1373 8.50888 28.9841 9.19101 30.894 9.19101C32.8039 9.19101 34.6507 8.50888 36.1001 7.2681C37.5495 6.02732 38.5058 4.30989 38.7957 2.42667V2.424ZM43.3658 31.7022C43.4534 31.3974 43.6574 31.1391 43.9338 30.9827C44.2103 30.8263 44.5372 30.7844 44.8444 30.8659C45.1515 30.9474 45.4143 31.1458 45.5764 31.4185C45.7385 31.6913 45.7868 32.0165 45.711 32.3244L43.5779 40.2667C43.487 40.5675 43.2824 40.8212 43.0073 40.9743C42.7323 41.1274 42.4083 41.1679 42.104 41.0871C41.7996 41.0063 41.5386 40.8106 41.3762 40.5414C41.2138 40.2722 41.1627 39.9506 41.2336 39.6444L43.3658 31.7049V31.7022ZM39.5656 38.2729C39.6826 38.3845 39.7762 38.5183 39.8407 38.6664C39.9052 38.8145 39.9394 38.974 39.9412 39.1355C39.9431 39.297 39.9126 39.4573 39.8515 39.6069C39.7904 39.7565 39.7 39.8924 39.5856 40.0066C39.4711 40.1208 39.3349 40.2111 39.185 40.2721C39.0351 40.3331 38.8745 40.3636 38.7126 40.3619C38.5507 40.3601 38.3908 40.3261 38.2423 40.2618C38.0937 40.1975 37.9596 40.1043 37.8477 39.9876L34.6943 36.8418C34.4666 36.6144 34.3387 36.3062 34.3387 35.9849C34.3387 35.6635 34.4666 35.3553 34.6943 35.128L37.8477 31.9822C38.0755 31.755 38.3844 31.6273 38.7066 31.6273C39.0288 31.6273 39.3378 31.755 39.5656 31.9822C39.7934 32.2095 39.9214 32.5177 39.9214 32.8391C39.9214 33.1605 39.7934 33.4687 39.5656 33.696L37.272 35.9849L39.5656 38.2729ZM49.0997 39.9876C48.9877 40.1043 48.8536 40.1975 48.7051 40.2618C48.5565 40.3261 48.3966 40.3601 48.2347 40.3619C48.0728 40.3636 47.9122 40.3331 47.7623 40.2721C47.6124 40.2111 47.4762 40.1208 47.3618 40.0066C47.2473 39.8924 47.1569 39.7565 47.0958 39.6069C47.0347 39.4573 47.0042 39.297 47.0061 39.1355C47.0079 38.974 47.0421 38.8145 47.1066 38.6664C47.1712 38.5183 47.2647 38.3845 47.3817 38.2729L49.6762 35.9849L47.3782 33.696C47.1504 33.4687 47.0224 33.1605 47.0224 32.8391C47.0224 32.5177 47.1504 32.2095 47.3782 31.9822C47.606 31.755 47.915 31.6273 48.2371 31.6273C48.5593 31.6273 48.8683 31.755 49.0961 31.9822L52.2495 35.128C52.3624 35.2405 52.452 35.374 52.5131 35.5211C52.5743 35.6681 52.6057 35.8257 52.6057 35.9849C52.6057 36.1441 52.5743 36.3017 52.5131 36.4487C52.452 36.5958 52.3624 36.7293 52.2495 36.8418L49.0997 39.9876Z" fill="#B1B1B1"/>
</svg>
