<svg width="90" height="90" viewBox="0 0 90 90" fill="none" xmlns="http://www.w3.org/2000/svg">
<path d="M46.1699 33.6399V44.9399C46.1699 45.5799 45.65 46.1099 45 46.1099C44.3499 46.1099 43.83 45.5899 43.83 44.9399V33.6399C43.83 32.9999 44.3499 32.4699 45 32.4699C45.65 32.4699 46.1699 32.9899 46.1699 33.6399ZM38.34 21.8299C38.34 18.1599 41.3299 15.1699 45 15.1699C48.67 15.1699 51.66 18.1599 51.66 21.8299C51.66 25.4999 48.67 28.4899 45 28.4899C41.3299 28.4899 38.34 25.4999 38.34 21.8299ZM40.68 21.8299C40.68 24.2099 42.6199 26.1499 45 26.1499C47.38 26.1499 49.32 24.2099 49.32 21.8299C49.32 19.4499 47.38 17.5099 45 17.5099C42.6199 17.5099 40.68 19.4499 40.68 21.8299ZM37.5499 57.4199C36.91 57.4199 36.38 57.9399 36.38 58.5899V64.5899C36.38 65.2299 36.8999 65.7599 37.5499 65.7599C38.2 65.7599 38.72 65.2399 38.72 64.5899V58.5799C38.72 57.9399 38.2 57.4099 37.5499 57.4099V57.4199ZM52.4599 57.4199C51.82 57.4199 51.29 57.9399 51.29 58.5899V64.5899C51.29 65.2299 51.8099 65.7599 52.4599 65.7599C53.11 65.7599 53.63 65.2399 53.63 64.5899V58.5799C53.63 57.9399 53.11 57.4099 52.4599 57.4099V57.4199ZM45.0099 58.8299C44.3699 58.8299 43.84 59.3499 43.84 59.9999V68.2599C43.84 68.8999 44.3599 69.4299 45.0099 69.4299C45.66 69.4299 46.18 68.9099 46.18 68.2599V59.9999C46.18 59.3499 45.66 58.8299 45.0099 58.8299ZM73.91 43.3699C73.91 53.5499 68.52 62.9999 59.7999 68.1999V69.9699C59.7999 71.1499 59.31 72.2199 58.52 72.9799C59.31 73.7399 59.7999 74.8099 59.7999 75.9899V79.1999C59.7999 81.4999 57.93 83.3699 55.63 83.3699H52.72C52.15 87.1199 48.91 89.9999 45.0099 89.9999C41.1099 89.9999 37.8699 87.1199 37.2999 83.3699H34.3899C32.09 83.3699 30.22 81.4999 30.22 79.1999V75.9899C30.22 74.8099 30.7099 73.7399 31.5 72.9799C30.7099 72.2199 30.22 71.1499 30.22 69.9699V68.1999C21.5 62.9899 16.11 53.5399 16.11 43.3699C16.11 37.3299 17.95 31.5499 21.44 26.6399C24.72 22.0199 29.2199 18.5099 34.4599 16.4599C35.7999 10.8199 40.8599 2.21994 44.4199 0.159941C44.7799 -0.0500586 45.2299 -0.0500586 45.59 0.159941C49.15 2.21994 54.2099 10.8199 55.5499 16.4599C60.7899 18.5099 65.29 22.0199 68.57 26.6399C72.06 31.5499 73.9 37.3299 73.9 43.3699H73.91ZM55.8899 45.3899L61.13 50.7599V37.2499L55.8899 31.8799V45.3899ZM39.8699 9.44994H50.1399C48.5099 6.50994 46.59 3.81994 45.0099 2.57994C43.4299 3.81994 41.5 6.50994 39.88 9.44994H39.8699ZM36.4599 47.7699C36.4599 48.5499 37.1 49.1899 37.88 49.1899H52.1399C52.9199 49.1899 53.56 48.5499 53.56 47.7699V18.9199C53.56 17.2199 52.6499 14.5299 51.3499 11.7899H38.68C37.38 14.5299 36.47 17.2099 36.47 18.9199V47.7699H36.4599ZM50.38 51.5299H39.6399L37.93 53.7199H52.09L50.38 51.5299ZM34.1199 31.8799L28.88 37.2499V50.7599L34.1199 45.3899V31.8799ZM50.34 83.3699H39.68C40.22 85.8199 42.3999 87.6599 45.0099 87.6599C47.6199 87.6599 49.7999 85.8199 50.34 83.3699ZM57.47 75.9899C57.47 74.9799 56.65 74.1499 55.63 74.1499H34.3899C33.3799 74.1499 32.5499 74.9699 32.5499 75.9899V79.1999C32.5499 80.2099 33.3699 81.0399 34.3899 81.0399H55.63C56.6399 81.0399 57.47 80.2199 57.47 79.1999V75.9899ZM71.58 43.3699C71.58 32.8999 65.35 23.3899 55.9 19.1299V28.5299L63.1399 35.9499C63.3499 36.1699 63.47 36.4599 63.47 36.7699V53.6299C63.47 54.0999 63.18 54.5299 62.74 54.7099C62.6 54.7699 62.45 54.7999 62.2999 54.7999C61.9899 54.7999 61.6899 54.6799 61.4599 54.4499L55.79 48.6399C55.4799 49.9499 54.49 50.9899 53.22 51.3699L55.4 54.1699C55.68 54.5199 55.7199 54.9999 55.5299 55.3999C55.34 55.7999 54.93 56.0599 54.4799 56.0599H35.5299C35.0799 56.0599 34.68 55.8099 34.4799 55.3999C34.2799 54.9999 34.33 54.5199 34.61 54.1699L36.79 51.3699C35.52 50.9899 34.53 49.9399 34.22 48.6399L28.5499 54.4499C28.33 54.6799 28.0199 54.7999 27.7099 54.7999C27.5599 54.7999 27.41 54.7699 27.27 54.7099C26.83 54.5299 26.54 54.0999 26.54 53.6299V36.7699C26.54 36.4699 26.66 36.1699 26.87 35.9499L34.11 28.5299V19.1299C24.66 23.3799 18.43 32.8899 18.43 43.3699C18.43 52.9299 23.61 61.7999 31.94 66.5099C32.31 66.7199 32.5299 67.1099 32.5299 67.5299V69.9799C32.5299 70.9899 33.3499 71.8199 34.3699 71.8199H55.61C56.6199 71.8199 57.45 70.9999 57.45 69.9799V67.5299C57.45 67.1099 57.68 66.7199 58.04 66.5099C66.38 61.7999 71.55 52.9299 71.55 43.3699H71.58ZM72.21 14.5199L66.3899 20.3399C65.93 20.7999 65.93 21.5399 66.3899 21.9899C66.6199 22.2199 66.92 22.3299 67.22 22.3299C67.52 22.3299 67.82 22.2199 68.05 21.9899L73.87 16.1699C74.33 15.7099 74.33 14.9699 73.87 14.5199C73.41 14.0599 72.67 14.0599 72.22 14.5199H72.21ZM84.64 42.1999H76.41C75.77 42.1999 75.24 42.7199 75.24 43.3699C75.24 44.0199 75.76 44.5399 76.41 44.5399H84.64C85.28 44.5399 85.81 44.0199 85.81 43.3699C85.81 42.7199 85.29 42.1999 84.64 42.1999ZM68.04 64.7499C67.58 64.2899 66.84 64.2899 66.3899 64.7499C65.93 65.2099 65.93 65.9499 66.3899 66.3999L72.21 72.2199C72.44 72.4499 72.74 72.5599 73.04 72.5599C73.34 72.5599 73.64 72.4499 73.87 72.2199C74.33 71.7599 74.33 71.0199 73.87 70.5699L68.05 64.7499H68.04ZM21.9799 64.7499L16.16 70.5699C15.7 71.0299 15.7 71.7699 16.16 72.2199C16.39 72.4499 16.69 72.5599 16.99 72.5599C17.29 72.5599 17.59 72.4499 17.82 72.2199L23.6399 66.3999C24.0999 65.9399 24.0999 65.1999 23.6399 64.7499C23.18 64.2899 22.44 64.2899 21.99 64.7499H21.9799ZM13.61 42.1999H5.36995C4.72995 42.1999 4.19995 42.7199 4.19995 43.3699C4.19995 44.0199 4.71995 44.5399 5.36995 44.5399H13.6C14.24 44.5399 14.77 44.0199 14.77 43.3699C14.77 42.7199 14.25 42.1999 13.6 42.1999H13.61ZM21.9799 21.9899C22.2099 22.2199 22.51 22.3299 22.81 22.3299C23.11 22.3299 23.41 22.2199 23.6399 21.9899C24.0999 21.5299 24.0999 20.7899 23.6399 20.3399L17.82 14.5199C17.36 14.0599 16.62 14.0599 16.17 14.5199C15.71 14.9799 15.71 15.7199 16.17 16.1699L21.99 21.9899H21.9799Z" fill="#F79839"/>
</svg>
