<svg width="190" height="48" viewBox="0 0 190 48" fill="none" xmlns="http://www.w3.org/2000/svg">
<g clip-path="url(#clip0_114_184)">
<path d="M44.5861 23.7762C41.3352 29.6364 37.1364 32.3636 32.0528 31.958C31.3174 31.8956 30.6362 31.5473 30.1566 30.9885C29.677 30.4297 29.4375 29.7053 29.49 28.972C29.5115 28.6673 29.5876 28.3689 29.7147 28.0909C31.8211 23.1958 32.762 18.8182 32.5233 14.8042C32.2705 10.0699 30.4169 5.74825 26.7938 1.69231C34.8614 6.20979 42.901 13.8951 44.5861 23.7762ZM37.3189 27.021C38.7097 25.9683 39.8828 24.6575 40.7735 23.1608C39.9303 19.7943 38.3395 16.659 36.1183 13.986C36.1183 14.1748 36.1183 14.3706 36.1604 14.5594C36.3851 18.8462 35.5144 23.4126 33.5063 28.3706C34.8855 28.278 36.2089 27.7926 37.3189 26.972" fill="#F79839"/>
<path d="M15.6086 46.4965C14.0295 44.0679 13.0658 41.2939 12.8001 38.4126C12.6545 35.9861 13.3403 33.5822 14.745 31.5944C15.1699 30.9928 15.8156 30.5821 16.5424 30.4513C17.2691 30.3204 18.0183 30.4798 18.6279 30.8951C18.8749 31.07 19.0929 31.2824 19.2738 31.5245C26.197 40.8182 33.9416 44.2168 43.7014 42.2517C35.7251 46.8881 25.0244 49.979 15.6157 46.4895M28.3455 44.0839C24.3293 42.1608 20.6219 39.021 17.1674 34.6294L17.0831 34.8042C16.5736 35.8719 16.3441 37.0508 16.4161 38.2308C16.5861 40.0964 17.156 41.9039 18.0872 43.5315C20.1193 44.122 22.2265 44.4164 24.3433 44.4056C25.681 44.3983 27.0163 44.2931 28.3385 44.0909L28.3455 44.0839Z" fill="#F79839"/>
<path d="M10.3566 10.1469C17.0621 10.028 21.5347 12.2867 23.6973 16.8741C24.0064 17.54 24.0405 18.3001 23.7923 18.9907C23.5441 19.6813 23.0334 20.2472 22.3703 20.5664C22.0939 20.6987 21.7973 20.7838 21.4926 20.8182C9.9915 22.1469 3.15262 27.1259 0 36.5035C0 30.3846 1.18662 17.6993 10.3566 10.1469ZM19.8917 17.4196C19.4544 16.7391 18.9007 16.1403 18.2557 15.6503C16.711 14.5105 14.5273 13.8741 11.7398 13.7692C9.21933 16.1758 7.27751 19.1186 6.0595 22.3776C9.74809 19.8415 14.3588 18.1865 19.8917 17.4126" fill="#F79839"/>
<path d="M31.2454 17.7692C31.8211 11.2448 29.49 5.46154 23.3884 0C20.1879 1.45285 17.2452 3.41303 14.6748 5.8042C17.4773 5.90364 20.1944 6.79023 22.5127 8.36165C24.8309 9.93307 26.6558 12.1253 27.7768 14.6853C29.0459 15.5905 30.2093 16.6343 31.2454 17.7972" fill="#388DCB"/>
<path d="M29.9745 23.8182C30.4367 22.3825 30.7911 20.9146 31.0347 19.4266C30.3211 18.5376 29.5292 17.7138 28.6685 16.965C29.344 19.1549 29.6222 21.4472 29.49 23.7343C29.484 23.7655 29.4843 23.7977 29.491 23.8288C29.4976 23.86 29.5105 23.8895 29.5289 23.9156C29.5472 23.9417 29.5706 23.9638 29.5977 23.9807C29.6248 23.9976 29.6551 24.0089 29.6866 24.014C29.7184 24.0201 29.7512 24.0198 29.7829 24.0132C29.8146 24.0067 29.8447 23.9939 29.8715 23.9757C29.8982 23.9575 29.9211 23.9342 29.9388 23.9072C29.9565 23.8802 29.9686 23.8499 29.9745 23.8182Z" fill="#469A45"/>
<path d="M26.548 37.2448C27.7636 37.0708 28.9586 36.7756 30.1149 36.3636C27.6374 35.8328 25.2819 34.8436 23.1707 33.4476C23.1161 33.4146 23.0509 33.4036 22.9884 33.4165C22.9259 33.4295 22.8706 33.4656 22.8337 33.5175C22.8018 33.5598 22.7845 33.6114 22.7845 33.6643C22.7845 33.7173 22.8018 33.7688 22.8337 33.8112C23.9631 35.0621 25.2014 36.2111 26.534 37.2448" fill="#469A45"/>
<path d="M46.201 29.6923C44.8333 31.8645 42.9266 33.6491 40.6649 34.874C38.4032 36.0988 35.8628 36.7227 33.2886 36.6853C31.705 37.4872 30.025 38.0841 28.2894 38.4615C33.6959 41.8881 39.7554 42.3566 46.9032 40.0979C47.236 36.6144 46.9989 33.1002 46.201 29.6923Z" fill="#388DCB"/>
<path d="M17.8625 22.7133C16.2996 23.0371 14.7661 23.4885 13.2775 24.0629C12.8559 25.1165 12.527 26.2045 12.2945 27.3147C13.9599 25.6202 15.899 24.2161 18.031 23.1608C18.0593 23.1468 18.0845 23.1272 18.1051 23.1034C18.1257 23.0795 18.1414 23.0518 18.1512 23.0219C18.161 22.992 18.1647 22.9604 18.1622 22.9291C18.1596 22.8977 18.1509 22.8671 18.1364 22.8392C18.1133 22.7891 18.073 22.7489 18.0228 22.7258C17.9726 22.7027 17.9157 22.6983 17.8625 22.7133Z" fill="#469A45"/>
<path d="M0.287872 40.3427C3.14397 42.3705 6.3122 43.9223 9.66851 44.9371C8.38827 42.5127 7.79669 39.7864 7.95755 37.0519C8.1184 34.3174 9.02558 31.6784 10.5813 29.4196C10.7691 27.8353 11.1293 26.276 11.6556 24.7692C5.61714 27.6923 1.94493 32.7622 0.287872 40.3427Z" fill="#388DCB"/>
<path d="M73.2687 6.41259C74.2989 7.01962 75.1193 7.9245 75.6208 9.00699C76.1453 10.1594 76.4067 11.4132 76.3862 12.6783C76.4099 13.9585 76.108 15.2239 75.5085 16.3566C74.9392 17.4174 74.0766 18.2935 73.0229 18.8811C71.8343 19.5133 70.5011 19.8266 69.1541 19.7902H64.3093V25.7413H59.2328V5.46154H69.2664C70.6629 5.4066 72.0476 5.73564 73.2687 6.41259ZM70.3969 14.986C70.9613 14.3416 71.2533 13.5045 71.2114 12.6503C71.2642 11.7754 70.9974 10.911 70.4601 10.2168C70.1642 9.90765 69.8024 9.66862 69.4014 9.51733C69.0003 9.36604 68.5703 9.30634 68.143 9.34266H64.3093V15.8601H67.9885C68.4293 15.8932 68.8721 15.8324 69.2873 15.6816C69.7026 15.5309 70.0809 15.2938 70.3969 14.986Z" fill="white"/>
<path d="M83.1548 25.7273H78.0783V5.44755H83.1548V25.7273Z" fill="white"/>
<path d="M87.8241 7.59441C89.542 5.95804 92.058 5.13986 95.3721 5.13986C98.6863 5.13986 101.205 5.95804 102.927 7.59441C104.654 9.22611 105.518 11.9184 105.518 15.6713C105.518 19.2191 104.654 21.8322 102.927 23.5105C101.2 25.1888 98.6816 26.0326 95.3721 26.042C92.0627 26.042 89.5467 25.1981 87.8241 23.5105C86.1015 21.8228 85.2379 19.2098 85.2332 15.6713C85.2332 11.9138 86.0968 9.22145 87.8241 7.59441ZM99.1286 20.2797C99.915 19.3077 100.308 17.7762 100.308 15.6993C100.308 13.4336 99.915 11.8322 99.1286 10.8951C98.3422 9.96503 97.0924 9.4965 95.3932 9.4965C93.694 9.4965 92.374 9.96503 91.5876 10.8951C90.8012 11.8252 90.408 13.4336 90.408 15.6993C90.408 17.7972 90.8012 19.3077 91.5876 20.2797C92.374 21.2517 93.6449 21.7413 95.3932 21.7413C97.1415 21.7413 98.3422 21.2308 99.1286 20.2797Z" fill="white"/>
<path d="M105.771 9.34266V5.46154H122.798V9.34266H116.823V25.7273H111.746V9.34266H105.771Z" fill="white"/>
<path d="M129.089 25.7273H124.006V5.44755H129.089V25.7273Z" fill="white"/>
<path d="M142.409 21.7133C143.398 21.7128 144.385 21.6239 145.358 21.4476C146.323 21.2709 147.265 20.9871 148.166 20.6014V25.0909C147.249 25.3944 146.31 25.6281 145.358 25.7902C144.243 25.9676 143.116 26.0519 141.987 26.042C138.435 26.042 135.727 25.1305 133.864 23.3077C132.001 21.4849 131.064 18.9604 131.055 15.7343C131.055 12.3636 131.965 9.75525 133.786 7.90909C135.607 6.06294 138.327 5.13054 141.945 5.11189C143.071 5.10157 144.194 5.19757 145.302 5.3986C146.252 5.58373 147.191 5.82898 148.11 6.13287V10.5874C146.28 9.82437 144.315 9.43441 142.331 9.44056C140.22 9.44056 138.676 9.94406 137.697 10.951C136.714 11.958 136.23 13.5455 136.23 15.7063C136.23 17.8671 136.742 19.2727 137.775 20.2378C138.807 21.2028 140.365 21.7133 142.409 21.7133Z" fill="white"/>
<path d="M152.084 7.59441C153.807 5.95804 156.325 5.13986 159.639 5.13986C162.953 5.13986 165.472 5.95804 167.194 7.59441C168.912 9.22611 169.774 11.9184 169.778 15.6713C169.778 19.2191 168.917 21.8322 167.194 23.5105C165.472 25.1888 162.953 26.0326 159.639 26.042C156.325 26.042 153.807 25.1981 152.084 23.5105C150.362 21.8228 149.498 19.2098 149.493 15.6713C149.493 11.9138 150.357 9.22145 152.084 7.59441ZM163.389 20.2797C164.175 19.3077 164.575 17.7762 164.575 15.6993C164.575 13.4336 164.175 11.8322 163.389 10.8951C162.602 9.95804 161.36 9.4965 159.653 9.4965C157.947 9.4965 156.641 9.96503 155.855 10.8951C155.068 11.8252 154.668 13.4336 154.668 15.6993C154.668 17.7972 155.061 19.3077 155.855 20.2797C156.648 21.2517 157.905 21.7413 159.653 21.7413C161.402 21.7413 162.602 21.2308 163.389 20.2797Z" fill="white"/>
<path d="M184.888 17.5804V5.46154H190V25.7413H185.591L176.94 13.6364V25.7273H171.864V5.44755H176.238L184.888 17.5804Z" fill="white"/>
<path d="M59.8998 42.3357V33.993H60.8337V42.3357H59.8998Z" fill="white"/>
<path d="M63.3614 42.3496L63.3965 34.007H65.1378L68.3186 41.5524H68.5713V34.028H69.5122V42.3776H67.7779L64.5551 34.8322H64.3234V42.3566L63.3614 42.3496Z" fill="white"/>
<path d="M74.378 34.7413C73.1633 34.7413 72.5595 35.1888 72.5525 36.0979C72.5283 36.2922 72.5535 36.4895 72.6259 36.6716C72.6983 36.8537 72.8155 37.0147 72.9667 37.1399C73.4969 37.4187 74.068 37.6123 74.6589 37.7133C75.3104 37.8204 75.9281 38.0765 76.4634 38.4615C76.6567 38.6553 76.8043 38.8895 76.8954 39.1471C76.9865 39.4048 77.0188 39.6794 76.99 39.951C76.99 41.6667 76.096 42.5198 74.3078 42.5105C73.564 42.4964 72.8223 42.4263 72.0891 42.3007L71.6537 42.2378L71.759 41.4615C72.5864 41.5919 73.4214 41.669 74.2587 41.6923C75.4523 41.6923 76.0562 41.1399 76.0632 40.021C76.0788 39.8396 76.0513 39.6571 75.983 39.4883C75.9147 39.3194 75.8075 39.1689 75.67 39.049C75.2201 38.7839 74.7208 38.6126 74.2025 38.5455C73.4827 38.4373 72.7965 38.1696 72.1944 37.7622C71.981 37.5561 71.818 37.3038 71.7182 37.0249C71.6184 36.746 71.5843 36.448 71.6186 36.1538C71.6186 34.6573 72.522 33.9114 74.3289 33.9161C75.0344 33.934 75.738 33.997 76.4353 34.1049L76.8496 34.1678L76.7583 34.965C75.9695 34.8481 75.1749 34.7734 74.378 34.7413Z" fill="white"/>
<path d="M82.1508 39.6154H80.0443V42.4126H79.1105V34.0699H82.1718C82.5387 34.0465 82.9065 34.0962 83.2538 34.2163C83.601 34.3364 83.9207 34.5244 84.194 34.7692C84.6691 35.3341 84.9013 36.0629 84.84 36.7972C84.8353 38.6853 83.9389 39.6247 82.1508 39.6154ZM80.0443 38.7902H82.1508C83.3023 38.7902 83.8851 38.1259 83.8921 36.7762C83.9284 36.2766 83.7839 35.7804 83.4848 35.3776C83.31 35.2122 83.102 35.0855 82.8745 35.0059C82.647 34.9264 82.4051 34.8957 82.1648 34.9161H80.0584L80.0443 38.7902Z" fill="white"/>
<path d="M86.7428 42.4476V34.1049H87.6696V42.4476H86.7428Z" fill="white"/>
<path d="M91.1523 39.2657V42.4615H90.2184L90.2535 34.1189H93.35C94.0728 34.0697 94.7876 34.2946 95.3511 34.7482C95.5922 35.0024 95.7763 35.3046 95.8913 35.6349C96.0063 35.9652 96.0495 36.3161 96.0181 36.6643C96.0181 37.951 95.4985 38.7622 94.4664 39.0839L96.0673 42.4755H95.0351L93.5325 39.2727L91.1523 39.2657ZM93.3289 38.4615C93.5649 38.4909 93.8046 38.4656 94.0292 38.3876C94.2538 38.3096 94.4573 38.181 94.6238 38.0118C94.7903 37.8426 94.9153 37.6374 94.9891 37.4121C95.0629 37.1869 95.0834 36.9477 95.0492 36.7133C95.0847 36.4792 95.0652 36.2402 94.9924 36.0149C94.9195 35.7896 94.7952 35.5841 94.6292 35.4147C94.4632 35.2453 94.26 35.1166 94.0356 35.0385C93.8112 34.9605 93.5717 34.9354 93.3359 34.965H91.1663V38.4615H93.3289Z" fill="white"/>
<path d="M98.1456 42.4965L98.1807 34.1469H103.278V34.965H99.1075V37.8462H102.541V38.6573H99.1005V41.6713H103.271V42.5175L98.1456 42.4965Z" fill="white"/>
<path d="M111.549 39.7413H109.443V42.5385H108.509V34.1888H111.571C111.937 34.1654 112.305 34.2151 112.653 34.3352C113 34.4553 113.319 34.6433 113.593 34.8881C114.068 35.453 114.3 36.1817 114.239 36.9161C114.234 38.8089 113.338 39.7506 111.549 39.7413ZM109.443 38.9091H111.549C112.701 38.9091 113.284 38.2448 113.291 36.8951C113.327 36.3954 113.183 35.8993 112.884 35.4965C112.708 35.3325 112.5 35.2068 112.272 35.1273C112.045 35.0478 111.804 35.0164 111.564 35.035H109.457L109.443 38.9091Z" fill="white"/>
<path d="M117.082 39.3776V42.5734H116.156V34.2308H119.259C119.981 34.1783 120.696 34.4007 121.26 34.8531C121.5 35.1081 121.682 35.4106 121.796 35.7409C121.91 36.0711 121.952 36.4216 121.92 36.7692C121.92 38.0559 121.401 38.8671 120.375 39.1888L121.976 42.5804H120.944L119.442 39.3776H117.082ZM119.266 38.5664C119.502 38.5961 119.741 38.571 119.966 38.4929C120.19 38.4149 120.393 38.2861 120.559 38.1167C120.725 37.9473 120.85 37.7419 120.923 37.5166C120.995 37.2913 121.015 37.0522 120.979 36.8182C121.019 36.5828 121.002 36.3415 120.931 36.1137C120.86 35.8859 120.736 35.6779 120.569 35.5064C120.403 35.335 120.198 35.2049 119.972 35.1267C119.745 35.0485 119.504 35.0242 119.266 35.0559H117.103V38.5524L119.266 38.5664Z" fill="white"/>
<path d="M130.381 38.5105C130.472 39.6328 130.227 40.7568 129.679 41.7413C129.194 42.4406 128.331 42.7343 127.074 42.7343C125.817 42.7343 124.967 42.3846 124.483 41.6993C123.934 40.7148 123.69 39.5908 123.781 38.4685C123.706 37.332 123.962 36.198 124.518 35.2028C124.823 34.8265 125.219 34.5326 125.668 34.3481C126.117 34.1636 126.605 34.0944 127.088 34.1469C128.324 34.1469 129.194 34.5105 129.672 35.2168C130.224 36.2229 130.47 37.3673 130.381 38.5105ZM124.715 38.4615C124.646 39.3665 124.81 40.274 125.192 41.0979C125.433 41.3481 125.723 41.5472 126.043 41.6832C126.363 41.8193 126.708 41.8894 127.056 41.8894C127.405 41.8894 127.749 41.8193 128.07 41.6832C128.39 41.5472 128.679 41.3481 128.921 41.0979C129.306 40.2798 129.475 39.3771 129.412 38.4755C129.48 37.5518 129.314 36.6258 128.928 35.7832C128.698 35.5182 128.413 35.3057 128.093 35.16C127.773 35.0143 127.426 34.9389 127.074 34.9389C126.722 34.9389 126.375 35.0143 126.055 35.16C125.735 35.3057 125.45 35.5182 125.22 35.7832C124.831 36.6202 124.657 37.5408 124.715 38.4615Z" fill="white"/>
<path d="M135.549 42.6573H132.558L132.593 34.2657H135.584C136.161 34.204 136.742 34.3336 137.237 34.6346C137.732 34.9356 138.114 35.391 138.322 35.9301C138.602 36.7101 138.73 37.5359 138.701 38.3636C138.701 40.4615 138.161 41.7832 137.108 42.3287C136.623 42.5642 136.088 42.6771 135.549 42.6573ZM137.704 38.3776C137.704 36.7762 137.36 35.7762 136.644 35.3776C136.314 35.2093 135.947 35.1252 135.577 35.1329H133.52V41.8392H135.577C136.991 41.8392 137.7 40.6807 137.704 38.3636V38.3776Z" fill="white"/>
<path d="M141.735 40.1608C141.735 41.3706 142.381 41.972 143.687 41.979C144.23 42.0177 144.77 41.8696 145.217 41.5594C145.405 41.3807 145.549 41.1619 145.639 40.9197C145.729 40.6774 145.762 40.4179 145.737 40.1608V34.3217H146.657V40.1329C146.69 40.5042 146.641 40.8783 146.511 41.228C146.381 41.5776 146.174 41.894 145.905 42.1538C145.269 42.6112 144.49 42.8292 143.708 42.7692C142.927 42.8254 142.151 42.5995 141.524 42.1329C141.265 41.8669 141.067 41.5474 140.946 41.1969C140.825 40.8464 140.782 40.4735 140.822 40.1049V34.2937H141.756L141.735 40.1608Z" fill="white"/>
<path d="M154.191 42.5874C153.454 42.7429 152.704 42.8249 151.951 42.8322C151.403 42.8506 150.858 42.7553 150.35 42.5524C149.952 42.3807 149.621 42.0834 149.409 41.7063C149.178 41.2993 149.023 40.8538 148.953 40.3916C148.859 39.7785 148.819 39.1585 148.833 38.5385C148.827 37.9158 148.872 37.2937 148.967 36.6783C149.042 36.2118 149.199 35.7621 149.43 35.3496C149.644 34.9717 149.977 34.6744 150.378 34.5035C150.879 34.3123 151.414 34.2243 151.951 34.2448C152.716 34.2648 153.478 34.3585 154.226 34.5245L154.184 35.3077C153.466 35.1707 152.738 35.0935 152.007 35.0769C151.671 35.0332 151.33 35.0833 151.021 35.2216C150.713 35.3599 150.449 35.581 150.259 35.8601C149.91 36.713 149.759 37.6333 149.816 38.5524C149.809 39.0639 149.832 39.5753 149.887 40.0839C149.93 40.4483 150.034 40.8029 150.195 41.1329C150.331 41.4469 150.582 41.6971 150.898 41.8322C151.31 41.9866 151.75 42.0556 152.19 42.035C152.867 42.0313 153.542 41.961 154.205 41.8252L154.191 42.5874Z" fill="white"/>
<path d="M155.363 35.2168V34.3846H161.416V35.2168H158.86V42.7273H157.912V35.2168H155.363Z" fill="white"/>
<path d="M163.052 42.7552L163.087 34.4126H164.021V42.7552H163.052Z" fill="white"/>
<path d="M171.323 34.4476H172.292L170.066 42.7832H167.96L165.804 34.4336H166.773L168.676 41.958H169.378L171.323 34.4476Z" fill="white"/>
<path d="M174.047 42.8042L174.082 34.4545H175.016V42.7972L174.047 42.8042Z" fill="white"/>
<path d="M176.666 35.3007V34.4685H182.719V35.3007H180.163L180.128 42.8112H179.208V35.3007H176.666Z" fill="white"/>
<path d="M187.065 42.8531H186.131V39.3566L183.477 34.5105H184.53L186.595 38.4266L188.701 34.5245H189.754L187.072 39.3497L187.065 42.8531Z" fill="white"/>
</g>
<defs>
<clipPath id="clip0_114_184">
<rect width="190" height="48" fill="white"/>
</clipPath>
</defs>
</svg>
