<svg width="90" height="90" viewBox="0 0 90 90" fill="none" xmlns="http://www.w3.org/2000/svg">
<g clip-path="url(#clip0_153_2082)">
<path d="M89.8099 81.2L68.0099 43.45C67.7599 43.01 67.2899 42.75 66.7899 42.75C66.2899 42.75 65.8199 43.02 65.5699 43.45L60.3999 52.4L46.4499 28.2299V22.32H61.3499C61.8699 22.32 62.3499 22.03 62.5899 21.57C62.8299 21.11 62.7999 20.55 62.5099 20.12L59.1899 15.28L62.5099 10.44C62.8099 10.01 62.8399 9.44995 62.5899 8.98995C62.3399 8.52995 61.8699 8.23995 61.3499 8.23995H46.4499V8.10995C46.4499 7.32995 45.8199 6.69995 45.0399 6.69995C44.2599 6.69995 43.6299 7.32995 43.6299 8.10995V28.24L29.6299 52.49L24.4099 43.45C24.1599 43.01 23.6899 42.75 23.1899 42.75C22.6899 42.75 22.2199 43.02 21.9699 43.45L0.189941 81.2C-0.0600586 81.64 -0.0600586 82.17 0.189941 82.61C0.439941 83.05 0.909941 83.31 1.40994 83.31H88.5999C89.0999 83.31 89.5699 83.04 89.8199 82.61C90.0699 82.17 90.0699 81.64 89.8199 81.2H89.8099ZM58.6799 11.05L56.3299 14.48C55.9999 14.96 55.9999 15.59 56.3299 16.07L58.6799 19.5H46.4499V11.05H58.6799ZM3.83994 80.49L23.1999 46.9599L34.8599 67.15C35.1199 67.6 35.5899 67.8499 36.0799 67.8499C36.3199 67.8499 36.5599 67.79 36.7799 67.66C37.4499 67.27 37.6799 66.4099 37.2899 65.7399L31.2599 55.29L45.0499 31.41L65.6299 67.05C65.8899 67.5 66.3599 67.75 66.8499 67.75C67.0899 67.75 67.3299 67.6899 67.5499 67.5599C68.2199 67.1699 68.4499 66.3099 68.0599 65.6399L62.0299 55.1899L66.7899 46.9399L86.1499 80.47H3.83994V80.49Z" fill="#469A45"/>
</g>
<defs>
<clipPath id="clip0_153_2082">
<rect width="90" height="90" fill="white"/>
</clipPath>
</defs>
</svg>
