<svg width="80" height="80" viewBox="0 0 80 80" fill="none" xmlns="http://www.w3.org/2000/svg">
<path d="M52.0395 41.8859H27.9603C26.9209 41.8859 26.0791 41.044 26.0791 40.0047C26.0791 32.3294 32.3246 26.0845 39.9993 26.0845C47.6739 26.0845 53.9195 32.33 53.9195 40.0047C53.9195 41.044 53.0789 41.8859 52.0395 41.8859ZM30.0155 38.1235H49.9843C49.1002 33.4157 44.9615 29.8462 39.9999 29.8462C35.0429 29.8462 30.8996 33.4157 30.0155 38.1235Z" fill="#469A45"/>
<path d="M70.099 41.8858H9.90096C8.86161 41.8858 8.01978 41.044 8.01978 40.0047V36.0024C8.01978 35.1183 8.63116 34.3564 9.49186 34.1636L15.0178 32.9362C15.568 30.9939 16.3488 29.1268 17.3505 27.3585L14.303 22.5567C13.828 21.8137 13.9362 20.8401 14.5617 20.2194L20.2193 14.557C20.8401 13.9315 21.8136 13.8234 22.5567 14.2984L27.3537 17.3458C29.0985 16.3488 30.9703 15.5681 32.9361 15.0132L34.1636 9.48722C34.3517 8.62658 35.1183 8.01514 35.9977 8.01514H44.0021C44.8863 8.01514 45.6482 8.62652 45.8409 9.48722L47.0684 15.0132C49.0342 15.5681 50.9013 16.3488 52.6508 17.3458L57.4478 14.2984C58.1862 13.8234 59.1597 13.9268 59.7852 14.557L65.4475 20.2194C66.0683 20.8402 66.1765 21.8137 65.7062 22.5567L62.6587 27.3585C63.6605 29.1269 64.4412 30.9939 64.9914 32.9362L70.5173 34.1636C71.378 34.3565 71.9894 35.1183 71.9894 36.0024V40.0047C71.9894 41.044 71.1476 41.8858 70.1082 41.8858H70.099ZM11.7816 38.1235H68.2172V37.5121L63.0392 36.3646C62.3338 36.2047 61.7788 35.6591 61.6142 34.9536C61.0687 32.6163 60.1374 30.3917 58.8441 28.3365C58.4585 27.7205 58.4585 26.9397 58.8488 26.3236L61.7129 21.8182L58.1857 18.2909L53.6802 21.155C53.0688 21.5501 52.2787 21.5454 51.6579 21.155C49.6497 19.8758 47.4253 18.9447 45.0502 18.3897C44.3448 18.2251 43.7945 17.6748 43.6393 16.9647L42.4918 11.7867H37.5067L36.3591 16.9647C36.2039 17.6701 35.6537 18.2251 34.9482 18.3897C32.5732 18.9446 30.3487 19.8711 28.3405 21.155C27.7244 21.5501 26.939 21.5501 26.3182 21.155L21.8128 18.2909L18.2855 21.8182L21.1496 26.3236C21.54 26.935 21.54 27.7205 21.1543 28.3365C19.861 30.387 18.9298 32.6163 18.3842 34.9536C18.2196 35.6591 17.6647 36.2047 16.9592 36.3646L11.7813 37.5121L11.7816 38.1235Z" fill="#469A45"/>
<path d="M40.0001 59.56C38.9607 59.56 38.1189 58.7182 38.1189 57.6789V40.0047C38.1189 38.9654 38.9607 38.1235 40.0001 38.1235C41.0394 38.1235 41.8813 38.9654 41.8813 40.0047V57.6789C41.8813 58.7182 41.0394 59.56 40.0001 59.56Z" fill="#469A45"/>
<path d="M40.0001 71.9851C35.6451 71.9851 32.0991 68.4391 32.0991 64.0841C32.0991 59.7244 35.6451 56.1831 40.0001 56.1831C44.3598 56.1831 47.9011 59.7291 47.9011 64.0841C47.9011 68.4438 44.3551 71.9851 40.0001 71.9851ZM40.0001 59.9455C37.7192 59.9455 35.8615 61.8032 35.8615 64.0841C35.8615 66.365 37.7192 68.2227 40.0001 68.2227C42.281 68.2227 44.1387 66.365 44.1387 64.0841C44.1387 61.8032 42.281 59.9455 40.0001 59.9455Z" fill="#469A45"/>
<path d="M15.9207 62.9551C15.4363 62.9551 14.9519 62.7717 14.5851 62.4002C13.8561 61.6618 13.8608 60.4719 14.5945 59.7384L22.4108 51.9832V40.0047C22.4108 38.9654 23.2526 38.1235 24.292 38.1235C25.3314 38.1235 26.1732 38.9654 26.1732 40.0047V52.7643C26.1732 53.2675 25.971 53.7472 25.6182 54.1L17.247 62.4101C16.8801 62.7722 16.4005 62.9551 15.9207 62.9551Z" fill="#469A45"/>
<path d="M9.90099 71.9851C5.54602 71.9851 2 68.4391 2 64.0841C2 59.7244 5.54602 56.1831 9.90099 56.1831C14.256 56.1831 17.802 59.7291 17.802 64.0841C17.802 68.4438 14.256 71.9851 9.90099 71.9851ZM9.90099 59.9455C7.62009 59.9455 5.76238 61.8032 5.76238 64.0841C5.76238 66.365 7.62009 68.2227 9.90099 68.2227C12.1819 68.2227 14.0396 66.365 14.0396 64.0841C14.0396 61.8032 12.1819 59.9455 9.90099 59.9455Z" fill="#469A45"/>
<path d="M64.0792 62.9551C63.5994 62.9551 63.1197 62.7717 62.7529 62.4096L54.3816 54.0995C54.0242 53.7468 53.8267 53.2671 53.8267 52.7638V40.0042C53.8267 38.9649 54.6685 38.123 55.7078 38.123C56.7472 38.123 57.589 38.9649 57.589 40.0042V51.9827L65.4054 59.7379C66.1438 60.4668 66.1485 61.6614 65.4148 62.3997C65.048 62.7712 64.5636 62.9551 64.0792 62.9551Z" fill="#469A45"/>
<path d="M70.099 71.9851C65.7393 71.9851 62.198 68.4391 62.198 64.0841C62.198 59.7244 65.744 56.1831 70.099 56.1831C74.4586 56.1831 78 59.7291 78 64.0841C78 68.4438 74.454 71.9851 70.099 71.9851ZM70.099 59.9455C67.8181 59.9455 65.9604 61.8032 65.9604 64.0841C65.9604 66.365 67.8181 68.2227 70.099 68.2227C72.3799 68.2227 74.2376 66.365 74.2376 64.0841C74.2376 61.8032 72.3799 59.9455 70.099 59.9455Z" fill="#469A45"/>
</svg>
