<svg width="878" height="675" viewBox="0 0 878 675" fill="none" xmlns="http://www.w3.org/2000/svg">
<g opacity="0.4">
<path d="M485.222 576.893L545.981 599.878L486.093 622.864L425.914 600.168L485.222 576.893Z" fill="#388DCB"/>
<path d="M554.257 602.997L615.017 625.983L555.056 648.896L494.876 626.273L554.257 602.997Z" fill="#469A45"/>
<path d="M484.64 629.1L545.4 652.013L485.512 674.999L425.333 652.303L484.64 629.1Z" fill="#444445"/>
<path d="M416.259 602.997L477.019 625.983L417.057 648.896L356.878 626.273L416.259 602.997Z" fill="#F79839"/>
</g>
<path d="M395.817 616.615C395.722 614.621 395.468 611.401 394.8 607.406L396.949 607.05C397.631 611.147 397.893 614.461 397.987 616.513L395.809 616.615H395.817ZM392.811 598.349C392.006 595.383 391.04 592.418 389.944 589.525L391.977 588.756C393.102 591.707 394.089 594.745 394.909 597.776L392.811 598.349ZM386.234 581.026C384.87 578.264 383.345 575.537 381.719 572.927L383.57 571.781C385.233 574.457 386.786 577.241 388.187 580.069L386.234 581.034V581.026ZM376.449 565.292C374.591 562.855 372.58 560.47 370.475 558.193L372.079 556.721C374.228 559.048 376.282 561.485 378.184 563.979L376.456 565.299L376.449 565.292ZM363.876 551.667C361.611 549.622 359.208 547.628 356.726 545.743L358.047 544.01C360.573 545.931 363.027 547.969 365.335 550.057L363.876 551.667ZM349.096 540.392C346.512 538.651 343.957 536.722 341.518 534.678L342.919 533.01C345.3 535.011 347.79 536.882 350.316 538.586L349.096 540.392ZM334.563 528.231C332.4 526.02 330.273 523.642 328.248 521.169L329.932 519.791C331.914 522.22 333.997 524.548 336.117 526.709L334.563 528.231ZM322.549 513.599C320.792 511.061 319.079 508.378 317.453 505.623L319.326 504.521C320.93 507.232 322.615 509.872 324.335 512.366L322.542 513.606L322.549 513.599ZM312.916 497.327C311.522 494.572 310.172 491.693 308.895 488.771L310.891 487.901C312.147 490.787 313.482 493.622 314.854 496.341L312.909 497.32L312.916 497.327ZM305.359 480.012C304.278 477.119 303.24 474.11 302.274 471.086L304.35 470.426C305.309 473.421 306.332 476.386 307.399 479.251L305.359 480.012ZM299.61 462.022C298.797 458.998 298.035 455.909 297.36 452.85L299.487 452.378C300.162 455.409 300.909 458.462 301.715 461.457L299.61 462.022ZM295.523 443.583C294.514 437.789 294.187 434.316 294.173 434.171L296.343 433.968C296.343 433.968 296.677 437.514 297.672 443.213L295.523 443.583Z" fill="#FFC285"/>
<path d="M469.847 647.787C468.946 645.322 467.799 642.501 466.333 639.166L468.329 638.295C469.81 641.667 470.972 644.531 471.886 647.04L469.839 647.787H469.847ZM462.457 630.66C461.244 628.093 459.88 625.258 458.392 622.227L460.344 621.27C461.84 624.315 463.212 627.158 464.424 629.739L462.457 630.667V630.66ZM454.225 613.83C452.889 611.176 451.481 608.392 449.985 605.47L451.924 604.484C453.419 607.413 454.834 610.205 456.17 612.859L454.225 613.838V613.83ZM445.695 597.131C444.316 594.463 442.871 591.686 441.376 588.807L443.307 587.799C444.81 590.678 446.247 593.455 447.633 596.131L445.695 597.131ZM437.028 580.49C435.598 577.72 434.262 574.827 433.064 571.883L435.082 571.064C436.258 573.95 437.558 576.785 438.959 579.497L437.02 580.497L437.028 580.49ZM429.877 562.971C428.955 560.013 428.128 556.939 427.424 553.835L429.543 553.349C430.24 556.402 431.053 559.418 431.953 562.319L429.877 562.964V562.971ZM425.652 544.547C425.181 541.494 424.803 538.332 424.52 535.164L426.69 534.975C426.966 538.1 427.344 541.211 427.808 544.22L425.66 544.554L425.652 544.547ZM423.976 525.73C423.932 524.193 423.91 522.634 423.91 521.089C423.91 519.545 423.932 517.884 423.976 516.289L426.153 516.347C426.11 517.928 426.088 519.523 426.088 521.089C426.088 522.656 426.11 524.149 426.153 525.665L423.976 525.723V525.73ZM426.661 507.037L424.491 506.863C424.745 503.745 425.079 500.583 425.493 497.48L427.649 497.763C427.242 500.83 426.908 503.955 426.661 507.037ZM429.122 488.554L426.981 488.155C428.062 482.39 429.006 479.033 429.05 478.896L431.148 479.49C431.148 479.49 430.189 482.905 429.122 488.561V488.554Z" fill="#A7A9AC"/>
<path d="M495.893 591.207L493.853 590.446L494.289 589.279L496.336 590.033L495.9 591.207H495.893ZM499.421 581.136L497.352 580.461C498.31 577.525 499.232 574.523 500.096 571.535L502.187 572.137C501.323 575.154 500.386 578.185 499.421 581.143V581.136ZM504.626 563.037L502.513 562.508C503.261 559.513 503.965 556.453 504.618 553.408L506.745 553.857C506.092 556.932 505.381 560.013 504.626 563.037ZM508.553 544.619L506.411 544.242C506.949 541.204 507.449 538.101 507.892 535.019L510.048 535.331C509.606 538.434 509.105 541.567 508.56 544.627L508.553 544.619ZM511.224 525.977L509.061 525.738C509.402 522.663 509.693 519.538 509.939 516.435L512.11 516.601C511.863 519.727 511.565 522.881 511.224 525.977ZM512.698 507.204L510.52 507.102C510.665 504.014 510.767 500.867 510.825 497.756L513.003 497.792C512.952 500.925 512.843 504.086 512.698 507.204ZM510.847 488.409C510.811 485.313 510.723 482.166 510.6 479.063L512.778 478.976C512.908 482.101 512.988 485.27 513.025 488.388L510.847 488.417V488.409ZM510.085 469.723C509.874 466.634 509.613 463.502 509.315 460.398L511.486 460.188C511.791 463.306 512.052 466.46 512.262 469.571L510.092 469.723H510.085ZM508.284 451.103C507.9 448.028 507.471 444.91 507.007 441.836L509.163 441.509C509.635 444.606 510.063 447.738 510.448 450.834L508.284 451.103ZM505.475 432.605C504.923 429.545 504.328 426.456 503.696 423.418L505.831 422.976C506.462 426.028 507.065 429.139 507.624 432.221L505.482 432.605H505.475ZM501.664 414.289C500.938 411.222 500.161 408.176 499.37 405.218L501.475 404.652C502.274 407.625 503.05 410.7 503.784 413.781L501.664 414.282V414.289ZM496.793 396.234C495.058 390.578 493.86 387.417 493.846 387.38L495.878 386.604C495.929 386.735 497.112 389.86 498.869 395.596L496.786 396.234H496.793Z" fill="#98C7EC"/>
<path d="M566.424 618.537L564.427 617.674C565.625 614.911 566.924 612.018 568.289 609.074L570.264 609.988C568.906 612.917 567.614 615.796 566.424 618.544V618.537ZM574.3 601.526L572.347 600.568C573.734 597.748 575.164 594.92 576.594 592.164L578.525 593.165C577.102 595.906 575.679 598.719 574.3 601.526ZM582.946 584.906L581.036 583.855C582.568 581.078 584.129 578.315 585.69 575.661L587.57 576.756C586.023 579.395 584.47 582.136 582.946 584.899V584.906ZM592.412 568.751L590.568 567.598C592.274 564.879 594.001 562.218 595.7 559.687L597.508 560.905C595.816 563.414 594.103 566.053 592.412 568.751ZM602.879 553.255L601.123 551.972C603.039 549.361 604.977 546.838 606.879 544.489L608.571 545.859C606.691 548.187 604.774 550.674 602.872 553.263L602.879 553.255ZM614.647 538.775L613.035 537.31C614.77 535.41 616.527 533.59 618.254 531.901C618.705 531.459 619.155 531.009 619.597 530.552L621.165 532.06C620.708 532.539 620.244 533.003 619.779 533.46C618.08 535.113 616.353 536.904 614.647 538.775ZM627.285 524.766L625.535 523.475C627.292 521.097 629.005 518.494 630.646 515.738L632.519 516.848C630.842 519.668 629.085 522.337 627.292 524.773L627.285 524.766ZM637.005 508.502L635.052 507.545C636.366 504.862 637.651 502.005 638.871 499.046L640.882 499.873C639.64 502.875 638.341 505.775 637.005 508.502ZM644.25 491.049L642.195 490.323C643.197 487.474 644.177 484.486 645.099 481.441L647.183 482.072C646.253 485.146 645.266 488.163 644.25 491.049ZM649.738 472.993L647.633 472.442C648.402 469.491 649.142 466.431 649.832 463.35L651.959 463.828C651.262 466.939 650.515 470.02 649.738 472.993ZM653.876 454.597L651.734 454.191C652.315 451.153 652.859 448.057 653.36 444.968L655.509 445.316C655.008 448.42 654.456 451.545 653.876 454.605V454.597ZM656.874 435.97L654.71 435.687C655.458 429.944 655.734 426.405 655.741 426.369L657.912 426.536C657.912 426.536 657.621 430.161 656.874 435.962V435.97Z" fill="#A4E58B"/>
<g opacity="0.7">
<path d="M482.899 327.603L596.506 370.601L484.496 413.528L371.905 371.109L482.899 327.603Z" fill="#388DCB"/>
<path d="M611.895 376.402L725.575 419.401L613.492 462.327L500.974 419.908L611.895 376.402Z" fill="#469A45"/>
<path d="M481.81 425.201L595.49 468.2L483.407 511.126L370.816 468.707L481.81 425.201Z" fill="#444445"/>
<path d="M353.83 376.402L467.509 419.401L355.427 462.327L242.836 419.908L353.83 376.402Z" fill="#F79839"/>
</g>
<path d="M9.5822 136.385L14.6056 126.146H19.1353V144.622H14.5185V134.007L10.8598 141.461H8.30457L4.61687 134.007V144.622H0V126.146H4.5588L9.5822 136.385Z" fill="black"/>
<path d="M35.3093 141.838C35.4254 141.838 35.5561 141.823 35.7013 141.794C35.8464 141.765 36.0061 141.729 36.1804 141.693V144.448C35.6577 144.702 34.9971 144.847 34.2059 144.883C32.3475 144.963 31.1642 144.499 30.6633 143.491C30.627 143.411 30.5835 143.317 30.5472 143.201C29.9084 143.781 29.2405 144.187 28.5437 144.419C27.7524 144.673 26.7797 144.796 25.64 144.796C24.7906 144.796 23.9921 144.644 23.2589 144.332C22.5257 144.02 21.9305 143.549 21.4877 142.911C21.0449 142.273 20.8198 141.468 20.8198 140.504C20.8198 139.112 21.2917 138.017 22.2426 137.226C23.1936 136.436 24.6164 136.037 26.5111 136.037H30.2859V135.718C30.2859 135.044 30.0608 134.551 29.6035 134.253C29.1462 133.956 28.2896 133.804 27.0337 133.804C25.4875 133.804 23.9558 134.043 22.4459 134.529V131.541C23.121 131.273 23.9486 131.048 24.914 130.874C25.8795 130.7 26.8958 130.613 27.9629 130.613C30.0753 130.613 31.7304 131.041 32.9282 131.904C34.126 132.767 34.7285 134.13 34.7285 136.008V141.838C34.8447 141.86 35.0407 141.86 35.3093 141.838ZM30.2859 140.62V138.705H27.0337C25.6617 138.705 24.9721 139.249 24.9721 140.33C24.9721 140.83 25.1463 141.229 25.4948 141.519C25.8432 141.809 26.3804 141.954 27.1063 141.954C27.8322 141.954 28.4638 141.831 29.0082 141.577C29.5527 141.323 29.9737 141.004 30.2859 140.62Z" fill="black"/>
<path d="M47.5334 137.284C48.1359 137.654 48.557 138.096 48.8111 138.618C49.0651 139.141 49.1885 139.786 49.1885 140.562C49.1885 141.932 48.6514 142.984 47.577 143.709C46.5026 144.434 44.9201 144.796 42.8295 144.796C41.7478 144.796 40.7098 144.717 39.7225 144.564C38.757 144.412 37.9803 144.216 37.3995 143.984V140.446C38.0747 140.736 38.8514 140.961 39.7225 141.113C40.5936 141.265 41.3776 141.345 42.0745 141.345C42.9093 141.345 43.5046 141.309 43.8748 141.229C44.245 141.149 44.4265 140.939 44.4265 140.591C44.4265 140.221 44.1289 139.945 43.5263 139.75C42.8875 139.554 42.0455 139.278 41.0001 138.908C39.7443 138.466 38.7933 137.951 38.1545 137.371C37.5157 136.791 37.1963 135.921 37.1963 134.761C37.1963 133.427 37.6972 132.404 38.7062 131.686C39.7152 130.969 41.3195 130.613 43.5263 130.613C44.3757 130.613 45.225 130.679 46.0671 130.816C46.9091 130.954 47.5988 131.106 48.1432 131.28V134.732C47.5988 134.5 46.989 134.326 46.2994 134.21C45.6097 134.094 44.9855 134.036 44.4265 134.036C43.7296 134.036 43.1343 134.079 42.6407 134.166C42.1471 134.253 41.9003 134.449 41.9003 134.761C41.9003 135.131 42.1689 135.392 42.7133 135.544C43.236 135.682 44.0127 135.914 45.0363 136.24C46.1034 136.566 46.9309 136.914 47.5334 137.284Z" fill="black"/>
<path d="M58.3353 141.374C58.8942 141.374 59.4605 141.279 60.0194 141.084V144.216C59.1265 144.6 58.0086 144.796 56.6511 144.796C54.967 144.796 53.7257 144.368 52.9344 143.505C52.1431 142.643 51.7439 141.461 51.7439 139.952V134.413H49.9146V130.903H51.7439V128.061L56.3898 126.813V130.903H59.671L59.4677 134.413H56.3898V139.633C56.3898 140.271 56.5495 140.721 56.8689 140.982C57.1883 141.243 57.6747 141.374 58.3353 141.374Z" fill="black"/>
<path d="M75.0022 136.762V139.199H65.3329C65.5434 140.09 66.037 140.714 66.8138 141.069C67.5905 141.425 68.6504 141.606 70.0078 141.606C70.741 141.606 71.496 141.541 72.2727 141.403C73.0495 141.265 73.6955 141.091 74.2182 140.881V143.897C73.5576 144.209 72.7809 144.434 71.8807 144.579C70.9806 144.724 70.0006 144.796 68.9335 144.796C66.5524 144.796 64.6432 144.209 63.2132 143.027C61.7831 141.845 61.0645 140.069 61.0645 137.69C61.0645 135.544 61.6597 133.826 62.8502 132.542C64.0407 131.259 65.8192 130.613 68.1785 130.613C70.349 130.613 72.0259 131.172 73.2164 132.281C74.4069 133.39 75.0022 134.884 75.0022 136.762ZM70.966 136.53V135.921C70.966 135.247 70.7701 134.71 70.3708 134.326C69.9715 133.942 69.2892 133.746 68.3237 133.746C67.2203 133.746 66.4435 133.971 66.0007 134.413C65.5579 134.855 65.3329 135.566 65.3329 136.53H70.966Z" fill="black"/>
<path d="M83.5245 131.179C84.4029 130.882 85.2813 130.693 86.1524 130.613V134.094C85.666 134.152 85.1288 134.239 84.5263 134.355C83.9093 134.493 83.3285 134.638 82.7841 134.804C82.2396 134.971 81.7751 135.145 81.3903 135.341V144.506H76.7734V130.903H81.3032V132.151C81.9057 131.802 82.6462 131.476 83.5245 131.179Z" fill="black"/>
<path d="M34.8879 158.907V173.475H43.5046V175.077H32.8335V158.914H34.8879V158.907Z" fill="black"/>
<path d="M54.8289 167.717V169.95H46.009C46.0743 170.864 46.2775 171.582 46.6042 172.096C46.9309 172.611 47.4318 172.981 48.0924 173.213C48.753 173.438 49.6241 173.554 50.7129 173.554C51.9325 173.554 53.0577 173.344 54.0957 172.916V174.518C53.5731 174.736 52.9851 174.91 52.339 175.026C51.6929 175.142 51.0178 175.207 50.3064 175.207C48.1867 175.207 46.6042 174.7 45.5444 173.684C44.4845 172.669 43.9546 171.096 43.9546 168.964C43.9546 167.05 44.4119 165.549 45.3266 164.461C46.2412 163.373 47.6858 162.822 49.6676 162.822C50.8363 162.822 51.8018 163.033 52.5641 163.46C53.3263 163.881 53.8925 164.468 54.2627 165.215C54.6329 165.962 54.8217 166.796 54.8217 167.724L54.8289 167.717ZM52.9996 168.478V167.485C52.9996 166.52 52.7455 165.773 52.2374 165.251C51.7292 164.729 50.8944 164.468 49.7257 164.468C48.2884 164.468 47.3084 164.802 46.793 165.469C46.2775 166.136 46.0162 167.137 46.0162 168.478H52.9996Z" fill="black"/>
<path d="M65.5001 163.048H67.6343L62.9594 174.954H60.6437L55.9688 163.048H58.103L61.8124 173.047L65.5001 163.048Z" fill="black"/>
<path d="M79.3509 167.717V169.95H70.5309C70.5963 170.864 70.7995 171.582 71.1262 172.096C71.4528 172.611 71.9537 172.981 72.6143 173.213C73.2749 173.438 74.146 173.554 75.2349 173.554C76.4545 173.554 77.5796 173.344 78.6177 172.916V174.518C78.095 174.736 77.5071 174.91 76.861 175.026C76.2149 175.142 75.5398 175.207 74.8284 175.207C72.7087 175.207 71.1262 174.7 70.0663 173.684C69.0065 172.669 68.4766 171.096 68.4766 168.964C68.4766 167.05 68.9339 165.549 69.8486 164.461C70.7632 163.373 72.2078 162.822 74.1896 162.822C75.3583 162.822 76.3238 163.033 77.086 163.46C77.8482 163.881 78.4145 164.468 78.7847 165.215C79.1549 165.962 79.3436 166.796 79.3436 167.724L79.3509 167.717ZM77.5216 168.478V167.485C77.5216 166.52 77.2675 165.773 76.7594 165.251C76.2512 164.729 75.4164 164.468 74.2477 164.468C72.8103 164.468 71.8303 164.802 71.3149 165.469C70.7995 166.136 70.5382 167.137 70.5382 168.478H77.5216Z" fill="black"/>
<path d="M84.737 173.474C85.1072 173.474 85.4847 173.423 85.8549 173.322V174.946C85.5863 175.048 85.3177 175.113 85.0564 175.149C84.795 175.185 84.5192 175.2 84.2288 175.2C83.4158 175.2 82.777 174.99 82.3269 174.562C81.8696 174.141 81.6445 173.409 81.6445 172.379V158.037H83.6989V172.147C83.6989 172.655 83.786 173.003 83.953 173.191C84.1199 173.38 84.3812 173.467 84.737 173.467V173.474Z" fill="black"/>
<path d="M52.673 413.026H48.0562V394.551H52.673V413.026Z" fill="black"/>
<path d="M68.1644 400.279C68.9701 401.12 69.3694 402.418 69.3694 404.18V412.911H64.7235V404.557C64.7235 403.782 64.5638 403.238 64.2444 402.919C63.925 402.6 63.337 402.44 62.4876 402.44C61.9868 402.44 61.4786 402.556 60.9632 402.788C60.4478 403.02 60.0195 403.303 59.6711 403.629V412.911H55.0542V399.308H59.3517L59.4968 400.497C60.0558 400.113 60.7599 399.764 61.602 399.467C62.4441 399.17 63.3515 399.018 64.317 399.018C66.081 399.018 67.3586 399.438 68.1644 400.279Z" fill="black"/>
<path d="M78.9808 409.779C79.5397 409.779 80.106 409.685 80.6649 409.489V412.621C79.772 413.006 78.6541 413.201 77.2966 413.201C75.6125 413.201 74.3712 412.774 73.5799 411.911C72.7886 411.048 72.3894 409.866 72.3894 408.358V402.818H70.5601V399.308H72.3894V396.466L77.0353 395.219V399.308H80.3165L80.1132 402.818H77.0353V408.039C77.0353 408.677 77.195 409.126 77.5144 409.387C77.8338 409.648 78.3202 409.779 78.9808 409.779Z" fill="black"/>
<path d="M95.6477 405.167V407.603H85.9784C86.1889 408.495 86.6825 409.118 87.4593 409.474C88.236 409.829 89.2959 410.01 90.6533 410.01C91.3865 410.01 92.1415 409.945 92.9182 409.807C93.695 409.669 94.341 409.495 94.8637 409.285V412.302C94.2031 412.613 93.4264 412.838 92.5262 412.983C91.6261 413.128 90.6461 413.201 89.579 413.201C87.1979 413.201 85.2888 412.613 83.8587 411.431C82.4286 410.249 81.71 408.473 81.71 406.095C81.71 403.948 82.3052 402.23 83.4957 400.946C84.6862 399.663 86.4648 399.018 88.824 399.018C90.9945 399.018 92.6714 399.576 93.8619 400.685C95.0524 401.795 95.6477 403.288 95.6477 405.167ZM91.6115 404.934V404.325C91.6115 403.651 91.4156 403.114 91.0163 402.73C90.617 402.346 89.9347 402.15 88.9692 402.15C87.8658 402.15 87.089 402.375 86.6462 402.817C86.2034 403.259 85.9784 403.97 85.9784 404.934H91.6115Z" fill="black"/>
<path d="M104.17 399.583C105.048 399.286 105.927 399.097 106.798 399.018V402.498C106.312 402.556 105.774 402.643 105.172 402.759C104.555 402.897 103.974 403.042 103.43 403.209C102.885 403.375 102.421 403.55 102.036 403.745V412.911H97.4189V399.308H101.949V400.555C102.551 400.207 103.292 399.88 104.17 399.583Z" fill="black"/>
<path d="M128.706 400.25C129.454 401.07 129.824 402.324 129.824 404.006V412.911H125.236V404.557C125.236 403.803 125.084 403.259 124.772 402.933C124.459 402.607 123.951 402.44 123.233 402.44C122.79 402.44 122.354 402.534 121.94 402.716C121.527 402.897 121.171 403.143 120.881 403.455C120.917 403.665 120.946 403.869 120.953 404.064C120.961 404.26 120.968 404.492 120.968 404.76V412.911H116.67V404.499C116.67 403.803 116.547 403.288 116.307 402.948C116.068 402.607 115.603 402.44 114.928 402.44C114.463 402.44 114.021 402.563 113.592 402.803C113.164 403.042 112.779 403.332 112.431 403.658V412.911H107.93V399.308H112.199L112.344 400.497C112.961 400.069 113.658 399.721 114.42 399.438C115.182 399.155 116.01 399.018 116.903 399.018C117.795 399.018 118.529 399.155 119.051 399.438C119.574 399.721 119.973 400.098 120.242 400.584C120.881 400.142 121.599 399.764 122.391 399.467C123.182 399.17 124.126 399.018 125.207 399.018C126.797 399.018 127.958 399.431 128.706 400.25Z" fill="black"/>
<path d="M145.301 405.167V407.603H135.632C135.842 408.495 136.336 409.118 137.113 409.474C137.889 409.829 138.949 410.01 140.307 410.01C141.04 410.01 141.795 409.945 142.572 409.807C143.348 409.669 143.994 409.495 144.517 409.285V412.302C143.856 412.613 143.08 412.838 142.18 412.983C141.279 413.128 140.299 413.201 139.232 413.201C136.851 413.201 134.942 412.613 133.512 411.431C132.082 410.249 131.363 408.473 131.363 406.095C131.363 403.948 131.959 402.23 133.149 400.946C134.34 399.663 136.118 399.018 138.477 399.018C140.648 399.018 142.325 399.576 143.515 400.685C144.706 401.795 145.301 403.288 145.301 405.167ZM141.265 404.934V404.325C141.265 403.651 141.069 403.114 140.67 402.73C140.27 402.346 139.588 402.15 138.623 402.15C137.519 402.15 136.742 402.375 136.3 402.817C135.857 403.259 135.632 403.97 135.632 404.934H141.265Z" fill="black"/>
<path d="M156.771 393.101H161.387V412.911H157.148V411.722C156.589 412.186 155.965 412.548 155.275 412.809C154.586 413.07 153.787 413.201 152.88 413.201C150.941 413.201 149.41 412.679 148.277 411.635C147.145 410.591 146.579 408.843 146.579 406.385C146.579 403.927 147.159 402.136 148.321 400.889C149.482 399.642 151.079 399.018 153.112 399.018C154.542 399.018 155.762 399.315 156.771 399.917V393.101ZM157.148 408.763V403.311C156.996 403.195 156.502 402.97 155.667 402.643C155.297 402.491 154.832 402.411 154.273 402.411C152.277 402.411 151.283 403.767 151.283 406.472C151.283 407.784 151.515 408.669 151.979 409.126C152.444 409.583 153.177 409.807 154.186 409.807C154.709 409.807 155.239 409.713 155.783 409.532C156.328 409.351 156.778 409.09 157.148 408.763Z" fill="black"/>
<path d="M168.386 398.321H163.624V393.564H168.386V398.321ZM168.386 412.91H163.624V399.307H168.386V412.91Z" fill="black"/>
<path d="M184.384 410.242C184.501 410.242 184.631 410.228 184.776 410.199C184.922 410.17 185.081 410.133 185.256 410.097V412.853C184.733 413.106 184.072 413.251 183.281 413.288C181.423 413.367 180.239 412.903 179.739 411.895C179.702 411.816 179.659 411.721 179.622 411.605C178.984 412.186 178.316 412.592 177.619 412.824C176.828 413.077 175.855 413.201 174.715 413.201C173.866 413.201 173.067 413.048 172.334 412.737C171.601 412.425 171.006 411.953 170.563 411.315C170.12 410.677 169.895 409.872 169.895 408.908C169.895 407.516 170.367 406.421 171.318 405.631C172.269 404.84 173.692 404.441 175.586 404.441H179.361V404.122C179.361 403.448 179.136 402.955 178.679 402.658C178.221 402.36 177.365 402.208 176.109 402.208C174.563 402.208 173.031 402.447 171.521 402.933V399.946C172.196 399.677 173.024 399.453 173.989 399.279C174.955 399.105 175.971 399.018 177.038 399.018C179.151 399.018 180.806 399.445 182.003 400.308C183.201 401.171 183.804 402.534 183.804 404.412V410.242C183.92 410.264 184.116 410.264 184.384 410.242ZM179.361 409.024V407.11H176.109C174.737 407.11 174.047 407.654 174.047 408.734C174.047 409.234 174.222 409.633 174.57 409.923C174.918 410.213 175.456 410.358 176.182 410.358C176.907 410.358 177.539 410.235 178.083 409.981C178.628 409.727 179.049 409.408 179.361 409.024Z" fill="black"/>
<path d="M193.705 409.779C194.264 409.779 194.831 409.685 195.39 409.489V412.621C194.497 413.006 193.379 413.201 192.021 413.201C190.337 413.201 189.096 412.774 188.305 411.911C187.513 411.048 187.114 409.866 187.114 408.358V402.818H185.285V399.308H187.114V396.466L191.76 395.219V399.308H195.041L194.838 402.818H191.76V408.039C191.76 408.677 191.92 409.126 192.239 409.387C192.558 409.648 193.045 409.779 193.705 409.779Z" fill="black"/>
<path d="M210.373 405.167V407.603H200.703C200.914 408.495 201.408 409.118 202.184 409.474C202.961 409.829 204.021 410.01 205.378 410.01C206.112 410.01 206.867 409.945 207.643 409.807C208.42 409.669 209.066 409.495 209.589 409.285V412.302C208.928 412.613 208.151 412.838 207.251 412.983C206.351 413.128 205.371 413.201 204.304 413.201C201.923 413.201 200.014 412.613 198.584 411.431C197.154 410.249 196.435 408.473 196.435 406.095C196.435 403.948 197.03 402.23 198.221 400.946C199.411 399.663 201.19 399.018 203.549 399.018C205.72 399.018 207.397 399.576 208.587 400.685C209.778 401.795 210.373 403.288 210.373 405.167ZM206.337 404.934V404.325C206.337 403.651 206.141 403.114 205.741 402.73C205.342 402.346 204.66 402.15 203.694 402.15C202.591 402.15 201.814 402.375 201.371 402.817C200.929 403.259 200.703 403.97 200.703 404.934H206.337Z" fill="black"/>
<path d="M159.747 427.311V441.878H168.363V443.481H157.692V427.318H159.747V427.311Z" fill="black"/>
<path d="M179.688 436.121V438.354H170.868C170.933 439.268 171.136 439.986 171.463 440.501C171.79 441.015 172.291 441.385 172.951 441.617C173.612 441.842 174.483 441.958 175.572 441.958C176.791 441.958 177.917 441.748 178.955 441.32V442.922C178.432 443.14 177.844 443.314 177.198 443.43C176.552 443.546 175.877 443.611 175.165 443.611C173.046 443.611 171.463 443.104 170.403 442.089C169.343 441.073 168.813 439.5 168.813 437.368C168.813 435.454 169.271 433.953 170.185 432.865C171.1 431.778 172.545 431.227 174.526 431.227C175.695 431.227 176.661 431.437 177.423 431.865C178.185 432.285 178.751 432.873 179.122 433.619C179.492 434.366 179.681 435.2 179.681 436.128L179.688 436.121ZM177.858 436.882V435.889C177.858 434.925 177.604 434.178 177.096 433.656C176.588 433.134 175.753 432.873 174.585 432.873C173.147 432.873 172.167 433.206 171.652 433.873C171.136 434.54 170.875 435.541 170.875 436.882H177.858Z" fill="black"/>
<path d="M190.359 431.451H192.493L187.818 443.357H185.503L180.828 431.451H182.962L186.671 441.45L190.359 431.451Z" fill="black"/>
<path d="M204.209 436.121V438.354H195.389C195.455 439.268 195.658 439.986 195.985 440.501C196.311 441.015 196.812 441.385 197.473 441.617C198.133 441.842 199.004 441.958 200.093 441.958C201.313 441.958 202.438 441.748 203.476 441.32V442.922C202.953 443.14 202.365 443.314 201.719 443.43C201.073 443.546 200.398 443.611 199.687 443.611C197.567 443.611 195.985 443.104 194.925 442.089C193.865 441.073 193.335 439.5 193.335 437.368C193.335 435.454 193.792 433.953 194.707 432.865C195.622 431.778 197.066 431.227 199.048 431.227C200.217 431.227 201.182 431.437 201.944 431.865C202.707 432.285 203.273 432.873 203.643 433.619C204.013 434.366 204.202 435.2 204.202 436.128L204.209 436.121ZM202.38 436.882V435.889C202.38 434.925 202.126 434.178 201.618 433.656C201.11 433.134 200.275 432.873 199.106 432.873C197.669 432.873 196.689 433.206 196.173 433.873C195.658 434.54 195.397 435.541 195.397 436.882H202.38Z" fill="black"/>
<path d="M209.596 441.879C209.966 441.879 210.344 441.828 210.714 441.727V443.351C210.445 443.452 210.177 443.518 209.915 443.554C209.654 443.59 209.378 443.605 209.088 443.605C208.275 443.605 207.636 443.394 207.186 442.967C206.728 442.546 206.503 441.814 206.503 440.784V426.441H208.558V440.552C208.558 441.06 208.645 441.408 208.812 441.596C208.979 441.785 209.24 441.872 209.596 441.872V441.879Z" fill="black"/>
<path d="M253.057 602.062C254.334 602.678 255.314 603.672 255.99 605.035C256.665 606.398 257.006 608.211 257.006 610.473C257.006 613.642 256.273 615.962 254.799 617.42C253.325 618.877 251.169 619.61 248.324 619.61H240.31V601.134H248.324C250.204 601.134 251.779 601.446 253.057 602.062ZM250.211 615.592C250.886 615.295 251.409 614.744 251.765 613.939C252.12 613.134 252.302 611.981 252.302 610.473C252.302 608.965 252.142 607.769 251.823 606.935C251.503 606.101 251.002 605.521 250.327 605.18C249.652 604.839 248.767 604.672 247.685 604.672H244.926V616.042H247.685C248.694 616.042 249.536 615.89 250.211 615.592Z" fill="black"/>
<path d="M272.105 611.749V614.185H262.436C262.646 615.077 263.14 615.701 263.917 616.056C264.694 616.411 265.753 616.593 267.111 616.593C267.844 616.593 268.599 616.527 269.376 616.39C270.152 616.252 270.799 616.078 271.321 615.868V618.884C270.661 619.196 269.884 619.421 268.984 619.566C268.084 619.711 267.104 619.783 266.036 619.783C263.655 619.783 261.746 619.196 260.316 618.014C258.886 616.832 258.167 615.055 258.167 612.677C258.167 610.531 258.763 608.812 259.953 607.529C261.144 606.245 262.922 605.6 265.282 605.6C267.452 605.6 269.129 606.158 270.319 607.268C271.51 608.377 272.105 609.871 272.105 611.749ZM268.069 611.517V610.908C268.069 610.234 267.873 609.697 267.474 609.313C267.075 608.928 266.392 608.733 265.427 608.733C264.323 608.733 263.547 608.957 263.104 609.4C262.661 609.842 262.436 610.553 262.436 611.517H268.069Z" fill="black"/>
<path d="M281.397 616.36C281.956 616.36 282.522 616.266 283.081 616.07V619.203C282.188 619.587 281.07 619.783 279.713 619.783C278.029 619.783 276.787 619.355 275.996 618.492C275.205 617.629 274.805 616.447 274.805 614.939V609.399H272.976V605.89H274.805V603.047L279.451 601.8V605.89H282.732L282.529 609.399H279.451V614.62C279.451 615.258 279.611 615.708 279.93 615.969C280.25 616.23 280.736 616.36 281.397 616.36Z" fill="black"/>
<path d="M298.47 616.825C298.587 616.825 298.717 616.81 298.862 616.781C299.008 616.752 299.167 616.716 299.341 616.68V619.435C298.819 619.689 298.158 619.834 297.367 619.87C295.509 619.95 294.325 619.486 293.824 618.478C293.788 618.398 293.745 618.304 293.708 618.188C293.069 618.768 292.402 619.174 291.705 619.406C290.913 619.66 289.941 619.783 288.801 619.783C287.952 619.783 287.153 619.631 286.42 619.319C285.687 619.007 285.092 618.536 284.649 617.898C284.206 617.26 283.981 616.455 283.981 615.491C283.981 614.098 284.453 613.003 285.404 612.213C286.355 611.423 287.778 611.024 289.672 611.024H293.447V610.705C293.447 610.03 293.222 609.537 292.765 609.24C292.307 608.943 291.451 608.791 290.195 608.791C288.649 608.791 287.117 609.03 285.607 609.516V606.528C286.282 606.26 287.11 606.035 288.075 605.861C289.041 605.687 290.057 605.6 291.124 605.6C293.236 605.6 294.892 606.028 296.089 606.891C297.287 607.754 297.89 609.117 297.89 610.995V616.825C298.006 616.846 298.202 616.846 298.47 616.825ZM293.447 615.607V613.692H290.195C288.823 613.692 288.133 614.236 288.133 615.316C288.133 615.817 288.307 616.216 288.656 616.506C289.004 616.796 289.542 616.941 290.267 616.941C290.993 616.941 291.625 616.817 292.169 616.564C292.714 616.31 293.135 615.991 293.447 615.607Z" fill="black"/>
<path d="M305.497 604.904H300.735V600.147H305.497V604.904ZM305.497 619.493H300.735V605.89H305.497V619.493Z" fill="black"/>
<path d="M313.367 616.361C313.889 616.361 314.347 616.296 314.732 616.158V619.29C314.289 619.464 313.853 619.588 313.425 619.667C312.997 619.747 312.467 619.783 311.828 619.783C310.34 619.783 309.265 619.457 308.619 618.797C307.973 618.137 307.646 617.093 307.646 615.665V600.147H312.263V615.201C312.263 615.643 312.358 615.948 312.539 616.114C312.721 616.281 312.997 616.361 313.367 616.361Z" fill="black"/>
<path d="M263.554 633.894V648.461H272.171V650.064H261.5V633.901H263.554V633.894Z" fill="black"/>
<path d="M283.494 642.704V644.937H274.674C274.74 645.851 274.943 646.569 275.27 647.084C275.596 647.599 276.097 647.968 276.758 648.2C277.418 648.425 278.29 648.541 279.378 648.541C280.598 648.541 281.723 648.331 282.761 647.903V649.506C282.239 649.723 281.651 649.897 281.005 650.013C280.358 650.129 279.683 650.194 278.972 650.194C276.852 650.194 275.27 649.687 274.21 648.672C273.15 647.656 272.62 646.083 272.62 643.951C272.62 642.037 273.077 640.536 273.992 639.448C274.907 638.361 276.351 637.81 278.333 637.81C279.502 637.81 280.467 638.02 281.23 638.448C281.992 638.868 282.558 639.456 282.928 640.202C283.298 640.949 283.487 641.783 283.487 642.711L283.494 642.704ZM281.665 643.465V642.472C281.665 641.508 281.411 640.761 280.903 640.239C280.395 639.717 279.56 639.456 278.391 639.456C276.954 639.456 275.974 639.789 275.458 640.456C274.943 641.123 274.682 642.124 274.682 643.465H281.665Z" fill="black"/>
<path d="M294.166 638.034H296.3L291.625 649.94H289.31L284.635 638.034H286.769L290.478 648.033L294.166 638.034Z" fill="black"/>
<path d="M308.016 642.704V644.937H299.196C299.262 645.851 299.465 646.569 299.792 647.084C300.118 647.599 300.619 647.968 301.28 648.2C301.94 648.425 302.812 648.541 303.9 648.541C305.12 648.541 306.245 648.331 307.283 647.903V649.506C306.761 649.723 306.173 649.897 305.526 650.013C304.88 650.129 304.205 650.194 303.494 650.194C301.374 650.194 299.792 649.687 298.732 648.672C297.672 647.656 297.142 646.083 297.142 643.951C297.142 642.037 297.599 640.536 298.514 639.448C299.429 638.361 300.873 637.81 302.855 637.81C304.024 637.81 304.989 638.02 305.752 638.448C306.514 638.868 307.08 639.456 307.45 640.202C307.82 640.949 308.009 641.783 308.009 642.711L308.016 642.704ZM306.187 643.465V642.472C306.187 641.508 305.933 640.761 305.425 640.239C304.917 639.717 304.082 639.456 302.913 639.456C301.476 639.456 300.496 639.789 299.98 640.456C299.465 641.123 299.204 642.124 299.204 643.465H306.187Z" fill="black"/>
<path d="M313.403 648.461C313.773 648.461 314.151 648.411 314.521 648.309V649.933C314.252 650.035 313.984 650.1 313.722 650.136C313.461 650.173 313.185 650.187 312.895 650.187C312.082 650.187 311.443 649.977 310.993 649.549C310.536 649.128 310.311 648.396 310.311 647.366V633.024H312.365V647.134C312.365 647.642 312.452 647.99 312.619 648.179C312.786 648.367 313.047 648.454 313.403 648.454V648.461Z" fill="black"/>
<path d="M324.299 403.935L322.172 403.456C322.389 402.492 322.593 401.542 322.796 400.606L324.923 401.063C324.72 402.006 324.509 402.963 324.291 403.935H324.299ZM326.738 391.818L324.589 391.441C325.162 388.142 325.605 385.125 325.939 382.225L328.102 382.471C327.761 385.415 327.318 388.468 326.73 391.818H326.738ZM328.799 373.031L326.622 372.973C326.643 372.226 326.651 371.486 326.651 370.746C326.651 368.325 326.542 365.968 326.317 363.742L328.487 363.532C328.712 365.83 328.828 368.259 328.828 370.746C328.828 371.501 328.821 372.262 328.799 373.031ZM324.705 354.707C323.914 351.727 322.898 348.906 321.591 346.086L323.565 345.172C324.923 348.109 325.983 351.038 326.81 354.149L324.705 354.707ZM317.068 338.088C315.457 335.673 313.569 333.201 311.457 330.75L313.112 329.336C315.275 331.859 317.214 334.397 318.876 336.884L317.061 338.095L317.068 338.088ZM305.105 323.977C303.036 321.94 300.735 319.815 298.26 317.661L299.69 316.023C302.194 318.205 304.524 320.366 306.63 322.425L305.105 323.977ZM291.095 311.672C288.815 309.838 286.333 307.909 283.719 305.929L285.033 304.196C287.668 306.19 290.166 308.134 292.46 309.983L291.095 311.679V311.672ZM276.192 300.353C273.825 298.635 271.263 296.8 268.569 294.908L269.825 293.131C272.526 295.031 275.095 296.873 277.469 298.598L276.192 300.36V300.353ZM260.882 289.491C258.319 287.62 255.822 285.648 253.448 283.64L254.857 281.979C257.187 283.959 259.648 285.895 262.167 287.736L260.882 289.491ZM246.465 277.259C244.215 275.033 242.037 272.712 239.997 270.348L241.645 268.927C243.649 271.247 245.783 273.532 247.997 275.714L246.465 277.259ZM234.11 262.931C232.252 260.385 230.488 257.732 228.861 255.049L230.727 253.925C232.324 256.557 234.052 259.16 235.874 261.654L234.11 262.938V262.931ZM224.295 246.746C222.902 243.933 221.609 241.025 220.448 238.088L222.473 237.291C223.613 240.169 224.876 243.019 226.248 245.775L224.295 246.739V246.746ZM217.334 229.148C216.426 226.146 215.628 223.064 214.967 219.983L217.094 219.526C217.748 222.549 218.532 225.58 219.417 228.524L217.334 229.155V229.148ZM213.341 210.65C212.92 207.525 212.63 204.349 212.463 201.224L214.641 201.108C214.808 204.182 215.098 207.293 215.504 210.368L213.348 210.658L213.341 210.65ZM214.524 191.812L212.347 191.747C212.528 185.866 213.123 182.393 213.152 182.248L215.301 182.625C215.301 182.625 214.706 186.106 214.532 191.819L214.524 191.812Z" fill="#FFC285"/>
<path d="M450.827 476.916C450.377 474.334 449.6 471.34 448.511 468.004L450.58 467.33C451.698 470.76 452.504 473.863 452.968 476.546L450.82 476.916H450.827ZM445.288 459.288C444.192 456.598 442.929 453.727 441.55 450.747L443.524 449.833C444.925 452.842 446.196 455.75 447.306 458.469L445.288 459.288ZM437.463 442.35C436.12 439.689 434.661 436.904 433.129 434.062L435.045 433.032C436.584 435.889 438.051 438.688 439.408 441.364L437.463 442.343V442.35ZM428.599 425.876C427.111 423.251 425.536 420.524 423.917 417.769L425.79 416.667C427.416 419.429 428.998 422.17 430.494 424.802L428.599 425.876ZM419.097 409.742C417.522 407.153 415.867 404.478 414.175 401.773L416.019 400.62C417.718 403.325 419.38 406.015 420.955 408.611L419.097 409.742ZM409.152 393.869L409.036 393.688C407.351 391.063 405.747 388.409 404.266 385.784L406.161 384.719C407.62 387.3 409.203 389.925 410.865 392.513L410.981 392.695L409.152 393.869ZM399.882 377.417C398.495 374.538 397.21 371.63 396.071 368.759L398.096 367.954C399.214 370.775 400.477 373.639 401.842 376.467L399.882 377.41V377.417ZM392.927 359.833C391.991 356.788 391.185 353.706 390.532 350.668L392.659 350.211C393.298 353.184 394.089 356.207 395.011 359.195L392.927 359.833ZM388.964 341.321C388.586 338.167 388.369 334.984 388.303 331.858L390.481 331.815C390.539 334.868 390.757 337.978 391.127 341.06L388.964 341.314V341.321ZM390.764 322.563L388.594 322.381C388.855 319.242 389.283 316.073 389.864 312.977L392.005 313.375C391.439 316.399 391.018 319.488 390.764 322.555V322.563ZM394.183 304.377L392.093 303.761C392.985 300.751 394.053 297.742 395.25 294.813L397.268 295.639C396.092 298.504 395.054 301.44 394.183 304.377ZM401.21 287.235L399.286 286.22C400.76 283.436 402.393 280.688 404.128 278.056L405.943 279.252C404.244 281.826 402.655 284.516 401.21 287.235ZM411.431 271.762L409.74 270.391C413.435 265.838 416.106 263.437 416.222 263.336L417.674 264.96C417.674 264.96 415.01 267.36 411.431 271.762Z" fill="#A7A9AC"/>
<path d="M504.836 363.183C503.086 360.732 501.714 357.773 500.742 354.38L502.832 353.785C503.732 356.932 505.003 359.673 506.6 361.921L504.829 363.183H504.836ZM499.137 344.932C499.007 343.25 498.941 341.466 498.941 339.639C498.941 338.275 498.978 336.854 499.05 335.419L501.228 335.527C501.163 336.927 501.126 338.312 501.126 339.639C501.126 341.415 501.192 343.141 501.315 344.772L499.145 344.939L499.137 344.932ZM502.092 326.268L499.936 325.978C500.335 323.019 500.858 319.88 501.489 316.66L503.624 317.081C502.999 320.264 502.484 323.353 502.092 326.268ZM505.656 307.959L503.544 307.437C504.27 304.493 505.09 301.426 505.983 298.322L508.073 298.924C507.188 301.998 506.375 305.037 505.656 307.959ZM510.81 289.976L508.741 289.309C509.692 286.372 510.709 283.37 511.768 280.383L513.823 281.108C512.77 284.081 511.754 287.061 510.817 289.976H510.81ZM517.068 272.32L515.035 271.537C516.211 268.499 517.387 265.547 518.549 262.785L520.559 263.626C519.405 266.374 518.229 269.303 517.068 272.32ZM522.773 254.243L520.603 254.069C520.842 251.118 521.031 247.978 521.155 244.751L523.332 244.838C523.209 248.101 523.02 251.27 522.773 254.25V254.243ZM523.521 235.412H521.343V234.984C521.343 232.018 521.293 229.024 521.191 226.065L523.369 225.993C523.47 228.973 523.528 232.004 523.528 234.991V235.419L523.521 235.412ZM520.69 216.733C520.465 213.608 520.175 210.483 519.841 207.43L522.004 207.191C522.345 210.273 522.636 213.427 522.861 216.581L520.69 216.741V216.733ZM518.614 198.171C518.135 195.074 517.59 191.978 516.995 188.976L519.129 188.548C519.732 191.579 520.284 194.705 520.77 197.837L518.621 198.171H518.614ZM514.948 179.876C514.186 176.831 513.344 173.807 512.444 170.892L514.527 170.254C515.434 173.205 516.284 176.265 517.06 179.347L514.948 179.876ZM509.453 162.075C508.357 159.138 507.173 156.238 505.939 153.453L507.928 152.569C509.184 155.389 510.389 158.333 511.5 161.313L509.46 162.075H509.453ZM501.86 145.1C500.393 142.337 498.818 139.633 497.192 137.066L499.036 135.906C500.691 138.523 502.288 141.272 503.783 144.085L501.86 145.107V145.1Z" fill="#98C7EC"/>
<path d="M630.189 419.59C630.094 419.14 630.043 418.575 630.043 417.907C630.043 417.001 630.131 415.884 630.305 414.601L632.461 414.891C632.301 416.08 632.221 417.095 632.221 417.907C632.221 418.553 632.272 418.937 632.316 419.14L630.181 419.582L630.189 419.59ZM634.363 405.849L632.257 405.298C632.991 402.499 633.898 399.454 634.943 396.241L637.012 396.916C635.981 400.084 635.089 403.094 634.363 405.849ZM640.09 388.106L638.05 387.352C639.103 384.516 640.257 381.565 641.469 378.578L643.487 379.397C642.282 382.356 641.136 385.285 640.09 388.106ZM647.139 370.79L645.143 369.913C646.369 367.121 647.683 364.235 649.034 361.349L651.008 362.27C649.658 365.149 648.358 368.013 647.139 370.79ZM655.073 353.837L653.121 352.873C654.478 350.125 655.908 347.304 657.367 344.483L659.298 345.484C657.846 348.29 656.423 351.096 655.066 353.837H655.073ZM663.69 337.21L661.774 336.174C663.24 333.469 664.764 330.699 666.318 327.944L668.22 329.01C666.674 331.75 665.149 334.513 663.69 337.21ZM672.873 320.888L670.993 319.793C672.553 317.118 674.165 314.399 675.791 311.709L677.657 312.832C676.038 315.515 674.434 318.22 672.88 320.888H672.873ZM682.542 304.842L680.691 303.696C682.317 301.078 684.009 298.41 685.707 295.749L687.544 296.924C685.845 299.57 684.168 302.239 682.542 304.849V304.842ZM692.647 289.063L690.825 287.867C692.531 285.271 694.288 282.646 696.037 280.05L697.845 281.269C696.095 283.857 694.346 286.482 692.647 289.063ZM703.137 273.532L701.344 272.299C703.18 269.645 704.937 267.064 706.636 264.562L708.443 265.78C706.745 268.289 704.98 270.871 703.144 273.532H703.137ZM713.663 257.971L711.848 256.775C713.604 254.121 715.325 251.481 716.966 248.929L718.795 250.104C717.147 252.656 715.419 255.303 713.663 257.971ZM723.825 242.171L721.974 241.025C723.68 238.292 725.321 235.601 726.853 233.035L728.725 234.151C727.186 236.725 725.539 239.423 723.825 242.171ZM733.458 226.03L731.564 224.957C733.175 222.122 734.685 219.366 736.057 216.763L737.981 217.778C736.602 220.396 735.077 223.173 733.458 226.03ZM742.206 209.353L740.239 208.425C741.683 205.365 742.924 202.5 743.934 199.897L745.966 200.68C744.943 203.327 743.679 206.249 742.213 209.353H742.206ZM748.812 191.588L746.685 191.131C747.055 189.405 747.244 187.897 747.244 186.635C747.244 183.988 746.423 183.416 746.409 183.408C746.46 183.445 746.489 183.452 746.489 183.452L747.331 181.443C747.679 181.588 749.422 182.524 749.422 186.635C749.422 188.049 749.218 189.717 748.812 191.588Z" fill="#A4E58B"/>
<path d="M486.093 0L669.316 69.2476L488.706 138.495L307.225 70.1177L486.093 0Z" fill="#388DCB"/>
<path d="M694.142 78.6738L877.292 147.921L696.683 217.169L515.202 148.792L694.142 78.6738Z" fill="#469A45"/>
<path d="M484.423 157.348L667.573 226.596L486.963 295.843L305.482 227.466L484.423 157.348Z" fill="#444445"/>
<path d="M278.115 78.6738L461.266 147.921L280.656 217.169L99.1753 148.792L278.115 78.6738Z" fill="#F79839"/>
<path d="M480.46 59.2334C483.153 59.2334 485.113 59.9585 486.354 61.4087C487.596 62.8589 488.213 65.2445 488.213 68.5727C488.213 71.901 487.61 74.0618 486.398 75.5193C485.185 76.9767 483.211 77.7091 480.46 77.7091H473.229V59.2334H480.46ZM483.291 75.2872C484.155 74.8884 484.793 74.1633 485.222 73.1119C485.65 72.0605 485.861 70.545 485.861 68.5727C485.861 66.6005 485.665 65.1285 485.28 64.0336C484.895 62.9387 484.271 62.1773 483.421 61.7423C482.572 61.3072 481.44 61.0897 480.024 61.0897H475.582V75.8818H480.024C481.338 75.8818 482.427 75.686 483.291 75.2872Z" fill="white"/>
<path d="M497.258 63.7007C499.61 63.7007 501.33 64.3098 502.426 65.528C503.523 66.7461 504.067 68.4936 504.067 70.7777C504.067 73.0618 503.53 74.8311 502.455 76.042C501.381 77.2529 499.646 77.8547 497.243 77.8547C494.841 77.8547 493.156 77.2529 492.075 76.042C490.993 74.8311 490.449 73.0763 490.449 70.7777C490.449 68.4791 490.993 66.7461 492.089 65.528C493.185 64.3098 494.906 63.7007 497.258 63.7007ZM497.258 75.8535C498.891 75.8535 500.045 75.4474 500.713 74.6353C501.381 73.8232 501.715 72.5397 501.715 70.7777C501.715 69.0157 501.374 67.7323 500.699 66.9202C500.024 66.108 498.877 65.702 497.258 65.702C495.639 65.702 494.492 66.108 493.817 66.9202C493.142 67.7323 492.801 69.0157 492.801 70.7777C492.801 72.5397 493.135 73.8232 493.802 74.6353C494.47 75.4474 495.625 75.8535 497.258 75.8535Z" fill="white"/>
<path d="M473.926 216.581H476.685L483.712 235.057H481.302L479.327 229.981H471.284L469.339 235.057H466.899L473.926 216.581ZM471.69 228.125H478.892L475.291 218.611L471.69 228.125Z" fill="white"/>
<path d="M492.365 233.317C493.679 233.317 494.899 233.063 496.024 232.563V234.448C495.421 234.702 494.782 234.891 494.107 235.014C493.432 235.137 492.663 235.202 491.813 235.202C489.454 235.202 487.697 234.586 486.543 233.361C485.389 232.135 484.815 230.388 484.815 228.125C484.815 225.725 485.469 223.949 486.775 222.789C488.082 221.628 489.832 221.048 492.017 221.048C492.924 221.048 493.679 221.106 494.267 221.222C494.855 221.338 495.436 221.534 495.995 221.802V223.688C494.949 223.187 493.766 222.934 492.452 222.934C490.768 222.934 489.469 223.332 488.547 224.123C487.625 224.913 487.167 226.247 487.167 228.125C487.167 230.003 487.567 231.236 488.372 232.07C489.178 232.904 490.507 233.317 492.365 233.317Z" fill="white"/>
<path d="M504.067 233.317C504.568 233.317 505.12 233.223 505.722 233.027V234.796C505.003 235.064 504.19 235.202 503.283 235.202C501.926 235.202 500.909 234.847 500.234 234.129C499.559 233.411 499.218 232.418 499.218 231.142V223.194H497.156V221.309H499.218V217.974L501.57 217.249V221.309H505.345L505.199 223.194H501.57V231.026C501.57 231.838 501.759 232.425 502.136 232.78C502.514 233.136 503.16 233.317 504.067 233.317Z" fill="white"/>
<path d="M262.639 137.907C264.708 137.907 266.232 138.466 267.212 139.575C268.192 140.684 268.679 142.12 268.679 143.882C268.679 145.644 268.127 147.102 267.024 148.146C265.92 149.19 264.418 149.712 262.523 149.712H257.18V156.383H254.828V137.907H262.639ZM265.267 146.783C265.971 146.065 266.327 145.1 266.327 143.882C266.327 142.57 265.993 141.554 265.325 140.837C264.657 140.119 263.648 139.763 262.291 139.763H257.18V147.856H262.145C263.517 147.856 264.563 147.5 265.267 146.783Z" fill="white"/>
<path d="M274.428 154.556C274.856 154.556 275.277 154.498 275.705 154.382V156.238C275.393 156.354 275.088 156.434 274.791 156.47C274.493 156.506 274.174 156.528 273.847 156.528C272.918 156.528 272.192 156.289 271.669 155.803C271.147 155.317 270.885 154.491 270.885 153.309V136.921H273.237V153.048C273.237 153.628 273.332 154.027 273.528 154.237C273.724 154.447 274.021 154.556 274.428 154.556Z" fill="white"/>
<path d="M290.282 154.556C290.711 154.556 291.132 154.498 291.56 154.382V156.239C291.248 156.355 290.943 156.434 290.631 156.471C290.319 156.507 290.014 156.529 289.702 156.529C288.772 156.529 288.046 156.289 287.524 155.803C287.233 155.535 287.023 155.158 286.885 154.672C286.268 155.332 285.571 155.796 284.794 156.064C283.945 156.376 282.9 156.529 281.658 156.529C280.809 156.529 280.018 156.376 279.292 156.079C278.566 155.782 277.978 155.325 277.535 154.716C277.092 154.107 276.867 153.345 276.867 152.439C276.867 151.185 277.281 150.155 278.101 149.365C278.922 148.574 280.265 148.175 282.123 148.175H286.856V147.363C286.856 146.609 286.754 146.015 286.551 145.579C286.348 145.144 285.97 144.833 285.419 144.637C284.867 144.441 284.061 144.347 282.994 144.347C282.159 144.347 281.361 144.412 280.598 144.55C279.836 144.688 279.11 144.862 278.435 145.072V143.129C279.052 142.897 279.778 142.715 280.613 142.578C281.448 142.44 282.348 142.375 283.313 142.375C285.23 142.375 286.674 142.766 287.64 143.549C288.605 144.332 289.092 145.601 289.092 147.363V153.28C289.128 153.744 289.23 154.063 289.382 154.237C289.578 154.448 289.876 154.556 290.282 154.556ZM286.856 152.642V150.003H282.181C281.114 150.003 280.352 150.198 279.887 150.597C279.422 150.996 279.19 151.605 279.19 152.424C279.19 153.244 279.466 153.817 280.018 154.136C280.569 154.455 281.317 154.614 282.268 154.614C283.219 154.614 284.134 154.433 284.91 154.078C285.687 153.722 286.333 153.244 286.856 152.642Z" fill="white"/>
<path d="M304.786 143.578C305.57 144.383 305.962 145.645 305.962 147.363V156.239H303.61V147.45C303.61 146.254 303.37 145.42 302.899 144.956C302.427 144.492 301.512 144.26 300.155 144.26C299.305 144.26 298.507 144.412 297.759 144.709C297.011 145.007 296.373 145.427 295.828 145.971V156.239H293.476V142.636H295.683L295.741 144.202C296.402 143.658 297.164 143.223 298.035 142.882C298.906 142.541 299.901 142.375 301.026 142.375C302.746 142.375 304.002 142.773 304.786 143.578Z" fill="white"/>
<path d="M669.969 137.617C671.036 137.617 672.002 137.697 672.873 137.849C673.744 138.001 674.564 138.219 675.341 138.487V140.547C674.564 140.257 673.751 140.032 672.887 139.865C672.023 139.698 671.123 139.618 670.172 139.618C668.51 139.618 667.189 139.938 666.209 140.576C665.229 141.214 664.532 142.12 664.104 143.302C663.675 144.484 663.465 145.891 663.465 147.537C663.465 149.821 664.009 151.575 665.091 152.815C666.172 154.055 667.886 154.672 670.23 154.672C671.08 154.672 671.951 154.606 672.844 154.469C673.737 154.331 674.564 154.121 675.341 153.831V155.919C674.586 156.151 673.773 156.332 672.902 156.47C672.031 156.608 671.065 156.673 669.998 156.673C668.002 156.673 666.347 156.296 665.033 155.542C663.719 154.788 662.732 153.722 662.086 152.351C661.439 150.981 661.113 149.371 661.113 147.537C661.113 145.528 661.418 143.773 662.027 142.287C662.637 140.8 663.595 139.647 664.902 138.835C666.209 138.023 667.9 137.617 669.969 137.617Z" fill="white"/>
<path d="M688.742 143.578C689.562 144.383 689.976 145.644 689.976 147.363V156.238H687.624V147.45C687.624 146.254 687.362 145.42 686.84 144.956C686.317 144.491 685.446 144.259 684.226 144.259C683.471 144.259 682.687 144.426 681.874 144.753C681.061 145.079 680.386 145.514 679.842 146.058V156.238H677.49V136.921H679.842V144.114C680.481 143.592 681.228 143.172 682.078 142.853C682.927 142.534 683.914 142.374 685.039 142.374C686.687 142.374 687.921 142.773 688.742 143.578Z" fill="white"/>
<path d="M704.872 147.972V150.525H694.796C694.876 151.569 695.101 152.388 695.478 152.976C695.856 153.563 696.422 153.991 697.177 154.252C697.932 154.513 698.926 154.643 700.168 154.643C701.561 154.643 702.846 154.404 704.03 153.918V155.745C703.427 155.999 702.759 156.188 702.026 156.326C701.293 156.463 700.516 156.529 699.703 156.529C697.286 156.529 695.471 155.948 694.259 154.788C693.046 153.628 692.444 151.83 692.444 149.394C692.444 147.211 692.967 145.492 694.012 144.245C695.057 142.998 696.712 142.375 698.977 142.375C700.313 142.375 701.416 142.614 702.287 143.1C703.158 143.585 703.805 144.253 704.233 145.101C704.661 145.949 704.872 146.906 704.872 147.972ZM702.781 148.842V147.711C702.781 146.609 702.491 145.761 701.91 145.159C701.329 144.557 700.371 144.26 699.035 144.26C697.387 144.26 696.269 144.644 695.681 145.405C695.093 146.167 694.796 147.312 694.796 148.842H702.781Z" fill="white"/>
<path d="M714.483 154.643C715.797 154.643 717.016 154.389 718.141 153.889V155.774C717.539 156.028 716.9 156.217 716.225 156.34C715.55 156.463 714.78 156.529 713.931 156.529C711.572 156.529 709.815 155.912 708.661 154.687C707.507 153.461 706.933 151.714 706.933 149.452C706.933 147.051 707.586 145.275 708.893 144.115C710.2 142.955 711.949 142.375 714.134 142.375C715.042 142.375 715.797 142.433 716.385 142.549C716.973 142.665 717.553 142.86 718.112 143.129V145.014C717.067 144.514 715.884 144.26 714.57 144.26C712.886 144.26 711.586 144.659 710.664 145.449C709.742 146.239 709.285 147.574 709.285 149.452C709.285 151.33 709.684 152.562 710.49 153.396C711.296 154.23 712.624 154.643 714.483 154.643Z" fill="white"/>
<path d="M726.33 148.03L732.224 156.238H729.756L724.82 149.306L722.787 151.22V156.238H720.435V136.921H722.787V148.639L729.175 142.635H731.905L726.33 148.03Z" fill="white"/>
</svg>
