<svg width="90" height="90" viewBox="0 0 90 90" fill="none" xmlns="http://www.w3.org/2000/svg">
<g clip-path="url(#clip0_153_9528)">
<path d="M89.8099 81.2002L68.0099 43.4502C67.7599 43.0102 67.2899 42.7502 66.7899 42.7502C66.2899 42.7502 65.8199 43.0202 65.5699 43.4502L60.3999 52.4002L46.4499 28.2302V22.3202H61.3499C61.8699 22.3202 62.3499 22.0302 62.5899 21.5702C62.8299 21.1102 62.7999 20.5502 62.5099 20.1202L59.1899 15.2802L62.5099 10.4402C62.8099 10.0102 62.8399 9.4502 62.5899 8.9902C62.3399 8.5302 61.8699 8.2402 61.3499 8.2402H46.4499V8.1102C46.4499 7.3302 45.8199 6.7002 45.0399 6.7002C44.2599 6.7002 43.6299 7.3302 43.6299 8.1102V28.2402L29.6299 52.4902L24.4099 43.4502C24.1599 43.0102 23.6899 42.7502 23.1899 42.7502C22.6899 42.7502 22.2199 43.0202 21.9699 43.4502L0.189941 81.2002C-0.0600586 81.6402 -0.0600586 82.1702 0.189941 82.6102C0.439941 83.0502 0.909941 83.3102 1.40994 83.3102H88.5999C89.0999 83.3102 89.5699 83.0402 89.8199 82.6102C90.0699 82.1702 90.0699 81.6402 89.8199 81.2002H89.8099ZM58.6799 11.0502L56.3299 14.4802C55.9999 14.9602 55.9999 15.5902 56.3299 16.0702L58.6799 19.5002H46.4499V11.0502H58.6799ZM3.83994 80.4902L23.1999 46.9602L34.8599 67.1502C35.1199 67.6002 35.5899 67.8502 36.0799 67.8502C36.3199 67.8502 36.5599 67.7902 36.7799 67.6602C37.4499 67.2702 37.6799 66.4102 37.2899 65.7402L31.2599 55.2902L45.0499 31.4102L65.6299 67.0502C65.8899 67.5002 66.3599 67.7502 66.8499 67.7502C67.0899 67.7502 67.3299 67.6902 67.5499 67.5602C68.2199 67.1702 68.4499 66.3102 68.0599 65.6402L62.0299 55.1902L66.7899 46.9402L86.1499 80.4702H3.83994V80.4902Z" fill="#469A45"/>
</g>
<defs>
<clipPath id="clip0_153_9528">
<rect width="90" height="90" fill="white"/>
</clipPath>
</defs>
</svg>
