<svg width="80" height="80" viewBox="0 0 80 80" fill="none" xmlns="http://www.w3.org/2000/svg">
<path fill-rule="evenodd" clip-rule="evenodd" d="M29.9118 5C29.5618 5.0014 29.2267 5.14199 28.9802 5.39085C28.7337 5.6397 28.596 5.97644 28.5973 6.327V21.2157C28.5987 21.5645 28.7376 21.8985 28.9838 22.1452C29.2301 22.3918 29.5636 22.531 29.9118 22.5324H49.8638C50.212 22.531 50.5456 22.3918 50.7918 22.1452C51.038 21.8986 51.1769 21.5645 51.1783 21.2157V6.327C51.1797 5.97644 51.0419 5.6397 50.7954 5.39084C50.5489 5.14199 50.2138 5.0014 49.8638 5H29.9118ZM31.2289 7.64367H48.539V19.8887H31.2289V7.64367ZM19.767 8.36138C19.5928 8.35492 19.4191 8.38307 19.2558 8.44422C19.0926 8.50536 18.9431 8.59829 18.8159 8.71764C18.6892 8.83665 18.5872 8.97954 18.5158 9.13811C18.4443 9.29668 18.4048 9.46782 18.3996 9.64172C18.3943 9.81561 18.4234 9.98883 18.4851 10.1515C18.5468 10.3141 18.6399 10.4629 18.7592 10.5894L20.4861 12.443H8.09113C7.91696 12.4424 7.74438 12.4762 7.58334 12.5427C7.4223 12.6091 7.27598 12.7068 7.15282 12.8302C7.02967 12.9535 6.93211 13.1001 6.86577 13.2614C6.79944 13.4227 6.76564 13.5956 6.76632 13.77C6.76665 13.9438 6.80121 14.1159 6.868 14.2763C6.93479 14.4367 7.03252 14.5823 7.15557 14.7049C7.27862 14.8274 7.4246 14.9244 7.58513 14.9904C7.74567 15.0564 7.91761 15.09 8.09113 15.0893H20.4938L18.7592 16.9533C18.6399 17.0798 18.5468 17.2286 18.4851 17.3912C18.4234 17.5538 18.3943 17.727 18.3996 17.9009C18.4048 18.0748 18.4443 18.246 18.5158 18.4045C18.5872 18.5631 18.6892 18.706 18.8159 18.825C18.9429 18.9442 19.0922 19.0371 19.2551 19.0982C19.4181 19.1594 19.5915 19.1877 19.7654 19.1814C19.9394 19.1752 20.1103 19.1346 20.2685 19.0619C20.4267 18.9892 20.569 18.8859 20.6871 18.7579L24.4863 14.6685C24.7145 14.4236 24.8415 14.1011 24.8415 13.7661C24.8415 13.4312 24.7145 13.1087 24.4863 12.8638L20.6871 8.78475C20.5691 8.65697 20.4271 8.55379 20.2692 8.48113C20.1113 8.40847 19.9406 8.3678 19.767 8.36138ZM37.1106 12.4431C36.9364 12.4424 36.7639 12.4762 36.6028 12.5427C36.4418 12.6091 36.2955 12.7068 36.1723 12.8302C36.0491 12.9536 35.9516 13.1001 35.8852 13.2614C35.8189 13.4227 35.7851 13.5956 35.7858 13.7701C35.7861 13.9439 35.8207 14.1159 35.8875 14.2763C35.9543 14.4367 36.052 14.5824 36.175 14.7049C36.2981 14.8274 36.4441 14.9245 36.6046 14.9904C36.7651 15.0564 36.9371 15.09 37.1106 15.0893H42.665C43.0137 15.0879 43.3476 14.9484 43.5939 14.7012C43.8402 14.4541 43.9788 14.1193 43.9795 13.7701C43.9802 13.5965 43.9467 13.4244 43.881 13.2638C43.8153 13.1032 43.7187 12.9571 43.5966 12.8339C43.4746 12.7106 43.3295 12.6127 43.1696 12.5456C43.0098 12.4786 42.8383 12.4437 42.665 12.4431H37.1106ZM56.8667 12.4431C56.6926 12.4424 56.52 12.4762 56.3589 12.5427C56.1979 12.6091 56.0516 12.7068 55.9284 12.8302C55.8053 12.9536 55.7077 13.1001 55.6414 13.2614C55.5751 13.4227 55.5412 13.5956 55.5419 13.7701C55.5423 13.9439 55.5768 14.1159 55.6436 14.2763C55.7104 14.4367 55.8081 14.5824 55.9312 14.7049C56.0542 14.8274 56.2002 14.9245 56.3607 14.9904C56.5213 15.0564 56.6932 15.09 56.8667 15.0893H63.8903C70.42 15.0893 75.6306 20.3271 75.6306 26.8851C75.6306 33.4431 70.42 38.6835 63.8903 38.6835H59.3643L61.1041 36.8195C61.2231 36.6923 61.3158 36.5428 61.3768 36.3795C61.4379 36.2163 61.4661 36.0426 61.4599 35.8684C61.4537 35.6942 61.4131 35.5229 61.3405 35.3645C61.268 35.206 61.1648 35.0635 61.037 34.9452C60.781 34.7076 60.4415 34.5813 60.0927 34.5939C59.744 34.6065 59.4144 34.7569 59.1761 35.0123L55.3666 39.1017C55.1384 39.3466 55.0114 39.6691 55.0114 40.0041C55.0114 40.339 55.1384 40.6615 55.3666 40.9064L59.1761 44.9854C59.414 45.2412 59.7434 45.3921 60.0922 45.4052C60.441 45.4182 60.7807 45.2924 61.037 45.0551C61.1648 44.9368 61.268 44.7943 61.3405 44.6359C61.4131 44.4774 61.4537 44.3062 61.4599 44.132C61.4661 43.9577 61.4379 43.784 61.3768 43.6208C61.3158 43.4575 61.2231 43.308 61.1041 43.1808L59.3746 41.3272H63.8903C71.8393 41.3272 78.2699 34.8591 78.2699 26.8851C78.2699 18.9111 71.8393 12.4431 63.8903 12.4431H56.8667ZM29.9118 31.2275C29.5618 31.2289 29.2267 31.3695 28.9802 31.6184C28.7337 31.8672 28.596 32.204 28.5973 32.5545V47.4458C28.596 47.7964 28.7337 48.1331 28.9802 48.3819C29.2267 48.6308 29.5618 48.7714 29.9118 48.7728H49.8638C50.2138 48.7714 50.5489 48.6308 50.7954 48.3819C51.0419 48.1331 51.1797 47.7964 51.1783 47.4458V32.5545C51.1797 32.204 51.0419 31.8672 50.7954 31.6184C50.5489 31.3695 50.2138 31.2289 49.8638 31.2275H29.9118ZM31.2289 33.8712H48.539V46.1265H31.2289V33.8712ZM16.1173 38.6835C8.16825 38.6835 1.72998 45.1387 1.72998 53.1126C1.72998 61.0866 8.16825 67.5547 16.1173 67.5547H20.4886L18.7592 69.4187C18.5207 69.6738 18.3928 70.0131 18.4034 70.3624C18.4141 70.7117 18.5624 71.0426 18.8159 71.2827C18.943 71.4017 19.0924 71.4944 19.2555 71.5553C19.4186 71.6163 19.5921 71.6443 19.766 71.6378C19.9399 71.6314 20.1108 71.5905 20.2689 71.5176C20.427 71.4447 20.5691 71.3411 20.6871 71.213L24.4863 67.1365C24.7153 66.8915 24.8427 66.5685 24.8427 66.2329C24.8427 65.8973 24.7153 65.5742 24.4863 65.3293L20.6871 61.2424C20.5683 61.1145 20.4253 61.0115 20.2665 60.9392C20.1077 60.867 19.9362 60.827 19.7618 60.8216C19.5881 60.8165 19.4152 60.8458 19.2529 60.9079C19.0905 60.9699 18.942 61.0634 18.8159 61.1831C18.5624 61.4232 18.4141 61.754 18.4034 62.1034C18.3928 62.4527 18.5207 62.792 18.7592 63.0471L20.4938 64.911H16.1173C9.58764 64.911 4.36929 59.6706 4.36929 53.1126C4.36929 46.5547 9.58764 41.3272 16.1173 41.3272H23.1331C23.3073 41.3278 23.4799 41.294 23.6409 41.2275C23.8019 41.1611 23.9483 41.0634 24.0714 40.94C24.1946 40.8167 24.2921 40.6701 24.3585 40.5088C24.4248 40.3475 24.4586 40.1746 24.4579 40.0002C24.4572 39.8266 24.4224 39.6548 24.3555 39.4947C24.2885 39.3346 24.1908 39.1893 24.0677 39.067C23.9447 38.9447 23.7989 38.8479 23.6385 38.7821C23.4781 38.7163 23.3064 38.6828 23.1331 38.6835H16.1173ZM37.1106 38.6835C36.9373 38.6828 36.7656 38.7163 36.6052 38.7821C36.4448 38.8479 36.299 38.9447 36.176 39.067C36.0529 39.1893 35.9552 39.3346 35.8882 39.4947C35.8213 39.6548 35.7865 39.8266 35.7858 40.0002C35.7851 40.1746 35.8189 40.3475 35.8852 40.5088C35.9516 40.6701 36.0491 40.8167 36.1723 40.94C36.2955 41.0634 36.4418 41.1611 36.6028 41.2275C36.7639 41.294 36.9364 41.3278 37.1106 41.3272H42.665C42.8383 41.3265 43.0098 41.2916 43.1696 41.2246C43.3295 41.1575 43.4746 41.0596 43.5966 40.9364C43.7187 40.8131 43.8153 40.667 43.881 40.5064C43.9467 40.3458 43.9802 40.1737 43.9795 40.0002C43.9781 39.6514 43.8392 39.3173 43.593 39.0706C43.3468 38.824 43.0132 38.6849 42.665 38.6835H37.1106ZM29.9118 57.4654C29.5636 57.4668 29.2301 57.6059 28.9838 57.8526C28.7376 58.0992 28.5987 58.4333 28.5973 58.782V73.6733C28.596 74.0239 28.7337 74.3606 28.9802 74.6095C29.2267 74.8583 29.5618 74.9989 29.9118 75.0003H49.8638C50.2138 74.9989 50.5489 74.8583 50.7954 74.6095C51.0419 74.3606 51.1796 74.0239 51.1783 73.6733V58.782C51.1769 58.4333 51.038 58.0992 50.7918 57.8526C50.5455 57.6059 50.212 57.4668 49.8638 57.4654H29.9118ZM31.2289 60.109H48.539V72.3567H31.2289V60.109ZM68.009 60.8268C67.6599 60.8158 67.3207 60.9439 67.0657 61.183C66.8107 61.4217 66.6605 61.7518 66.648 62.1011C66.6354 62.4505 66.7615 62.7906 66.9987 63.047L68.741 64.911H56.3306C55.9824 64.9124 55.6488 65.0515 55.4026 65.2981C55.1564 65.5448 55.0175 65.8789 55.0161 66.2277C55.0147 66.5782 55.1525 66.915 55.399 67.1639C55.6455 67.4127 55.9806 67.5533 56.3306 67.5547H68.7359L66.9987 69.4187C66.7615 69.6751 66.6354 70.0152 66.648 70.3645C66.6605 70.7138 66.8107 71.044 67.0657 71.2826C67.322 71.5199 67.6618 71.6457 68.0105 71.6327C68.3593 71.6196 68.6887 71.4687 68.9266 71.213L72.7361 67.1365C72.9651 66.8915 73.0925 66.5685 73.0925 66.2329C73.0925 65.8973 72.9651 65.5742 72.7361 65.3293L68.9266 61.2424C68.6876 60.9878 68.3577 60.8384 68.009 60.8268ZM37.1106 64.911C36.9373 64.9103 36.7656 64.9438 36.6052 65.0096C36.4448 65.0754 36.299 65.1722 36.1759 65.2945C36.0529 65.4168 35.9552 65.5621 35.8882 65.7222C35.8213 65.8823 35.7865 66.0541 35.7858 66.2277C35.7851 66.4021 35.8189 66.575 35.8852 66.7363C35.9516 66.8976 36.0491 67.0442 36.1723 67.1675C36.2955 67.2909 36.4418 67.3886 36.6028 67.4551C36.7639 67.5215 36.9364 67.5554 37.1106 67.5547H42.665C42.8383 67.554 43.0098 67.5191 43.1696 67.4521C43.3295 67.385 43.4746 67.2871 43.5966 67.1639C43.7187 67.0406 43.8153 66.8946 43.881 66.7339C43.9467 66.5733 43.9802 66.4013 43.9795 66.2277C43.9781 65.8789 43.8392 65.5448 43.593 65.2982C43.3468 65.0515 43.0132 64.9124 42.665 64.911H37.1106Z" fill="#469A45"/>
</svg>
