<svg width="80" height="80" viewBox="0 0 80 80" fill="none" xmlns="http://www.w3.org/2000/svg">
<path d="M34.9667 7.43333L18.3334 13.6667C14.5 15.1 11.3667 19.6333 11.3667 23.7333V48.5C11.3667 52.4333 13.9667 57.6 17.1334 59.9667L31.4667 70.6667C36.1667 74.2 43.9 74.2 48.6 70.6667L62.9334 59.9667C66.1 57.6 68.7 52.4333 68.7 48.5V23.7333C68.7 19.6333 65.5666 15.1 61.7333 13.6667L45.1 7.43333C42.2667 6.39999 37.7333 6.39999 34.9667 7.43333Z" stroke="#F79839" stroke-width="1.5" stroke-linecap="round" stroke-linejoin="round"/>
<path d="M39.9998 51.6667C47.3636 51.6667 53.3332 45.6971 53.3332 38.3333C53.3332 30.9695 47.3636 25 39.9998 25C32.636 25 26.6665 30.9695 26.6665 38.3333C26.6665 45.6971 32.636 51.6667 39.9998 51.6667Z" stroke="#F79839" stroke-width="1.5" stroke-miterlimit="10" stroke-linecap="round" stroke-linejoin="round"/>
<path d="M40.8332 34.1666V37.2666C40.8332 38.4333 40.2332 39.5333 39.1999 40.1333L36.6665 41.6666" stroke="#F79839" stroke-width="1.5" stroke-miterlimit="10" stroke-linecap="round" stroke-linejoin="round"/>
</svg>
