<svg width="80" height="80" viewBox="0 0 80 80" fill="none" xmlns="http://www.w3.org/2000/svg">
<path d="M16.6665 30V53.3333" stroke="#F79839" stroke-width="1.5" stroke-linecap="round" stroke-linejoin="round"/>
<path d="M17.4998 28.3333C23.4829 28.3333 28.3332 23.483 28.3332 17.5C28.3332 11.5169 23.4829 6.66663 17.4998 6.66663C11.5168 6.66663 6.6665 11.5169 6.6665 17.5C6.6665 23.483 11.5168 28.3333 17.4998 28.3333Z" stroke="#F79839" stroke-width="1.5" stroke-linecap="round" stroke-linejoin="round"/>
<path d="M16.6665 73.3334C22.1894 73.3334 26.6665 68.8562 26.6665 63.3334C26.6665 57.8105 22.1894 53.3334 16.6665 53.3334C11.1437 53.3334 6.6665 57.8105 6.6665 63.3334C6.6665 68.8562 11.1437 73.3334 16.6665 73.3334Z" stroke="#F79839" stroke-width="1.5" stroke-linecap="round" stroke-linejoin="round"/>
<path d="M63.3335 73.3334C68.8563 73.3334 73.3335 68.8562 73.3335 63.3334C73.3335 57.8105 68.8563 53.3334 63.3335 53.3334C57.8106 53.3334 53.3335 57.8105 53.3335 63.3334C53.3335 68.8562 57.8106 73.3334 63.3335 73.3334Z" stroke="#F79839" stroke-width="1.5" stroke-linecap="round" stroke-linejoin="round"/>
<path d="M17.1001 30C18.6001 35.8333 23.9334 40.1667 30.2334 40.1334L41.6668 40.1C50.4001 40.0667 57.8334 45.6667 60.5668 53.4667" stroke="#F79839" stroke-width="1.5" stroke-linecap="round" stroke-linejoin="round"/>
</svg>
