<svg width="80" height="80" viewBox="0 0 80 80" fill="none" xmlns="http://www.w3.org/2000/svg">
<path d="M35.8331 8.16665C38.1664 6.19998 41.9331 6.19998 44.1998 8.16665L49.4664 12.6666C50.4664 13.5 52.3664 14.2 53.6998 14.2H59.3664C62.8998 14.2 65.7998 17.1 65.7998 20.6333V26.3C65.7998 27.6333 66.4998 29.5 67.3331 30.5L71.8331 35.7666C73.7998 38.1 73.7998 41.8666 71.8331 44.1333L67.3331 49.4C66.4998 50.4 65.7998 52.2667 65.7998 53.6V59.2667C65.7998 62.8 62.8998 65.7 59.3664 65.7H53.6998C52.3664 65.7 50.4998 66.4 49.4998 67.2333L44.2331 71.7333C41.8998 73.7 38.1331 73.7 35.8664 71.7333L30.5998 67.2333C29.5998 66.4 27.6998 65.7 26.3998 65.7H20.5664C17.0331 65.7 14.1331 62.8 14.1331 59.2667V53.5666C14.1331 52.2666 13.4664 50.3666 12.6331 49.4L8.13311 44.1C6.19977 41.8 6.19977 38.0666 8.13311 35.7666L12.6331 30.4667C13.4664 29.4667 14.1331 27.6 14.1331 26.3V20.6666C14.1331 17.1333 17.0331 14.2333 20.5664 14.2333H26.3331C27.6664 14.2333 29.5331 13.5333 30.5331 12.7L35.8331 8.16665Z" stroke="#F79839" stroke-width="1.5" stroke-linecap="round" stroke-linejoin="round"/>
<path d="M40 27.1V43.2" stroke="#F79839" stroke-width="1.5" stroke-linecap="round" stroke-linejoin="round"/>
<path d="M39.9814 53.3334H40.0114" stroke="#F79839" stroke-width="2" stroke-linecap="round" stroke-linejoin="round"/>
</svg>
