<svg width="80" height="80" viewBox="0 0 80 80" fill="none" xmlns="http://www.w3.org/2000/svg">
<path d="M64.3335 26.3999V43.5667C64.3335 53.8334 58.4669 58.2332 49.6669 58.2332H20.3668C18.8668 58.2332 17.4335 58.1001 16.1002 57.8001C15.2668 57.6668 14.4669 57.4334 13.7335 57.1667C8.73354 55.3001 5.7002 50.9667 5.7002 43.5667V26.3999C5.7002 16.1333 11.5668 11.7334 20.3668 11.7334H49.6669C57.1335 11.7334 62.5002 14.9 63.9335 22.1334C64.1669 23.4667 64.3335 24.8333 64.3335 26.3999Z" stroke="#F79839" stroke-width="1.5" stroke-miterlimit="10" stroke-linecap="round" stroke-linejoin="round"/>
<path d="M74.3373 36.4003V53.5671C74.3373 63.8338 68.4707 68.2336 59.6707 68.2336H30.3707C27.904 68.2336 25.6707 67.9005 23.7374 67.1672C19.7707 65.7005 17.0707 62.6672 16.104 57.8005C17.4373 58.1005 18.8707 58.2336 20.3707 58.2336H49.6707C58.4707 58.2336 64.3373 53.8338 64.3373 43.5671V26.4003C64.3373 24.8337 64.204 23.4338 63.9374 22.1338C70.2707 23.4671 74.3373 27.9337 74.3373 36.4003Z" stroke="#F79839" stroke-width="1.5" stroke-miterlimit="10" stroke-linecap="round" stroke-linejoin="round"/>
<path d="M34.9949 43.7997C39.855 43.7997 43.7949 39.8597 43.7949 34.9996C43.7949 30.1395 39.855 26.1996 34.9949 26.1996C30.1348 26.1996 26.1948 30.1395 26.1948 34.9996C26.1948 39.8597 30.1348 43.7997 34.9949 43.7997Z" stroke="#F79839" stroke-width="1.5" stroke-miterlimit="10" stroke-linecap="round" stroke-linejoin="round"/>
<path d="M15.9336 27.6666V42.3334" stroke="#F79839" stroke-width="1.5" stroke-miterlimit="10" stroke-linecap="round" stroke-linejoin="round"/>
<path d="M54.0728 27.6676V42.3344" stroke="#F79839" stroke-width="1.5" stroke-miterlimit="10" stroke-linecap="round" stroke-linejoin="round"/>
</svg>
