<svg width="90" height="90" viewBox="0 0 90 90" fill="none" xmlns="http://www.w3.org/2000/svg">
<g clip-path="url(#clip0_153_2122)">
<path fill-rule="evenodd" clip-rule="evenodd" d="M30.2801 67.8598C28.8601 67.8598 27.7001 66.6998 27.7001 65.2798C27.7001 63.8598 28.8601 62.6998 30.2801 62.6998C31.7001 62.6998 32.8701 63.8598 32.8701 65.2798C32.8701 66.6998 31.7101 67.8598 30.2801 67.8598ZM30.2801 60.2598C27.5201 60.2598 25.2701 62.5098 25.2701 65.2798C25.2701 67.8398 27.2001 69.9598 29.6901 70.2598C29.4201 75.9798 27.3401 80.8098 25.3301 85.4898C24.9201 86.4398 24.5101 87.3898 24.1201 88.3298C23.8701 88.9498 24.1601 89.6598 24.7801 89.9198C24.9301 89.9798 25.0801 90.0098 25.2401 90.0098C25.7201 90.0098 26.1701 89.7298 26.3701 89.2598C26.7501 88.3298 27.1501 87.3898 27.5601 86.4498C29.7101 81.4498 31.9301 76.2898 32.1301 69.9398C33.9901 69.1998 35.3101 67.3898 35.3101 65.2798C35.3101 62.5098 33.0601 60.2598 30.2901 60.2598H30.2801ZM59.1801 62.9598C60.6101 62.9598 61.7601 64.1198 61.7601 65.5398C61.7601 66.9598 60.6001 68.1198 59.1801 68.1198C57.7601 68.1198 56.6001 66.9598 56.6001 65.5398C56.6001 64.1198 57.7601 62.9598 59.1801 62.9598ZM59.1801 70.5598C61.9501 70.5598 64.2001 68.3098 64.2001 65.5398C64.2001 62.7698 61.9501 60.5198 59.1801 60.5198C56.4101 60.5198 54.1601 62.7698 54.1601 65.5398C54.1601 65.6998 54.1601 65.8598 54.1801 66.0198C45.0901 69.8698 39.9101 76.8498 37.4901 88.5398C37.3501 89.1998 37.7701 89.8398 38.4301 89.9798C38.5101 89.9998 38.5901 89.9998 38.6701 89.9998C39.2401 89.9998 39.7401 89.5998 39.8601 89.0298C42.0901 78.2698 46.7801 71.8398 54.9901 68.3098C55.8901 69.6598 57.4201 70.5498 59.1601 70.5498L59.1801 70.5598ZM82.3201 53.6598C82.6001 52.4198 82.2201 51.1198 81.1701 49.7798C81.1501 49.7598 81.1301 49.7298 81.1101 49.7098C79.1601 47.5898 77.5901 45.4198 76.4601 43.2398C75.4801 41.3598 75.1201 39.4998 75.3401 37.3898C75.4501 36.2598 75.5101 35.1098 75.5101 33.9598C75.5101 15.2398 60.2801 0.00976562 41.5601 0.00976562C22.8401 0.00976562 7.6001 15.2298 7.6001 33.9498C7.6001 41.9798 10.4601 49.7698 15.6401 55.8898C17.0501 57.5498 17.8101 59.3298 18.0501 61.4898C18.8901 69.1998 16.8001 78.4498 11.9901 88.2498C11.6901 88.8498 11.9401 89.5798 12.5401 89.8798C12.7201 89.9598 12.9001 89.9998 13.0801 89.9998C13.5301 89.9998 13.9601 89.7498 14.1701 89.3198C19.1901 79.1098 21.3701 69.3998 20.4701 61.2298C20.1801 58.5598 19.2301 56.3698 17.5001 54.3298C12.6801 48.6498 10.0401 41.4198 10.0401 33.9598C10.0401 16.5798 24.1801 2.43977 41.5601 2.43977C58.9401 2.43977 73.0801 16.5798 73.0801 33.9598C73.0801 35.0198 73.0301 36.0898 72.9201 37.1398C72.6601 39.7398 73.1001 42.0398 74.3101 44.3598C75.5301 46.7098 77.2101 49.0498 79.3001 51.3198C79.8501 52.0298 80.0701 52.6398 79.9601 53.1198C79.8201 53.7298 79.1001 54.3698 77.8601 54.9798C75.0801 56.4198 75.4901 59.2898 76.2501 61.9098C76.2501 61.9398 76.2701 61.9698 76.2801 61.9998C76.1201 62.5098 74.4801 63.6198 72.8701 63.7498C72.3301 63.7898 71.8901 64.1798 71.7801 64.7098C71.6701 65.2398 71.9101 65.7798 72.3901 66.0298C74.5001 67.1698 75.5101 68.3098 75.5501 68.8798C75.5501 68.9498 75.5701 69.1498 75.1401 69.4798C73.5701 70.6598 72.9201 72.7598 72.8901 76.7998C72.9201 77.3498 72.7301 77.5898 72.5701 77.7298C72.1701 78.0798 70.7401 78.7998 65.9401 77.9698C61.2401 76.8998 57.4301 77.3098 54.6101 79.1798C51.8801 80.9898 50.1001 84.1498 49.3101 88.5898C49.1901 89.2498 49.6301 89.8798 50.3001 89.9998C50.9601 90.1098 51.5901 89.6798 51.7101 89.0198C52.3801 85.2598 53.8101 82.6398 55.9601 81.2098C58.2001 79.7198 61.3801 79.4298 65.4701 80.3598C69.9201 81.1398 72.7001 80.8798 74.1901 79.5598C74.7501 79.0698 75.4001 78.1698 75.3301 76.7598C75.3501 72.8598 76.0201 71.8698 76.6201 71.4198C77.8501 70.4698 78.0401 69.4098 77.9801 68.6898C77.8801 67.4298 76.9701 66.3098 75.8401 65.3898C76.8801 64.8898 77.8201 64.1798 78.3301 63.3398C78.7501 62.6298 78.8401 61.8598 78.5801 61.1698C77.6201 57.8498 78.3801 57.4598 78.9601 57.1598C80.8801 56.2198 82.0201 55.0398 82.3401 53.6698L82.3201 53.6598ZM30.1501 50.9898C29.8001 50.7598 29.3601 50.7198 28.9701 50.8898L25.5401 52.4198L23.1001 49.9898L24.6301 46.5498C24.8001 46.1698 24.7601 45.7298 24.5301 45.3798C23.0101 43.1098 21.9701 40.6098 21.4501 37.9398C21.3701 37.5298 21.0801 37.1898 20.6901 37.0398L17.1901 35.6898V32.2398L20.7001 30.8898C21.0901 30.7398 21.3701 30.3998 21.4601 29.9898C21.9801 27.3198 23.0201 24.8198 24.5401 22.5498C24.7701 22.1998 24.8101 21.7598 24.6401 21.3798L23.1101 17.9398L25.5501 15.5098L28.9801 17.0398C29.3701 17.2098 29.8001 17.1698 30.1601 16.9398C32.4201 15.4198 34.9301 14.3798 37.6001 13.8598C38.0101 13.7798 38.3501 13.4898 38.5001 13.0998L39.8501 9.58977H43.2901L44.6401 13.0998C44.7901 13.4898 45.1301 13.7798 45.5401 13.8598C48.2101 14.3798 50.7101 15.4198 52.9801 16.9398C53.3301 17.1698 53.7701 17.2098 54.1601 17.0398L57.5901 15.5098L60.0301 17.9398L58.5001 21.3798C58.3301 21.7598 58.3701 22.1998 58.6001 22.5498C60.1201 24.8198 61.1601 27.3198 61.6801 29.9898C61.7601 30.3998 62.0501 30.7398 62.4401 30.8898L65.9501 32.2398V35.6898L62.4401 37.0398C62.0501 37.1898 61.7701 37.5298 61.6801 37.9398C61.1601 40.5998 60.1201 43.1098 58.6001 45.3798C58.3701 45.7298 58.3301 46.1698 58.5001 46.5498L60.0301 49.9898L57.5901 52.4198L54.1601 50.8898C53.7701 50.7198 53.3401 50.7598 52.9901 50.9898C50.7201 52.5098 48.2201 53.5498 45.5501 54.0698C45.1401 54.1498 44.8001 54.4398 44.6501 54.8298L43.3001 58.3398H39.8601L38.5101 54.8298C38.3601 54.4398 38.0201 54.1498 37.6101 54.0698C34.9401 53.5398 32.4401 52.5098 30.1701 50.9898H30.1501ZM39.0001 60.7698C38.5001 60.7698 38.0401 60.4598 37.8601 59.9898L36.4501 56.3198C33.9301 55.7498 31.5501 54.7598 29.3601 53.3798L25.7601 54.9798C25.3001 55.1798 24.7601 55.0798 24.4001 54.7298L20.7801 51.1098C20.4201 50.7498 20.3201 50.2098 20.5301 49.7598L22.1301 46.1598C20.7501 43.9698 19.7601 41.5898 19.1901 39.0698L15.5201 37.6598C15.0501 37.4798 14.7401 37.0298 14.7401 36.5198V31.3998C14.7401 30.8998 15.0501 30.4498 15.5201 30.2598L19.1901 28.8498C19.7701 26.3298 20.7501 23.9498 22.1301 21.7598L20.5301 18.1598C20.3301 17.6998 20.4301 17.1598 20.7801 16.8098L24.4001 13.1898C24.7601 12.8298 25.2901 12.7398 25.7501 12.9398L29.3501 14.5398C31.5501 13.1598 33.9201 12.1698 36.4401 11.5998L37.8501 7.92977C38.0301 7.45977 38.4801 7.14977 38.9901 7.14977H44.1001C44.6001 7.14977 45.0601 7.45977 45.2401 7.92977L46.6501 11.5998C49.1701 12.1698 51.5501 13.1598 53.7401 14.5398L57.3401 12.9398C57.8001 12.7398 58.3401 12.8398 58.7001 13.1898L62.3101 16.8098C62.6701 17.1698 62.7701 17.6998 62.5601 18.1598L60.9601 21.7598C62.3401 23.9498 63.3301 26.3298 63.9001 28.8498L67.5701 30.2598C68.0401 30.4398 68.3501 30.8898 68.3501 31.3998V36.5198C68.3501 37.0198 68.0401 37.4698 67.5701 37.6598L63.9001 39.0698C63.3301 41.5898 62.3401 43.9698 60.9601 46.1598L62.5601 49.7598C62.7701 50.2198 62.6701 50.7598 62.3101 51.1098L58.7001 54.7298C58.3401 55.0898 57.8001 55.1798 57.3401 54.9798L53.7401 53.3798C51.5501 54.7598 49.1701 55.7498 46.6501 56.3198L45.2401 59.9898C45.0601 60.4598 44.6101 60.7698 44.1001 60.7698H38.9901H39.0001ZM28.8401 33.9598C28.8401 26.9498 34.5401 21.2398 41.5501 21.2398C48.5601 21.2398 54.2601 26.9398 54.2601 33.9598C54.2601 40.9798 48.5601 46.6698 41.5501 46.6698C34.5401 46.6698 28.8401 40.9698 28.8401 33.9598ZM56.7001 33.9598C56.7001 42.3098 49.9001 49.1098 41.5501 49.1098C33.2001 49.1098 26.4101 42.3198 26.4101 33.9598C26.4101 25.5998 33.2001 18.8098 41.5501 18.8098C49.9001 18.8098 56.7001 25.5998 56.7001 33.9598Z" fill="#F79839"/>
</g>
<defs>
<clipPath id="clip0_153_2122">
<rect width="90" height="90" fill="white"/>
</clipPath>
</defs>
</svg>
