<svg width="80" height="80" viewBox="0 0 80 80" fill="none" xmlns="http://www.w3.org/2000/svg">
<path d="M40 50C45.5228 50 50 45.5228 50 40C50 34.4772 45.5228 30 40 30C34.4772 30 30 34.4772 30 40C30 45.5228 34.4772 50 40 50Z" stroke="#F79839" stroke-width="1.5" stroke-miterlimit="10" stroke-linecap="round" stroke-linejoin="round"/>
<path d="M6.6665 42.9333V37.0667C6.6665 33.6 9.49984 30.7333 12.9998 30.7333C19.0332 30.7333 21.4998 26.4667 18.4665 21.2333C16.7332 18.2333 17.7665 14.3333 20.7998 12.6L26.5665 9.29999C29.1998 7.73332 32.5998 8.66666 34.1665 11.3L34.5332 11.9333C37.5332 17.1667 42.4665 17.1667 45.4998 11.9333L45.8665 11.3C47.4332 8.66666 50.8332 7.73332 53.4665 9.29999L59.2332 12.6C62.2665 14.3333 63.2998 18.2333 61.5665 21.2333C58.5332 26.4667 60.9998 30.7333 67.0332 30.7333C70.4998 30.7333 73.3665 33.5667 73.3665 37.0667V42.9333C73.3665 46.4 70.5332 49.2667 67.0332 49.2667C60.9998 49.2667 58.5332 53.5333 61.5665 58.7667C63.2998 61.8 62.2665 65.6667 59.2332 67.4L53.4665 70.7C50.8332 72.2667 47.4332 71.3333 45.8665 68.7L45.4998 68.0667C42.4998 62.8333 37.5665 62.8333 34.5332 68.0667L34.1665 68.7C32.5998 71.3333 29.1998 72.2667 26.5665 70.7L20.7998 67.4C17.7665 65.6667 16.7332 61.7667 18.4665 58.7667C21.4998 53.5333 19.0332 49.2667 12.9998 49.2667C9.49984 49.2667 6.6665 46.4 6.6665 42.9333Z" stroke="#F79839" stroke-width="1.5" stroke-miterlimit="10" stroke-linecap="round" stroke-linejoin="round"/>
</svg>
