<svg width="90" height="90" viewBox="0 0 90 90" fill="none" xmlns="http://www.w3.org/2000/svg">
<g clip-path="url(#clip0_153_2088)">
<path d="M47 75.7701C45.79 75.7701 44.63 75.3301 43.72 74.5201C42.73 73.6401 42.15 72.4301 42.07 71.1201L40.95 54.1301C40.92 53.6501 40.65 53.2201 40.23 52.9701L25.61 44.2201C24.68 43.6701 23.95 42.8101 23.55 41.8001C22.54 39.2701 23.78 36.3901 26.31 35.3801L42.16 29.0501C42.62 28.8701 42.96 28.4801 43.07 28.0201L46.86 11.4401C47.11 10.3901 47.67 9.48011 48.48 8.79011C49.49 7.94011 50.77 7.53011 52.08 7.64011C53.4 7.75011 54.59 8.36011 55.44 9.37011L66.31 22.5201C66.61 22.8801 67.09 23.0701 67.58 23.0201L84.58 21.5001C85.69 21.4001 86.82 21.6801 87.75 22.2901C88.86 23.0101 89.62 24.1301 89.89 25.4201C90.16 26.7101 89.91 28.0401 89.19 29.1401L80.1 43.5101C79.83 43.9201 79.79 44.4201 79.97 44.8601L86.65 60.5101C87.09 61.4901 87.19 62.6301 86.93 63.7101C86.27 66.3501 83.59 67.9701 80.94 67.3101L64.42 63.0901C63.95 62.9701 63.45 63.0901 63.08 63.4201L50.24 74.5801C49.42 75.2901 48.37 75.7301 47.28 75.7901C47.18 75.7901 47.08 75.7901 46.98 75.7901L47 75.7701ZM51.69 11.0601C51.34 11.0601 51 11.1801 50.73 11.4101C50.49 11.6201 50.32 11.8901 50.25 12.2001L46.46 28.8001C46.07 30.3901 44.95 31.6701 43.45 32.2601L27.61 38.5901C26.85 38.8901 26.48 39.7601 26.78 40.5201C26.9 40.8201 27.12 41.0801 27.4 41.2501L42.03 50.0101C43.41 50.8501 44.3 52.3001 44.42 53.9001L45.54 70.9101C45.56 71.3201 45.74 71.6801 46.04 71.9401C46.34 72.2001 46.72 72.3401 47.11 72.3101C47.44 72.2901 47.75 72.1601 48 71.9501L60.83 60.7901C62.05 59.7201 63.72 59.3201 65.3 59.7201L81.81 63.9401C82.19 64.0301 82.58 63.9701 82.92 63.7701C83.26 63.5701 83.5 63.2401 83.59 62.8601C83.67 62.5401 83.64 62.1901 83.5 61.8901L76.79 46.1901C76.17 44.6801 76.32 42.9901 77.19 41.6401L86.28 27.2601C86.51 26.9001 86.59 26.5001 86.51 26.1101C86.43 25.7201 86.2 25.3801 85.87 25.1601C85.59 24.9701 85.25 24.8901 84.91 24.9201L67.94 26.4401C66.34 26.6201 64.73 25.9701 63.67 24.7201L52.81 11.5801C52.57 11.2901 52.21 11.1101 51.81 11.0801C51.77 11.0801 51.73 11.0801 51.68 11.0801L51.69 11.0601Z" fill="#388DCB"/>
<path d="M33.22 57.4699C32.74 56.7499 31.77 56.5499 31.05 57.0299L1.38004 75.2699C0.660039 75.7499 0.470039 76.7299 0.950039 77.4399C1.24004 77.8699 1.73004 78.1299 2.25004 78.1299C2.56004 78.1299 2.86004 78.0399 3.11004 77.8699L32.79 59.6299C33.51 59.1499 33.71 58.1799 33.23 57.4599L33.22 57.4699Z" fill="#388DCB"/>
<path d="M0.259922 67.3201C0.549922 67.7601 1.03992 68.0201 1.56992 68.0201C1.87992 68.0201 2.17992 67.9301 2.42992 67.7501L25.5399 53.8301C26.2399 53.3201 26.3999 52.3401 25.8899 51.6401C25.4099 50.9801 24.5099 50.8001 23.8099 51.2201L0.699922 65.1501C-0.0200785 65.6301 -0.220078 66.6001 0.259922 67.3201Z" fill="#388DCB"/>
<path d="M33.0399 66.1801L10.7599 79.5201C10.0399 80.0001 9.84992 80.9801 10.3299 81.6901C10.6199 82.1201 11.1099 82.3801 11.6299 82.3801C11.9399 82.3801 12.2399 82.2901 12.4999 82.1201L34.7699 68.7801C35.4899 68.3001 35.6899 67.3301 35.2099 66.6101C34.7299 65.8901 33.7599 65.6901 33.0399 66.1701V66.1801Z" fill="#388DCB"/>
</g>
<defs>
<clipPath id="clip0_153_2088">
<rect width="90" height="90" fill="white"/>
</clipPath>
</defs>
</svg>
