<svg width="80" height="80" viewBox="0 0 80 80" fill="none" xmlns="http://www.w3.org/2000/svg">
<path d="M73.3334 26.6665V43.3332C73.3334 56.6665 66.6667 63.3332 53.3334 63.3332H51.6667C50.6334 63.3332 49.6334 63.8332 49.0001 64.6665L44.0001 71.3332C41.8001 74.2665 38.2001 74.2665 36.0001 71.3332L31.0001 64.6665C30.4667 63.9332 29.2334 63.3332 28.3334 63.3332H26.6667C13.3334 63.3332 6.66675 59.9998 6.66675 43.3332V26.6665C6.66675 13.3332 13.3334 6.6665 26.6667 6.6665H40.0001" stroke="#B1B1B1" stroke-width="4" stroke-miterlimit="10" stroke-linecap="round" stroke-linejoin="round"/>
<path d="M50.6667 15.4001C49.5667 12.1001 50.8667 8.03344 54.4667 6.9001C56.3334 6.33344 58.6667 6.8001 60 8.56677C61.2667 6.73344 63.6667 6.33344 65.5334 6.9001C69.1334 8.0001 70.4334 12.1001 69.3334 15.4001C67.6334 20.6334 61.6667 23.3334 60 23.3334C58.3334 23.3334 52.4334 20.6668 50.6667 15.4001Z" stroke="#B1B1B1" stroke-width="4" stroke-linecap="round" stroke-linejoin="round"/>
<path d="M53.3215 36.6667H53.3514" stroke="#B1B1B1" stroke-width="4" stroke-linecap="round" stroke-linejoin="round"/>
<path d="M39.985 36.6667H40.015" stroke="#B1B1B1" stroke-width="4" stroke-linecap="round" stroke-linejoin="round"/>
<path d="M26.6484 36.6667H26.6783" stroke="#B1B1B1" stroke-width="4" stroke-linecap="round" stroke-linejoin="round"/>
</svg>
