<svg width="80" height="80" viewBox="0 0 80 80" fill="none" xmlns="http://www.w3.org/2000/svg">
<path d="M63.3333 53.3333V21.6667C63.3333 18 60.3333 15 56.6666 15H38.3333" stroke="#388DCB" stroke-width="4" stroke-linecap="round" stroke-linejoin="round"/>
<path d="M46.6667 6.6665L36.6667 14.9998L46.6667 23.3332" stroke="#388DCB" stroke-width="4" stroke-linecap="round" stroke-linejoin="round"/>
<path d="M63.3333 73.3335C68.8561 73.3335 73.3333 68.8563 73.3333 63.3335C73.3333 57.8106 68.8561 53.3335 63.3333 53.3335C57.8104 53.3335 53.3333 57.8106 53.3333 63.3335C53.3333 68.8563 57.8104 73.3335 63.3333 73.3335Z" stroke="#388DCB" stroke-width="4" stroke-linecap="round" stroke-linejoin="round"/>
<path d="M16.6667 26.6665V58.3332C16.6667 61.9998 19.6667 64.9998 23.3334 64.9998H41.6667" stroke="#388DCB" stroke-width="4" stroke-linecap="round" stroke-linejoin="round"/>
<path d="M33.3333 73.3332L43.3333 64.9998L33.3333 56.6665" stroke="#388DCB" stroke-width="4" stroke-linecap="round" stroke-linejoin="round"/>
<path d="M16.6667 26.6665C22.1896 26.6665 26.6667 22.1894 26.6667 16.6665C26.6667 11.1437 22.1896 6.6665 16.6667 6.6665C11.1439 6.6665 6.66675 11.1437 6.66675 16.6665C6.66675 22.1894 11.1439 26.6665 16.6667 26.6665Z" stroke="#388DCB" stroke-width="4" stroke-linecap="round" stroke-linejoin="round"/>
</svg>
