<svg width="1109" height="52" viewBox="0 0 1109 52" fill="none" xmlns="http://www.w3.org/2000/svg">
<path d="M4.72125 49.6977C4.72125 49.6977 0.0304839 48.0146 1.56077 42.3049C3.287 35.8703 12.6921 24.9995 19.1365 18.5492C35.1095 2.56446 50.3556 1.05768 54.7564 1.05768H1078.37C1078.37 1.05768 1089.38 0.963627 1095.8 8.12326C1102.21 15.2829 1103.2 24.5979 1103.2 24.5979L1107.93 49.1315L4.72125 49.6977Z" fill="white"/>
<path d="M83.0515 11.7676H79.4521V15.2827H83.0515V11.7676Z" fill="#388DCB"/>
<path d="M89.2137 11.7676H85.6123V15.2827H89.2137V11.7676Z" fill="#388DCB"/>
<path d="M101.539 11.7676H97.9395V15.2827H101.539V11.7676Z" fill="#388DCB"/>
<path d="M107.701 11.7676H104.1V15.2827H107.701V11.7676Z" fill="#388DCB"/>
<path d="M213.139 11.7676H209.54V15.2827H213.139V11.7676Z" fill="#388DCB"/>
<path d="M221.532 11.7676H217.933V15.2827H221.532V11.7676Z" fill="#388DCB"/>
<path d="M227.694 11.7676H224.095V15.2827H227.694V11.7676Z" fill="#388DCB"/>
<path d="M246.181 11.7676H242.584V15.2827H246.181V11.7676Z" fill="#388DCB"/>
<path d="M252.344 11.7676H248.744V15.2827H252.344V11.7676Z" fill="#388DCB"/>
<path d="M270.831 11.7676H267.231V15.2827H270.831V11.7676Z" fill="#388DCB"/>
<path d="M113.863 11.7676H110.264V15.2827H113.863V11.7676Z" fill="#388DCB"/>
<path d="M120.025 11.7676H116.426V15.2827H120.025V11.7676Z" fill="#388DCB"/>
<path d="M126.186 11.7676H122.589V15.2827H126.186V11.7676Z" fill="#388DCB"/>
<path d="M150.558 11.7676H146.957V15.2827H150.558V11.7676Z" fill="#388DCB"/>
<path d="M138.513 11.7676H134.913V15.2827H138.513V11.7676Z" fill="#388DCB"/>
<path d="M167.223 11.7676H163.624V15.2827H167.223V11.7676Z" fill="#388DCB"/>
<path d="M181.345 11.7676H177.745V15.2827H181.345V11.7676Z" fill="#388DCB"/>
<path d="M187.507 11.7676H183.907V15.2827H187.507V11.7676Z" fill="#388DCB"/>
<path d="M193.668 11.7676H190.07V15.2827H193.668V11.7676Z" fill="#388DCB"/>
<path d="M287.724 11.7676H284.125V15.2827H287.724V11.7676Z" fill="#388DCB"/>
<path d="M293.887 11.7676H290.285V15.2827H293.887V11.7676Z" fill="#388DCB"/>
<path d="M306.212 11.7676H302.612V15.2827H306.212V11.7676Z" fill="#388DCB"/>
<path d="M312.374 11.7676H308.772V15.2827H312.374V11.7676Z" fill="#388DCB"/>
<path d="M453.142 11.7676H449.543V15.2827H453.142V11.7676Z" fill="#388DCB"/>
<path d="M471.63 11.7676H468.03V15.2827H471.63V11.7676Z" fill="#388DCB"/>
<path d="M477.792 11.7676H474.192V15.2827H477.792V11.7676Z" fill="#939598"/>
<path d="M496.278 11.7676H492.681V15.2827H496.278V11.7676Z" fill="#388DCB"/>
<path d="M502.441 11.7676H498.842V15.2827H502.441V11.7676Z" fill="#388DCB"/>
<path d="M520.928 11.7676H517.328V15.2827H520.928V11.7676Z" fill="#388DCB"/>
<path d="M318.536 11.7676H314.937V15.2827H318.536V11.7676Z" fill="#388DCB"/>
<path d="M330.858 11.7676H327.261V15.2827H330.858V11.7676Z" fill="#388DCB"/>
<path d="M362.528 11.7676H358.929V15.2827H362.528V11.7676Z" fill="#939598"/>
<path d="M355.231 11.7676H351.63V15.2827H355.231V11.7676Z" fill="#939598"/>
<path d="M343.185 11.7676H339.586V15.2827H343.185V11.7676Z" fill="#388DCB"/>
<path d="M391.357 11.7676H387.758V15.2827H391.357V11.7676Z" fill="#388DCB"/>
<path d="M371.896 11.7676H368.297V15.2827H371.896V11.7676Z" fill="#388DCB"/>
<path d="M397.521 11.7676H393.922V15.2827H397.521V11.7676Z" fill="#388DCB"/>
<path d="M403.683 11.7676H400.084V15.2827H403.683V11.7676Z" fill="#388DCB"/>
<path d="M409.844 11.7676H406.244V15.2827H409.844V11.7676Z" fill="#939598"/>
<path d="M416.006 11.7676H412.408V15.2827H416.006V11.7676Z" fill="#388DCB"/>
<path d="M422.171 11.7676H418.571V15.2827H422.171V11.7676Z" fill="#939598"/>
<path d="M428.333 11.7676H424.733V15.2827H428.333V11.7676Z" fill="#388DCB"/>
<path d="M597.997 11.7676H594.397V15.2827H597.997V11.7676Z" fill="#388DCB"/>
<path d="M604.159 11.7676H600.558V15.2827H604.159V11.7676Z" fill="#388DCB"/>
<path d="M616.483 11.7676H612.884V15.2827H616.483V11.7676Z" fill="#388DCB"/>
<path d="M763.415 11.7676H759.815V15.2827H763.415V11.7676Z" fill="#388DCB"/>
<path d="M781.901 11.7676H778.302V15.2827H781.901V11.7676Z" fill="#388DCB"/>
<path d="M788.063 11.7676H784.464V15.2827H788.063V11.7676Z" fill="#388DCB"/>
<path d="M806.551 11.7676H802.953V15.2827H806.551V11.7676Z" fill="#388DCB"/>
<path d="M812.713 11.7676H809.113V15.2827H812.713V11.7676Z" fill="#388DCB"/>
<path d="M831.2 11.7676H827.601V15.2827H831.2V11.7676Z" fill="#388DCB"/>
<path d="M628.807 11.7676H625.208V15.2827H628.807V11.7676Z" fill="#388DCB"/>
<path d="M641.131 11.7676H637.533V15.2827H641.131V11.7676Z" fill="#388DCB"/>
<g style="mix-blend-mode:screen">
<path d="M672.801 11.7676H669.201V15.2827H672.801V11.7676Z" fill="#388DCB"/>
</g>
<g style="mix-blend-mode:screen">
<path d="M665.504 11.7676H661.902V15.2827H665.504V11.7676Z" fill="#388DCB"/>
</g>
<path d="M653.457 11.7676H649.857V15.2827H653.457V11.7676Z" fill="#388DCB"/>
<path d="M701.631 11.7676H698.031V15.2827H701.631V11.7676Z" fill="#388DCB"/>
<path d="M682.168 11.7676H678.568V15.2827H682.168V11.7676Z" fill="#388DCB"/>
<path d="M707.793 11.7676H704.193V15.2827H707.793V11.7676Z" fill="#388DCB"/>
<path d="M713.956 11.7676H710.356V15.2827H713.956V11.7676Z" fill="#388DCB"/>
<g style="mix-blend-mode:screen">
<path d="M720.116 11.7676H716.517V15.2827H720.116V11.7676Z" fill="#388DCB"/>
</g>
<path d="M726.278 11.7676H722.681V15.2827H726.278V11.7676Z" fill="#388DCB"/>
<g style="mix-blend-mode:screen">
<path d="M732.442 11.7676H728.843V15.2827H732.442V11.7676Z" fill="#388DCB"/>
</g>
<path d="M738.604 11.7676H735.005V15.2827H738.604V11.7676Z" fill="#388DCB"/>
<path d="M885.768 11.7676H882.169V15.2827H885.768V11.7676Z" fill="#388DCB"/>
<path d="M891.931 11.7676H888.329V15.2827H891.931V11.7676Z" fill="#388DCB"/>
<path d="M904.256 11.7676H900.656V15.2827H904.256V11.7676Z" fill="#388DCB"/>
<path d="M910.418 11.7676H906.816V15.2827H910.418V11.7676Z" fill="#388DCB"/>
<path d="M1024.64 11.7676H1021.04V15.2827H1024.64V11.7676Z" fill="#388DCB"/>
<path d="M1030.8 11.7676H1027.2V15.2827H1030.8V11.7676Z" fill="#388DCB"/>
<path d="M1049.29 11.7676H1045.69V15.2827H1049.29V11.7676Z" fill="#388DCB"/>
<path d="M1055.45 11.7676H1051.85V15.2827H1055.45V11.7676Z" fill="#388DCB"/>
<path d="M1073.94 11.7676H1070.34V15.2827H1073.94V11.7676Z" fill="#388DCB"/>
<path d="M916.58 11.7676H912.98V15.2827H916.58V11.7676Z" fill="#388DCB"/>
<path d="M922.742 11.7676H919.143V15.2827H922.742V11.7676Z" fill="#388DCB"/>
<path d="M928.903 11.7676H925.306V15.2827H928.903V11.7676Z" fill="#388DCB"/>
<path d="M960.572 11.7676H956.973V15.2827H960.572V11.7676Z" fill="#388DCB"/>
<path d="M953.275 11.7676H949.674V15.2827H953.275V11.7676Z" fill="#388DCB"/>
<path d="M941.229 11.7676H937.63V15.2827H941.229V11.7676Z" fill="#388DCB"/>
<path d="M965.846 11.7676H962.246V15.2827H965.846V11.7676Z" fill="#388DCB"/>
<path d="M972.008 11.7676H968.408V15.2827H972.008V11.7676Z" fill="#388DCB"/>
<path d="M990.494 11.7676H986.896V15.2827H990.494V11.7676Z" fill="#388DCB"/>
<path d="M996.659 11.7676H993.06V15.2827H996.659V11.7676Z" fill="#388DCB"/>
<path d="M1002.82 11.7676H999.222V15.2827H1002.82V11.7676Z" fill="#388DCB"/>
<path d="M542.89 11.7676H539.289V15.2827H542.89V11.7676Z" fill="#388DCB"/>
<path d="M555.215 11.7676H551.615V15.2827H555.215V11.7676Z" fill="#388DCB"/>
<path d="M561.378 11.7676H557.776V15.2827H561.378V11.7676Z" fill="#388DCB"/>
<path d="M628.961 11.7676H625.361V15.2827H628.961V11.7676Z" fill="#388DCB"/>
<path d="M840.55 11.7676H836.95V15.2827H840.55V11.7676Z" fill="#388DCB"/>
<path d="M846.712 11.7676H843.112V15.2827H846.712V11.7676Z" fill="#388DCB"/>
<path d="M853.698 11.7676H850.099V15.2827H853.698V11.7676Z" fill="#388DCB"/>
<path d="M872.184 11.7676H868.585V15.2827H872.184V11.7676Z" fill="#388DCB"/>
<path d="M567.538 11.7676H563.938V15.2827H567.538V11.7676Z" fill="#388DCB"/>
<path d="M579.862 11.7676H576.265V15.2827H579.862V11.7676Z" fill="#388DCB"/>
<path d="M85.4188 41.5195H81.0004C80.3832 41.5195 79.7758 42.0133 79.6504 42.6168C79.6504 42.6168 78.5061 48.109 72.1557 48.109C65.8053 48.109 64.6237 42.6149 64.6237 42.6149C64.4944 42.0114 63.8831 41.5176 63.2659 41.5176H58.9552C58.338 41.5176 57.7306 42.0114 57.6052 42.6149C57.6052 42.6149 56.4609 48.107 50.1105 48.107C43.7601 48.107 42.5786 42.6129 42.5786 42.6129C42.4493 42.0094 41.8379 41.5156 41.2207 41.5156H1.84473" stroke="#388DCB" stroke-width="1.25205"/>
<path d="M274.057 41.5195H269.638C269.021 41.5195 268.414 42.0133 268.288 42.6168C268.288 42.6168 267.144 48.109 260.794 48.109C254.443 48.109 253.262 42.6149 253.262 42.6149C253.132 42.0114 252.521 41.5176 251.904 41.5176H247.593C246.976 41.5176 246.369 42.0114 246.243 42.6149C246.243 42.6149 245.099 48.107 238.748 48.107C232.398 48.107 231.217 42.6129 231.217 42.6129C231.087 42.0094 230.476 41.5156 229.859 41.5156H85.4199" stroke="#388DCB" stroke-width="1.25205"/>
<path d="M1107.86 48.109H522.307C515.957 48.109 514.775 42.6149 514.775 42.6149C514.646 42.0114 514.035 41.5176 513.417 41.5176H508.999C508.382 41.5176 507.774 42.0114 507.649 42.6149C507.649 42.6149 506.505 48.107 500.154 48.107C493.804 48.107 492.622 42.6129 492.622 42.6129C492.493 42.0094 491.882 41.5156 491.264 41.5156H486.954C486.337 41.5156 485.729 42.0094 485.604 42.6129C485.604 42.6129 484.459 48.1051 478.109 48.1051C471.759 48.1051 470.577 42.6109 470.577 42.6109C470.448 42.0074 469.837 41.5137 469.219 41.5137H274.06" stroke="#388DCB" stroke-width="1.25205"/>
<path d="M1088.62 8.12305H81.7962C78.863 8.12305 74.5229 9.53969 72.152 11.2698L67.3535 14.7732C64.9846 16.5034 60.6445 17.92 57.7093 17.92H20.6729" stroke="#388DCB" stroke-width="0.869972"/>
<path d="M3.71766 49.1314C3.71766 49.1314 0.282843 48.0047 1.21943 43.6353C4.62486 27.7563 34.4273 1.05762 54.756 1.05762H1058.91" stroke="#388DCB" stroke-width="2.11615" stroke-linecap="round"/>
<path d="M1105.23 30.4785H8.69824" stroke="#388DCB" stroke-width="0.869972"/>
<path d="M18.7676 19.3818H1101.14" stroke="#388DCB" stroke-width="0.869972"/>
<path d="M62.835 26.0778C62.835 27.2084 63.7539 28.1274 64.8864 28.1274C66.019 28.1274 66.9379 27.2084 66.9379 26.0778C66.9379 24.9473 66.0209 24.0283 64.8864 24.0283C63.752 24.0283 62.835 24.9453 62.835 26.0778Z" fill="#388DCB"/>
<path d="M58.0088 26.0778C58.0088 27.2084 58.9297 28.1274 60.0622 28.1274C61.1948 28.1274 62.1157 27.2084 62.1157 26.0778C62.1157 24.9473 61.1967 24.0283 60.0622 24.0283C58.9277 24.0283 58.0088 24.9453 58.0088 26.0778Z" fill="#388DCB"/>
<path d="M43.5283 26.0778C43.5283 27.2084 44.4473 28.1274 45.5798 28.1274C46.7123 28.1274 47.6332 27.2084 47.6332 26.0778C47.6332 24.9473 46.7143 24.0283 45.5798 24.0283C44.4453 24.0283 43.5283 24.9453 43.5283 26.0778Z" fill="#388DCB"/>
<path d="M106.276 26.0778C106.276 27.2084 107.195 28.1274 108.33 28.1274C109.464 28.1274 110.383 27.2084 110.383 26.0778C110.383 24.9473 109.464 24.0283 108.33 24.0283C107.195 24.0283 106.276 24.9453 106.276 26.0778Z" fill="#388DCB"/>
<path d="M203.734 26.0778C203.734 27.2084 204.653 28.1274 205.788 28.1274C206.922 28.1274 207.841 27.2084 207.841 26.0778C207.841 24.9473 206.922 24.0283 205.788 24.0283C204.653 24.0283 203.734 24.9453 203.734 26.0778Z" fill="#388DCB"/>
<path d="M115.929 26.0778C115.929 27.2084 116.848 28.1274 117.982 28.1274C119.117 28.1274 120.034 27.2084 120.034 26.0778C120.034 24.9473 119.115 24.0283 117.982 24.0283C116.85 24.0283 115.929 24.9453 115.929 26.0778Z" fill="#388DCB"/>
<path d="M177.108 26.0778C177.108 27.2084 178.029 28.1274 179.162 28.1274C180.294 28.1274 181.213 27.2084 181.213 26.0778C181.213 24.9473 180.294 24.0283 179.162 24.0283C178.029 24.0283 177.108 24.9453 177.108 26.0778Z" fill="#388DCB"/>
<path d="M149.295 26.0778C149.295 27.2084 150.214 28.1274 151.348 28.1274C152.483 28.1274 153.4 27.2084 153.4 26.0778C153.4 24.9473 152.481 24.0283 151.348 24.0283C150.216 24.0283 149.295 24.9453 149.295 26.0778Z" fill="#388DCB"/>
<path d="M916.13 26.0778C916.13 27.2084 917.049 28.1274 918.183 28.1274C919.318 28.1274 920.237 27.2084 920.237 26.0778C920.237 24.9473 919.318 24.0283 918.183 24.0283C917.049 24.0283 916.13 24.9453 916.13 26.0778Z" fill="#388DCB"/>
<path d="M854.174 26.0778C854.174 27.2084 855.095 28.1274 856.227 28.1274C857.36 28.1274 858.279 27.2084 858.279 26.0778C858.279 24.9473 857.36 24.0283 856.227 24.0283C855.095 24.0283 854.174 24.9453 854.174 26.0778Z" fill="#388DCB"/>
<path d="M876.832 26.0778C876.832 27.2084 877.751 28.1274 878.885 28.1274C880.02 28.1274 880.937 27.2084 880.937 26.0778C880.937 24.9473 880.018 24.0283 878.885 24.0283C877.753 24.0283 876.832 24.9453 876.832 26.0778Z" fill="#388DCB"/>
<path d="M1056.86 26.0778C1056.86 27.2084 1057.77 28.1274 1058.91 28.1274C1060.04 28.1274 1060.96 27.2084 1060.96 26.0778C1060.96 24.9473 1060.04 24.0283 1058.91 24.0283C1057.78 24.0283 1056.86 24.9453 1056.86 26.0778Z" fill="#388DCB"/>
<path d="M545.274 26.0778C545.274 27.2084 546.193 28.1274 547.328 28.1274C548.462 28.1274 549.381 27.2084 549.381 26.0778C549.381 24.9473 548.462 24.0283 547.328 24.0283C546.193 24.0283 545.274 24.9453 545.274 26.0778Z" fill="#388DCB"/>
<path d="M1080.17 26.0778C1080.17 27.2084 1081.09 28.1274 1082.22 28.1274C1083.36 28.1274 1084.28 27.2084 1084.28 26.0778C1084.28 24.9473 1083.36 24.0283 1082.22 24.0283C1081.09 24.0283 1080.17 24.9453 1080.17 26.0778Z" fill="#388DCB"/>
<path d="M483.317 26.0778C483.317 27.2084 484.238 28.1274 485.371 28.1274C486.503 28.1274 487.422 27.2084 487.422 26.0778C487.422 24.9473 486.503 24.0283 485.371 24.0283C484.238 24.0283 483.317 24.9453 483.317 26.0778Z" fill="#388DCB"/>
<path d="M455.503 26.0778C455.503 27.2084 456.422 28.1274 457.556 28.1274C458.691 28.1274 459.608 27.2084 459.608 26.0778C459.608 24.9473 458.689 24.0283 457.556 24.0283C456.424 24.0283 455.503 24.9453 455.503 26.0778Z" fill="#388DCB"/>
<path d="M261.096 26.0778C261.096 27.2084 262.015 28.1274 263.149 28.1274C264.284 28.1274 265.201 27.2084 265.201 26.0778C265.201 24.9473 264.282 24.0283 263.149 24.0283C262.017 24.0283 261.096 24.9453 261.096 26.0778Z" fill="#388DCB"/>
<path d="M471.966 1.08709H471.847L471.463 1.03027L471.966 1.08709Z" fill="white"/>
<path d="M53.1829 0.134774H1058.91V2.14903H63.889C62.1412 2.14903 59.5588 3.09934 58.148 4.2593L49.8284 11.1113C48.4176 12.2713 45.8332 13.2235 44.0874 13.2235H26.2432C26.2432 13.2235 40.9837 1.05569 53.1829 0.132812V0.134774Z" fill="#388DCB"/>
<path d="M1107.86 50.9262L1102.02 18.6079C1100.97 14.3345 1097.17 8.75021 1093.59 6.19711L1092.89 5.69943C1089.3 3.14633 1082.77 1.05762 1078.37 1.05762H579.394" stroke="#388DCB" stroke-width="2.11615" stroke-linecap="round"/>
<path d="M608.984 1.08709H609.104L609.488 1.03027L608.984 1.08709Z" fill="#388DCB"/>
<path d="M1099.32 11.464C1098.36 11.0878 1097.44 10.594 1096.78 10.0513L1090.25 4.75698C1088.84 3.59702 1081.69 1.08703 1079.94 0.134766H579.394V2.14902H1075.65C1077.4 2.14902 1079.98 3.09933 1081.39 4.25929L1089.71 11.1113C1091.12 12.2713 1093.71 13.2235 1095.45 13.2235H1099.32V11.462L1099.32 11.464Z" fill="#388DCB"/>
</svg>
