<svg width="120" height="120" viewBox="0 0 120 120" fill="none" xmlns="http://www.w3.org/2000/svg">
<g clip-path="url(#clip0_184_4141)">
<path fill-rule="evenodd" clip-rule="evenodd" d="M108.533 76.6134C107.627 76.6134 106.813 75.9334 106.68 74.9867C106.547 73.9734 107.267 73 108.28 72.8667L111.44 72.4134C112.48 72.28 113.427 73 113.56 74.0134C113.693 75.0267 112.973 76 111.96 76.1334L108.8 76.5867C108.707 76.6134 108.64 76.6134 108.533 76.6134Z" fill="#469A45"/>
<path fill-rule="evenodd" clip-rule="evenodd" d="M109.774 88.9732C109.547 88.9732 109.28 88.9465 109.054 88.8398L106.094 87.6398C105.147 87.2532 104.667 86.1732 105.054 85.1998C105.44 84.2532 106.547 83.7732 107.494 84.1598L110.454 85.3598C111.4 85.7465 111.88 86.8532 111.494 87.7998C111.2 88.5465 110.52 88.9732 109.774 88.9732Z" fill="#469A45"/>
<path fill-rule="evenodd" clip-rule="evenodd" d="M103.787 66.36C103.227 66.36 102.68 66.0933 102.32 65.64C101.667 64.8266 101.827 63.6533 102.64 63L105.173 61.0133C105.987 60.3599 107.16 60.52 107.814 61.3333C108.467 62.1466 108.307 63.32 107.494 63.9733L104.96 65.96C104.6 66.2266 104.213 66.3466 103.787 66.3466V66.36Z" fill="#469A45"/>
<path fill-rule="evenodd" clip-rule="evenodd" d="M16.1866 89.8534C15.28 89.8534 14.4666 89.1734 14.3333 88.2267C14.2 87.2134 14.92 86.24 15.9333 86.1067L19.0933 85.6534C20.1333 85.52 21.08 86.24 21.2133 87.2534C21.3466 88.2667 20.6266 89.24 19.6133 89.3734L16.4533 89.8267C16.36 89.8267 16.2933 89.8534 16.1866 89.8534Z" fill="#469A45"/>
<path fill-rule="evenodd" clip-rule="evenodd" d="M21.5998 101.64C21.0398 101.64 20.4932 101.373 20.1332 100.92C19.4798 100.107 19.6398 98.9333 20.4532 98.28L22.9865 96.2933C23.7998 95.64 24.9732 95.8 25.6265 96.6133C26.2798 97.4266 26.1198 98.6 25.3065 99.2533L22.7732 101.24C22.3865 101.507 21.9865 101.627 21.5998 101.627V101.64Z" fill="#469A45"/>
<path fill-rule="evenodd" clip-rule="evenodd" d="M21.1066 78.24C20.88 78.24 20.6533 78.2134 20.3866 78.1067L17.4266 76.9067C16.48 76.52 16 75.4134 16.3866 74.4667C16.7733 73.52 17.88 73.04 18.8266 73.4267L21.7866 74.6267C22.7333 75.0134 23.2133 76.12 22.8267 77.0667C22.5333 77.7867 21.8533 78.24 21.1066 78.24Z" fill="#469A45"/>
<path fill-rule="evenodd" clip-rule="evenodd" d="M54.5733 120.001C53.1467 120.001 51.7467 119.507 50.5733 118.601C49.1733 117.521 48.2933 115.934 48.0933 114.174C47.8933 112.454 48.3867 110.787 49.4267 109.427C50.4667 108.054 52 107.187 53.72 106.947L58.08 106.361L53.0667 70.5206C46.04 69.7073 39.4 66.6406 34.16 61.8273C31.36 59.2539 29.0533 56.2273 27.2933 52.9073C25.4667 49.4539 24.2667 45.7073 23.7467 41.7739L19.5467 10.5206C19.4133 9.48062 20.1333 8.53395 21.1467 8.40062L83.6667 0.0139497C84.7067 -0.119384 85.6533 0.600616 85.7867 1.61395L89.9867 32.8673C90.5067 36.7739 90.3467 40.7073 89.4933 44.5206C88.68 48.2273 87.2533 51.7206 85.2267 54.9339C81.48 60.9873 75.8533 65.6806 69.3067 68.3073L74.32 104.147L78.52 103.587C80.28 103.361 82 103.814 83.4 104.921C84.8 106.027 85.68 107.587 85.88 109.347C86.08 111.067 85.5867 112.734 84.5467 114.094C83.4667 115.467 81.9733 116.334 80.2533 116.574L55.4133 119.921C55.1467 119.947 54.8533 119.987 54.5733 119.987V120.001ZM23.52 11.8673L27.4533 41.2673C29.3067 55.2006 40.8267 65.9739 54.8267 66.9206C55.7067 66.9873 56.4267 67.6406 56.5467 68.5206L62.0533 107.707C62.12 108.201 61.9867 108.721 61.6933 109.107C61.4 109.494 60.9467 109.761 60.4533 109.827L54.2 110.667C52.7067 110.867 51.6267 112.267 51.7867 113.761C51.88 114.507 52.24 115.187 52.8267 115.654C53.4133 116.121 54.16 116.307 54.9067 116.214L79.7467 112.867C81.24 112.667 82.32 111.267 82.16 109.774C82.0667 109.027 81.7067 108.347 81.12 107.881C80.5333 107.427 79.7867 107.227 79.04 107.321L72.9867 108.134C71.9733 108.267 71.04 107.547 70.8667 106.534L65.36 67.3473C65.2267 66.4673 65.7467 65.6273 66.6 65.3339C79.8533 60.7473 88.08 47.2939 86.2267 33.3739L82.2933 3.97395L23.5067 11.8806L23.52 11.8673Z" fill="#469A45"/>
<path fill-rule="evenodd" clip-rule="evenodd" d="M27.7067 59.8401C23.0533 59.8401 18.56 58.3468 14.8133 55.4401C10.2933 51.9868 7.35999 46.9734 6.61332 41.3068C5.93332 36.1334 7.13332 30.8934 10.0267 26.5601C12.92 22.2668 17.2533 19.1734 22.2 17.8401C23.2133 17.5734 24.2133 18.1601 24.5067 19.1734C24.7733 20.1868 24.1867 21.1868 23.1733 21.4801C14.64 23.7601 9.10665 32.0534 10.32 40.8134C10.9333 45.4668 13.3467 49.6001 17.0933 52.4668C20.84 55.3334 25.4533 56.5334 30.12 55.9201C30.8 55.8268 31.4533 55.6934 32.1067 55.5334C33.12 55.2668 34.12 55.8934 34.3867 56.9068C34.6533 57.9201 34.0267 58.9201 33.0133 59.1868C32.2267 59.3868 31.4133 59.5468 30.6 59.6401C29.6267 59.7734 28.6533 59.8401 27.7067 59.8401Z" fill="#469A45"/>
<path fill-rule="evenodd" clip-rule="evenodd" d="M85.6533 52.1333C84.64 52.1333 83.8 51.32 83.76 50.3067C83.7333 49.2667 84.5733 48.4133 85.5866 48.3867C86.24 48.3867 86.92 48.32 87.6 48.2267C92.2533 47.6133 96.3866 45.2 99.2533 41.4533C102.12 37.7067 103.32 33.0933 102.707 28.4267C101.533 19.7067 94.0533 13.16 85.2933 13.16H85.2C84.16 13.16 83.3466 12.32 83.3066 11.3067C83.3066 10.2667 84.12 9.41333 85.16 9.41333H85.2933C90.4 9.41333 95.3466 11.2667 99.2266 14.6267C103.16 18.04 105.733 22.76 106.427 27.9467C107.173 33.6133 105.707 39.2133 102.227 43.7333C98.7466 48.2533 93.76 51.1867 88.0933 51.9333C87.28 52.0267 86.4666 52.0933 85.6533 52.1333Z" fill="#469A45"/>
<path fill-rule="evenodd" clip-rule="evenodd" d="M48.8134 51.2534C48.3201 51.2534 47.8401 51.1201 47.3868 50.8667C46.4401 50.3067 45.9201 49.3067 45.9868 48.2267L46.6001 39.5734L39.8001 34.1734C38.9601 33.4934 38.5601 32.4134 38.7868 31.3734C39.0134 30.2934 39.8268 29.4801 40.8668 29.2267L49.2934 27.1067L52.3468 18.9734C52.7334 17.9601 53.6534 17.2534 54.7201 17.1467C55.8001 17.0534 56.8401 17.5334 57.3868 18.4534L62.0134 25.8134L70.7068 26.2001C71.7868 26.2267 72.7201 26.8801 73.1868 27.8934C73.6134 28.9067 73.4534 30.0134 72.7601 30.8534L67.1601 37.5201L69.4668 45.8801C69.7601 46.9201 69.4401 48.0267 68.6268 48.7467C67.8134 49.4667 66.6801 49.6534 65.6934 49.2667L57.6268 46.0134L50.3734 50.8001C49.8801 51.0934 49.3334 51.2534 48.8134 51.2534ZM43.5734 32.3467L49.3068 36.9067C50.0268 37.4934 50.4401 38.4001 50.3868 39.3201L49.8668 46.6134L55.9601 42.5734C56.7468 42.0534 57.7201 41.9601 58.6001 42.3067L65.3734 45.0401L63.4268 38.0134C63.1601 37.1067 63.4001 36.1601 63.9868 35.4401L68.6801 29.8401L61.3868 29.5201C60.4401 29.4934 59.6001 29.0001 59.1068 28.1867L55.2268 22.0001L52.6534 28.8401C52.3334 29.7201 51.5734 30.3734 50.7068 30.6001L43.6134 32.3601L43.5734 32.3467Z" fill="#469A45"/>
<path fill-rule="evenodd" clip-rule="evenodd" d="M50.6002 62.4532C50.3735 62.4532 50.1735 62.4266 49.9468 62.3199C46.7202 61.1199 43.7602 59.4266 41.0935 57.2799C40.2802 56.6266 40.1468 55.4532 40.8002 54.6399C41.4535 53.8266 42.6269 53.6932 43.4402 54.3466C45.7869 56.2399 48.4268 57.7332 51.2535 58.7732C52.2268 59.1332 52.7202 60.1999 52.3602 61.1866C52.0668 61.9999 51.3468 62.4532 50.6002 62.4532Z" fill="#469A45"/>
<path fill-rule="evenodd" clip-rule="evenodd" d="M37.6802 53.2001C37.0935 53.2001 36.5069 52.9068 36.1469 52.4134C35.4002 51.3334 35.0135 50.6534 34.9735 50.5601C34.4802 49.6534 34.8402 48.5068 35.7602 48.0268C36.6669 47.5334 37.8135 47.8934 38.2935 48.8134C38.2935 48.8134 38.5869 49.3734 39.2002 50.2401C39.7869 51.0801 39.5869 52.2534 38.7469 52.8401C38.4269 53.1068 38.0269 53.2001 37.6669 53.2001H37.6802Z" fill="#469A45"/>
<path fill-rule="evenodd" clip-rule="evenodd" d="M37.1865 95.8801C36.1065 95.8801 35.1999 94.9334 35.3332 93.8667C35.9199 87 30.4532 84.16 30.3865 84.1334C29.5465 83.7067 29.1465 82.7334 29.4399 81.8534C29.7332 80.9734 30.6399 80.4534 31.5599 80.6134C38.1332 81.8534 40.9332 76.0267 41.0665 75.7334C41.4532 74.8534 42.4399 74.4 43.3465 74.72C44.2532 75.0134 44.8132 75.96 44.5865 76.9067C44.0665 79.32 44.7199 81.6267 46.5065 83.7467C47.9732 85.4667 49.6265 86.4534 49.6665 86.4534C50.4799 86.9067 50.7999 87.8534 50.5065 88.7334C50.2132 89.6134 49.3065 90.1067 48.4265 89.9334C45.5599 89.44 43.0932 90.0934 41.1065 91.92C39.6132 93.2934 38.9199 94.7867 38.9199 94.8134C38.5999 95.4667 37.9065 95.8934 37.1999 95.8934L37.1865 95.8801ZM36.1065 84.2267C37.0532 85.4 38.0265 87.0267 38.6132 89.08C39.8132 88 41.5465 86.8667 43.8265 86.3067C43.7999 86.2801 43.7999 86.24 43.7599 86.24C42.5199 84.7734 41.6399 83.24 41.1599 81.6134C39.9599 82.6267 38.2665 83.6934 36.1199 84.2134L36.1065 84.2267Z" fill="#469A45"/>
<path fill-rule="evenodd" clip-rule="evenodd" d="M88.4933 90.8667C87.7066 90.8667 87 90.3734 86.7333 89.6267C84.0933 82.2 77.0266 81.8534 76.9733 81.8534C76.0266 81.8267 75.2799 81.1067 75.1866 80.16C75.0933 79.2134 75.7066 78.3734 76.6133 78.1467C84.0666 76.32 84.1999 68.9067 84.2266 68.5067C84.2266 67.5334 84.9466 66.7467 85.8933 66.6134C86.8399 66.52 87.7466 67.1334 87.9466 68.08C88.5333 70.8534 90.3199 72.96 93.1866 74.3334C95.4933 75.44 97.7066 75.64 97.7066 75.64C98.6133 75.7067 99.3333 76.4534 99.4266 77.3334C99.4933 78.24 98.9066 79.0934 98.0266 79.32C90.4799 81.2667 90.4133 88.56 90.4133 88.92C90.4133 90 89.5333 90.8667 88.4933 90.8667ZM82.4399 79.5334C84.0666 80.32 86.0266 81.5867 87.7199 83.7334C87.7466 83.64 87.8133 83.5334 87.8533 83.4134C88.5999 81.6934 89.9066 79.64 92.1199 78.0134C91.9599 77.9467 91.8266 77.88 91.6666 77.8134C89.6533 76.8667 87.9599 75.6 86.7199 74.0667C86.7199 74.0934 86.6933 74.0934 86.6933 74.1334C85.9733 75.8534 84.6799 77.9067 82.4666 79.5334H82.4399Z" fill="#469A45"/>
</g>
<defs>
<clipPath id="clip0_184_4141">
<rect width="120" height="120" fill="white"/>
</clipPath>
</defs>
</svg>
