<svg width="90" height="90" viewBox="0 0 90 90" fill="none" xmlns="http://www.w3.org/2000/svg">
<g clip-path="url(#clip0_153_2075)">
<path d="M79.47 21.08C79.64 21.17 79.8 21.25 79.97 21.31C81.14 21.72 82.42 21.66 83.54 21.12C84.66 20.58 85.5099 19.64 85.92 18.46C86.34 17.28 86.27 16.01 85.73 14.89V14.86L79.87 2.66001C78.75 0.330009 75.96 -0.649992 73.64 0.460008C72.41 1.05001 71.51 2.16001 71.16 3.51001L71.14 3.58001L71.08 3.61001L43.82 16.68C43.55 16.81 43.35 17.03 43.26 17.31C43.16 17.59 43.18 17.89 43.31 18.15L43.91 19.4L26.2 27.89C25.94 28.02 25.73 28.24 25.64 28.52C25.54 28.8 25.56 29.1 25.69 29.36L26.3 30.63L6.62995 40.06C5.48995 40.61 4.60995 41.54 4.14995 42.68C3.67995 43.86 3.70995 45.11 4.23995 46.21L4.61995 47C5.14995 48.1 6.09995 48.91 7.30995 49.28C8.48995 49.64 9.75995 49.54 10.9 48.99L30.57 39.56L31.15 40.77C31.4 41.3 32.08 41.55 32.62 41.29L35.71 39.81L16.9 87.51C16.77 87.85 16.81 88.23 17.01 88.53C17.22 88.83 17.56 89.01 17.92 89.01H22.88C23.34 89.01 23.74 88.74 23.91 88.31L39.34 49.17V88.91C39.34 89.52 39.84 90.01 40.44 90.01H45.05C45.34 90.01 45.62 89.9 45.83 89.69C46.04 89.49 46.15 89.2 46.15 88.91V48.43L60.44 87.3C60.6 87.73 61.02 88.02 61.48 88.02H66.22C66.58 88.02 66.92 87.84 67.13 87.55C67.34 87.25 67.39 86.88 67.26 86.54L48.98 36.82C48.93 36.67 48.83 36.54 48.7 36.41L48.66 36.36C48.37 35.66 47.95 35.02 47.42 34.45L47.28 34.3L50.31 32.81L50.66 33.54C50.91 34.07 51.6 34.32 52.13 34.06L79.32 21.03L79.46 21.1L79.47 21.08ZM74.59 2.45001C75.1799 2.17001 75.85 2.13001 76.47 2.35001C77.1 2.57001 77.59 3.02001 77.88 3.61001L83.74 15.84C84.02 16.43 84.06 17.1 83.84 17.72L83.8 17.82C83.57 18.4 83.14 18.86 82.58 19.13C82.25 19.29 81.89 19.37 81.52 19.37C81.24 19.37 80.96 19.32 80.69 19.23C80.42 19.13 80.16 18.99 79.93 18.79L79.89 18.74L73.19 4.72001C73.17 3.76001 73.7199 2.86001 74.59 2.45001ZM9.92995 46.98C9.53995 47.17 9.11995 47.26 8.70995 47.26C8.44995 47.26 8.18995 47.22 7.93995 47.15C7.32995 46.96 6.84995 46.57 6.58995 46.03L6.20995 45.24C5.94995 44.7 5.93995 44.08 6.17995 43.49C6.42995 42.86 6.91995 42.35 7.55995 42.04L10.68 40.54L13.05 45.48L9.92995 46.98ZM15.04 44.53L12.67 39.59L14.87 38.53L17.24 43.47L15.04 44.53ZM19.23 42.52L16.86 37.58L27.22 32.61L29.59 37.55L19.23 42.52ZM38.91 44.43C38.81 44.54 38.73 44.65 38.69 44.77L22.17 86.67V86.79H22.02H19.54L19.62 86.58L37.08 42.28L37.24 42.52C37.68 43.17 38.23 43.73 38.88 44.2L39.02 44.3L38.9 44.43H38.91ZM43.94 87.79H41.54V45.31L41.71 45.33C42.06 45.38 42.35 45.4 42.64 45.4C42.99 45.4 43.36 45.37 43.76 45.3L43.94 45.27V87.79ZM42.64 43.2C40.26 43.2 38.33 41.26 38.33 38.87C38.33 36.48 40.26 34.54 42.64 34.54C45.02 34.54 46.95 36.48 46.95 38.87C46.95 41.26 45.02 43.2 42.64 43.2ZM48.3 42.1L48.46 41.82L64.63 85.81H62.24L62.2 85.71L46.82 43.87L46.9 43.8C47.46 43.31 47.93 42.74 48.3 42.1ZM46.75 32.04C46.75 32.04 46.7 32.07 46.67 32.1C46.65 32.12 46.62 32.14 46.6 32.16L45.2 32.85L45.14 32.82C44.34 32.49 43.51 32.32 42.65 32.32C39.78 32.32 37.27 34.17 36.42 36.93L36.4 36.99L32.65 38.79L32.23 37.91L32.34 37.86H32.22C32.2 37.75 32.19 37.64 32.14 37.55C32.09 37.45 32.02 37.37 31.94 37.29L31.91 37.25L28.9 30.94C28.88 30.82 28.87 30.71 28.82 30.62C28.77 30.52 28.7 30.44 28.62 30.36L28.59 30.32L28.14 29.38L44.76 21.41L49.27 30.82L46.76 32.03L46.75 32.04ZM52.18 31.57L52.11 31.43L45.87 18.4L71.2 5.99001L71.3 6.28001C71.35 6.42001 71.39 6.56001 71.45 6.69001L77.31 18.92C77.34 18.99 77.38 19.05 77.42 19.11C77.45 19.15 77.48 19.2 77.51 19.24L77.59 19.38L52.18 31.56V31.57Z" fill="#F79839"/>
<path d="M64.05 24.0799L72.95 19.5399C73.32 19.3499 73.46 18.8999 73.28 18.5399C73.15 18.2799 72.89 18.1299 72.61 18.1299C72.5 18.1299 72.38 18.1599 72.27 18.2099L63.37 22.7499C63 22.9399 62.86 23.3899 63.04 23.7499C63.22 24.0999 63.67 24.2599 64.04 24.0699L64.05 24.0799Z" fill="#F79839"/>
</g>
<defs>
<clipPath id="clip0_153_2075">
<rect width="90" height="90" fill="white"/>
</clipPath>
</defs>
</svg>
