<svg width="106" height="106" viewBox="0 0 106 106" fill="none" xmlns="http://www.w3.org/2000/svg">
<path d="M44.1329 54.9941C45.198 54.2364 47.1371 53.626 48.4426 53.636L49.0366 53.6401C50.3416 53.6515 50.975 54.6334 50.4422 55.8268L50.2004 56.3692C49.6681 57.5611 48.3066 59.0725 47.1774 59.728L11.1301 80.622C9.99938 81.277 8.88587 81.5177 8.65559 81.1582C8.42481 80.8003 9.1062 79.8871 10.1693 79.1304L44.1329 54.9941Z" fill="#388DCB"/>
<path d="M47.5025 56.6225L52.7451 53.2432L52.3677 52.6577L47.1251 56.037L47.5025 56.6225Z" fill="#388DCB"/>
<path d="M55.8608 44.1055C55.9285 45.4109 55.4029 47.3746 54.6939 48.4709L54.3717 48.9699C53.6616 50.0649 52.4932 50.0724 51.7722 48.9823L51.4442 48.4872C50.7243 47.3984 50.1796 45.4385 50.2325 44.1339L51.9477 2.50428C52.0018 1.19868 52.3963 0.129918 52.8232 0.12853C53.2491 0.125903 53.654 1.19094 53.7219 2.49404L55.8608 44.1055Z" fill="#388DCB"/>
<path d="M52.6779 46.0743L52.7158 52.3115L53.4124 52.3073L53.3744 46.07L52.6779 46.0743Z" fill="#388DCB"/>
<path d="M59.1003 59.5756C57.9645 58.9288 56.594 57.4274 56.0531 56.2392L55.8066 55.6987C55.2672 54.5103 55.8909 53.5222 57.1976 53.5027L57.7914 53.4935C59.0966 53.4742 61.0409 54.0723 62.1112 54.8202L96.2463 78.7107C97.3167 79.4602 98.0041 80.3687 97.7751 80.729C97.5477 81.0891 96.4324 80.8558 95.2984 80.2104L59.1003 59.5756Z" fill="#388DCB"/>
<path d="M59.1572 55.834L53.8838 52.5029L53.5118 53.0919L58.7852 56.4229L59.1572 55.834Z" fill="#388DCB"/>
<path d="M52.1502 54.4129C51.2113 53.8779 50.8851 52.6817 51.4201 51.7428C51.9552 50.8039 53.1511 50.476 54.0903 51.0126C55.0292 51.5477 55.3554 52.7439 54.8201 53.6812C54.2851 54.6201 53.0889 54.9463 52.1515 54.411L52.1502 54.4129Z" fill="#388DCB"/>
</svg>
